<ttFont>
    <TTGlyph name="A" xMin="19" yMin="-1" xMax="548" yMax="778">
      <contour>
        <pt x="470" y="23" on="1"/>
        <pt x="470" y="40" on="0"/>
        <pt x="476" y="75" on="0"/>
        <pt x="484" y="110" on="0"/>
        <pt x="490" y="146" on="0"/>
        <pt x="490" y="164" on="1"/>
        <pt x="490" y="192" on="0"/>
        <pt x="486" y="256" on="0"/>
        <pt x="478" y="285" on="1"/>
        <pt x="450" y="279" on="0"/>
        <pt x="391" y="282" on="0"/>
        <pt x="332" y="290" on="0"/>
        <pt x="272" y="298" on="0"/>
        <pt x="242" y="298" on="1"/>
        <pt x="233" y="298" on="0"/>
        <pt x="194" y="298" on="0"/>
        <pt x="153" y="296" on="0"/>
        <pt x="136" y="294" on="1"/>
        <pt x="120" y="292" on="0"/>
        <pt x="116" y="288" on="1"/>
        <pt x="106" y="279" on="1"/>
        <pt x="106" y="278" on="0"/>
        <pt x="105" y="271" on="0"/>
        <pt x="105" y="261" on="0"/>
        <pt x="104" y="251" on="0"/>
        <pt x="104" y="248" on="1"/>
        <pt x="104" y="219" on="0"/>
        <pt x="113" y="160" on="0"/>
        <pt x="124" y="104" on="0"/>
        <pt x="129" y="76" on="1"/>
        <pt x="134" y="48" on="0"/>
        <pt x="134" y="20" on="1"/>
        <pt x="134" y="10" on="1"/>
        <pt x="119" y="-4" on="0"/>
        <pt x="95" y="5" on="0"/>
        <pt x="76" y="40" on="0"/>
        <pt x="63" y="95" on="0"/>
        <pt x="56" y="160" on="0"/>
        <pt x="55" y="228" on="0"/>
        <pt x="58" y="260" on="1"/>
        <pt x="56" y="262" on="0"/>
        <pt x="44" y="275" on="0"/>
        <pt x="32" y="290" on="0"/>
        <pt x="26" y="297" on="1"/>
        <pt x="22" y="304" on="0"/>
        <pt x="20" y="308" on="1"/>
        <pt x="19" y="310" on="1"/>
        <pt x="19" y="312" on="1"/>
        <pt x="19" y="319" on="0"/>
        <pt x="26" y="325" on="0"/>
        <pt x="36" y="328" on="0"/>
        <pt x="46" y="332" on="0"/>
        <pt x="49" y="337" on="1"/>
        <pt x="49" y="338" on="0"/>
        <pt x="49" y="346" on="0"/>
        <pt x="49" y="355" on="0"/>
        <pt x="49" y="359" on="1"/>
        <pt x="49" y="362" on="0"/>
        <pt x="49" y="364" on="1"/>
        <pt x="53" y="406" on="0"/>
        <pt x="58" y="501" on="0"/>
        <pt x="71" y="592" on="0"/>
        <pt x="98" y="676" on="0"/>
        <pt x="146" y="740" on="0"/>
        <pt x="220" y="778" on="0"/>
        <pt x="276" y="778" on="1"/>
        <pt x="320" y="778" on="0"/>
        <pt x="391" y="736" on="0"/>
        <pt x="446" y="665" on="0"/>
        <pt x="487" y="572" on="0"/>
        <pt x="515" y="468" on="0"/>
        <pt x="534" y="362" on="0"/>
        <pt x="544" y="266" on="0"/>
        <pt x="548" y="186" on="0"/>
        <pt x="548" y="160" on="1"/>
        <pt x="548" y="141" on="0"/>
        <pt x="548" y="111" on="0"/>
        <pt x="545" y="82" on="0"/>
        <pt x="542" y="50" on="0"/>
        <pt x="538" y="29" on="1"/>
        <pt x="530" y="18" on="0"/>
        <pt x="505" y="-1" on="0"/>
        <pt x="490" y="-1" on="1"/>
        <pt x="477" y="-1" on="0"/>
        <pt x="470" y="12" on="0"/>
      </contour>
      <contour>
        <pt x="446" y="326" on="1"/>
        <pt x="449" y="326" on="0"/>
        <pt x="458" y="327" on="0"/>
        <pt x="464" y="336" on="0"/>
        <pt x="470" y="356" on="0"/>
        <pt x="472" y="374" on="1"/>
        <pt x="472" y="403" on="0"/>
        <pt x="461" y="478" on="0"/>
        <pt x="439" y="558" on="0"/>
        <pt x="404" y="634" on="0"/>
        <pt x="356" y="694" on="0"/>
        <pt x="293" y="730" on="0"/>
        <pt x="254" y="730" on="1"/>
        <pt x="213" y="730" on="0"/>
        <pt x="157" y="687" on="0"/>
        <pt x="122" y="618" on="0"/>
        <pt x="103" y="532" on="0"/>
        <pt x="95" y="446" on="0"/>
        <pt x="94" y="370" on="0"/>
        <pt x="94" y="346" on="1"/>
      </contour>
    </TTGlyph>
    <TTGlyph name="AE" xMin="19" yMin="-1" xMax="962" yMax="778">
      <contour>
        <pt x="566" y="572" on="1"/>
        <pt x="562" y="572" on="0"/>
        <pt x="559" y="573" on="1"/>
        <pt x="563" y="564" on="0"/>
        <pt x="563" y="560" on="1"/>
        <pt x="563" y="378" on="1"/>
        <pt x="568" y="370" on="0"/>
        <pt x="616" y="370" on="0"/>
        <pt x="682" y="377" on="0"/>
        <pt x="757" y="390" on="0"/>
        <pt x="820" y="401" on="0"/>
        <pt x="842" y="404" on="1"/>
        <pt x="864" y="408" on="0"/>
        <pt x="866" y="406" on="1"/>
        <pt x="869" y="406" on="0"/>
        <pt x="886" y="408" on="0"/>
        <pt x="905" y="410" on="0"/>
        <pt x="922" y="410" on="0"/>
        <pt x="925" y="410" on="1"/>
        <pt x="925" y="386" on="0"/>
        <pt x="872" y="356" on="0"/>
        <pt x="792" y="340" on="0"/>
        <pt x="699" y="332" on="0"/>
        <pt x="617" y="326" on="0"/>
        <pt x="561" y="318" on="0"/>
        <pt x="559" y="310" on="1"/>
        <pt x="553" y="294" on="0"/>
        <pt x="548" y="255" on="0"/>
        <pt x="548" y="234" on="1"/>
        <pt x="547" y="226" on="0"/>
        <pt x="547" y="219" on="1"/>
        <pt x="549" y="184" on="0"/>
        <pt x="548" y="160" on="1"/>
        <pt x="548" y="141" on="0"/>
        <pt x="548" y="126" on="1"/>
        <pt x="548" y="122" on="1"/>
        <pt x="549" y="112" on="0"/>
        <pt x="548" y="102" on="1"/>
        <pt x="548" y="90" on="1"/>
        <pt x="552" y="80" on="0"/>
        <pt x="580" y="70" on="0"/>
        <pt x="611" y="68" on="0"/>
        <pt x="640" y="69" on="0"/>
        <pt x="647" y="69" on="1"/>
        <pt x="681" y="69" on="0"/>
        <pt x="749" y="76" on="0"/>
        <pt x="817" y="83" on="0"/>
        <pt x="884" y="90" on="0"/>
        <pt x="918" y="90" on="1"/>
        <pt x="923" y="90" on="1"/>
        <pt x="925" y="89" on="0"/>
        <pt x="934" y="87" on="0"/>
        <pt x="943" y="83" on="0"/>
        <pt x="950" y="80" on="0"/>
        <pt x="952" y="80" on="1"/>
        <pt x="954" y="79" on="0"/>
        <pt x="962" y="72" on="0"/>
        <pt x="962" y="70" on="1"/>
        <pt x="962" y="51" on="0"/>
        <pt x="920" y="27" on="0"/>
        <pt x="856" y="12" on="0"/>
        <pt x="779" y="4" on="0"/>
        <pt x="710" y="2" on="0"/>
        <pt x="685" y="2" on="1"/>
        <pt x="652" y="2" on="1"/>
        <pt x="612" y="2" on="0"/>
        <pt x="581" y="9" on="1"/>
        <pt x="555" y="15" on="0"/>
        <pt x="536" y="28" on="1"/>
        <pt x="528" y="18" on="0"/>
        <pt x="517" y="8" on="1"/>
        <pt x="505" y="-1" on="0"/>
        <pt x="490" y="-1" on="1"/>
        <pt x="477" y="-1" on="0"/>
        <pt x="470" y="12" on="0"/>
        <pt x="470" y="23" on="1"/>
        <pt x="470" y="40" on="0"/>
        <pt x="476" y="75" on="0"/>
        <pt x="484" y="110" on="0"/>
        <pt x="487" y="128" on="1"/>
        <pt x="490" y="142" on="0"/>
        <pt x="490" y="155" on="1"/>
        <pt x="490" y="164" on="1"/>
        <pt x="490" y="192" on="0"/>
        <pt x="486" y="256" on="0"/>
        <pt x="478" y="285" on="1"/>
        <pt x="450" y="279" on="0"/>
        <pt x="391" y="282" on="0"/>
        <pt x="332" y="290" on="0"/>
        <pt x="272" y="298" on="0"/>
        <pt x="242" y="298" on="1"/>
        <pt x="233" y="298" on="0"/>
        <pt x="194" y="298" on="0"/>
        <pt x="153" y="296" on="0"/>
        <pt x="136" y="294" on="1"/>
        <pt x="120" y="292" on="0"/>
        <pt x="116" y="288" on="1"/>
        <pt x="106" y="279" on="1"/>
        <pt x="106" y="278" on="0"/>
        <pt x="105" y="271" on="0"/>
        <pt x="105" y="261" on="0"/>
        <pt x="104" y="251" on="0"/>
        <pt x="104" y="248" on="1"/>
        <pt x="104" y="219" on="0"/>
        <pt x="113" y="160" on="0"/>
        <pt x="124" y="104" on="0"/>
        <pt x="129" y="76" on="1"/>
        <pt x="134" y="48" on="0"/>
        <pt x="134" y="20" on="1"/>
        <pt x="134" y="10" on="1"/>
        <pt x="119" y="-4" on="0"/>
        <pt x="95" y="5" on="0"/>
        <pt x="76" y="40" on="0"/>
        <pt x="63" y="95" on="0"/>
        <pt x="56" y="160" on="0"/>
        <pt x="55" y="228" on="0"/>
        <pt x="58" y="260" on="1"/>
        <pt x="56" y="262" on="0"/>
        <pt x="44" y="275" on="0"/>
        <pt x="32" y="290" on="0"/>
        <pt x="26" y="297" on="1"/>
        <pt x="22" y="304" on="0"/>
        <pt x="20" y="308" on="1"/>
        <pt x="19" y="310" on="1"/>
        <pt x="19" y="312" on="1"/>
        <pt x="19" y="319" on="0"/>
        <pt x="26" y="325" on="0"/>
        <pt x="36" y="328" on="0"/>
        <pt x="46" y="332" on="0"/>
        <pt x="49" y="337" on="1"/>
        <pt x="49" y="364" on="1"/>
        <pt x="53" y="406" on="0"/>
        <pt x="58" y="501" on="0"/>
        <pt x="71" y="592" on="0"/>
        <pt x="98" y="676" on="0"/>
        <pt x="146" y="740" on="0"/>
        <pt x="220" y="778" on="0"/>
        <pt x="276" y="778" on="1"/>
        <pt x="320" y="778" on="0"/>
        <pt x="391" y="736" on="0"/>
        <pt x="446" y="665" on="0"/>
        <pt x="487" y="572" on="0"/>
        <pt x="501" y="520" on="1"/>
        <pt x="506" y="503" on="1"/>
        <pt x="506" y="598" on="1"/>
        <pt x="506" y="614" on="0"/>
        <pt x="513" y="631" on="0"/>
        <pt x="539" y="637" on="0"/>
        <pt x="589" y="635" on="0"/>
        <pt x="674" y="632" on="0"/>
        <pt x="799" y="628" on="0"/>
        <pt x="887" y="630" on="1"/>
        <pt x="897" y="626" on="0"/>
        <pt x="918" y="616" on="0"/>
        <pt x="934" y="603" on="0"/>
        <pt x="945" y="585" on="0"/>
        <pt x="945" y="572" on="1"/>
        <pt x="945" y="569" on="0"/>
        <pt x="938" y="561" on="0"/>
        <pt x="935" y="562" on="1"/>
        <pt x="887" y="581" on="1"/>
      </contour>
      <contour>
        <pt x="446" y="326" on="1"/>
        <pt x="449" y="326" on="0"/>
        <pt x="458" y="327" on="0"/>
        <pt x="464" y="336" on="0"/>
        <pt x="470" y="356" on="0"/>
        <pt x="472" y="374" on="1"/>
        <pt x="472" y="403" on="0"/>
        <pt x="461" y="478" on="0"/>
        <pt x="439" y="558" on="0"/>
        <pt x="404" y="634" on="0"/>
        <pt x="356" y="694" on="0"/>
        <pt x="293" y="730" on="0"/>
        <pt x="254" y="730" on="1"/>
        <pt x="213" y="730" on="0"/>
        <pt x="157" y="687" on="0"/>
        <pt x="122" y="618" on="0"/>
        <pt x="103" y="532" on="0"/>
        <pt x="95" y="446" on="0"/>
        <pt x="94" y="370" on="0"/>
        <pt x="94" y="346" on="1"/>
      </contour>
    </TTGlyph>
    <TTGlyph name="AEacute" xMin="19" yMin="-1" xMax="962" yMax="885">
      <component glyphName="AE" x="0" y="0" flags="0x1204"/>
      <component glyphName="acute" x="452" y="322" flags="0x1004"/>
    </TTGlyph>
    <TTGlyph name="Aacute" xMin="19" yMin="-1" xMax="548" yMax="956">
      <component glyphName="A" x="0" y="0" flags="0x1204"/>
      <component glyphName="acute" x="134" y="394" flags="0x1004"/>
    </TTGlyph>
    <TTGlyph name="Abreve" xMin="19" yMin="-1" xMax="548" yMax="959">
      <component glyphName="A" x="0" y="0" flags="0x1204"/>
      <component glyphName="breve" x="174" y="446" flags="0x1004"/>
    </TTGlyph>
    <TTGlyph name="Acircumflex" xMin="19" yMin="-1" xMax="548" yMax="994">
      <component glyphName="A" x="0" y="0" flags="0x1204"/>
      <component glyphName="circumflex" x="62" y="245" flags="0x1004"/>
    </TTGlyph>
    <TTGlyph name="Adieresis" xMin="19" yMin="-1" xMax="548" yMax="927">
      <component glyphName="A" x="0" y="0" flags="0x1204"/>
      <component glyphName="dieresis" x="71" y="388" flags="0x1004"/>
    </TTGlyph>
    <TTGlyph name="Agrave" xMin="19" yMin="-1" xMax="548" yMax="949">
      <component glyphName="A" x="0" y="0" flags="0x1204"/>
      <component glyphName="grave" x="194" y="380" flags="0x1004"/>
    </TTGlyph>
    <TTGlyph name="Amacron" xMin="19" yMin="-1" xMax="548" yMax="916">
      <component glyphName="A" x="0" y="0" flags="0x1204"/>
      <component glyphName="macron" x="88" y="362" flags="0x1004"/>
    </TTGlyph>
    <TTGlyph name="Aogonek" xMin="19" yMin="-145" xMax="574" yMax="778">
      <contour>
        <pt x="560" y="-145" on="1"/>
        <pt x="508" y="-146" on="0"/>
        <pt x="427" y="-138" on="0"/>
        <pt x="378" y="-110" on="0"/>
        <pt x="372" y="-84" on="1"/>
        <pt x="368" y="-58" on="0"/>
        <pt x="386" y="-13" on="1"/>
        <pt x="394" y="1" on="0"/>
        <pt x="416" y="20" on="0"/>
        <pt x="442" y="32" on="0"/>
        <pt x="457" y="38" on="1"/>
        <pt x="464" y="40" on="0"/>
        <pt x="470" y="43" on="1"/>
        <pt x="470" y="51" on="0"/>
        <pt x="472" y="58" on="1"/>
        <pt x="476" y="75" on="0"/>
        <pt x="484" y="110" on="0"/>
        <pt x="490" y="146" on="0"/>
        <pt x="490" y="164" on="1"/>
        <pt x="490" y="192" on="0"/>
        <pt x="486" y="256" on="0"/>
        <pt x="478" y="285" on="1"/>
        <pt x="450" y="279" on="0"/>
        <pt x="391" y="282" on="0"/>
        <pt x="332" y="290" on="0"/>
        <pt x="272" y="298" on="0"/>
        <pt x="242" y="298" on="1"/>
        <pt x="233" y="298" on="0"/>
        <pt x="194" y="298" on="0"/>
        <pt x="153" y="296" on="0"/>
        <pt x="136" y="294" on="1"/>
        <pt x="120" y="292" on="0"/>
        <pt x="116" y="288" on="1"/>
        <pt x="106" y="279" on="1"/>
        <pt x="106" y="278" on="0"/>
        <pt x="105" y="271" on="0"/>
        <pt x="105" y="261" on="0"/>
        <pt x="104" y="251" on="0"/>
        <pt x="104" y="248" on="1"/>
        <pt x="104" y="219" on="0"/>
        <pt x="113" y="160" on="0"/>
        <pt x="124" y="104" on="0"/>
        <pt x="129" y="76" on="1"/>
        <pt x="134" y="48" on="0"/>
        <pt x="134" y="20" on="1"/>
        <pt x="134" y="10" on="1"/>
        <pt x="119" y="-4" on="0"/>
        <pt x="95" y="5" on="0"/>
        <pt x="76" y="40" on="0"/>
        <pt x="63" y="95" on="0"/>
        <pt x="56" y="160" on="0"/>
        <pt x="55" y="228" on="0"/>
        <pt x="58" y="260" on="1"/>
        <pt x="56" y="262" on="0"/>
        <pt x="44" y="275" on="0"/>
        <pt x="32" y="290" on="0"/>
        <pt x="26" y="297" on="1"/>
        <pt x="22" y="304" on="0"/>
        <pt x="20" y="308" on="1"/>
        <pt x="19" y="310" on="1"/>
        <pt x="19" y="312" on="1"/>
        <pt x="19" y="319" on="0"/>
        <pt x="26" y="325" on="0"/>
        <pt x="36" y="328" on="0"/>
        <pt x="46" y="332" on="0"/>
        <pt x="49" y="337" on="1"/>
        <pt x="49" y="364" on="1"/>
        <pt x="53" y="406" on="0"/>
        <pt x="58" y="501" on="0"/>
        <pt x="71" y="592" on="0"/>
        <pt x="98" y="676" on="0"/>
        <pt x="146" y="740" on="0"/>
        <pt x="220" y="778" on="0"/>
        <pt x="276" y="778" on="1"/>
        <pt x="320" y="778" on="0"/>
        <pt x="391" y="736" on="0"/>
        <pt x="446" y="665" on="0"/>
        <pt x="487" y="572" on="0"/>
        <pt x="515" y="468" on="0"/>
        <pt x="534" y="362" on="0"/>
        <pt x="544" y="266" on="0"/>
        <pt x="548" y="186" on="0"/>
        <pt x="548" y="160" on="1"/>
        <pt x="548" y="141" on="0"/>
        <pt x="548" y="111" on="0"/>
        <pt x="545" y="82" on="0"/>
        <pt x="542" y="50" on="0"/>
        <pt x="538" y="29" on="1"/>
        <pt x="530" y="18" on="0"/>
        <pt x="505" y="-1" on="0"/>
        <pt x="490" y="-1" on="1"/>
        <pt x="485" y="-1" on="0"/>
        <pt x="481" y="0" on="1"/>
        <pt x="449" y="-15" on="0"/>
        <pt x="436" y="-31" on="1"/>
        <pt x="415" y="-55" on="0"/>
        <pt x="436" y="-93" on="0"/>
        <pt x="476" y="-104" on="1"/>
        <pt x="514" y="-115" on="0"/>
        <pt x="574" y="-111" on="1"/>
      </contour>
      <contour>
        <pt x="446" y="326" on="1"/>
        <pt x="449" y="326" on="0"/>
        <pt x="458" y="327" on="0"/>
        <pt x="464" y="336" on="0"/>
        <pt x="470" y="356" on="0"/>
        <pt x="472" y="374" on="1"/>
        <pt x="472" y="403" on="0"/>
        <pt x="461" y="478" on="0"/>
        <pt x="439" y="558" on="0"/>
        <pt x="404" y="634" on="0"/>
        <pt x="356" y="694" on="0"/>
        <pt x="293" y="730" on="0"/>
        <pt x="254" y="730" on="1"/>
        <pt x="213" y="730" on="0"/>
        <pt x="157" y="687" on="0"/>
        <pt x="122" y="618" on="0"/>
        <pt x="103" y="532" on="0"/>
        <pt x="95" y="446" on="0"/>
        <pt x="94" y="370" on="0"/>
        <pt x="94" y="346" on="1"/>
      </contour>
    </TTGlyph>
    <TTGlyph name="Aring" xMin="19" yMin="-1" xMax="548" yMax="935">
      <contour>
        <pt x="164" y="847" on="1"/>
        <pt x="164" y="869" on="0"/>
        <pt x="184" y="902" on="0"/>
        <pt x="217" y="924" on="0"/>
        <pt x="256" y="935" on="0"/>
        <pt x="277" y="935" on="1"/>
        <pt x="293" y="935" on="0"/>
        <pt x="320" y="918" on="0"/>
        <pt x="340" y="892" on="0"/>
        <pt x="346" y="878" on="1"/>
        <pt x="352" y="862" on="0"/>
        <pt x="352" y="850" on="1"/>
        <pt x="352" y="830" on="0"/>
        <pt x="334" y="798" on="0"/>
        <pt x="320" y="787" on="1"/>
        <pt x="312" y="781" on="0"/>
        <pt x="304" y="776" on="1"/>
        <pt x="332" y="772" on="0"/>
        <pt x="356" y="758" on="1"/>
        <pt x="391" y="737" on="0"/>
        <pt x="446" y="665" on="0"/>
        <pt x="487" y="572" on="0"/>
        <pt x="515" y="468" on="0"/>
        <pt x="534" y="362" on="0"/>
        <pt x="544" y="266" on="0"/>
        <pt x="548" y="186" on="0"/>
        <pt x="548" y="160" on="1"/>
        <pt x="548" y="141" on="0"/>
        <pt x="548" y="111" on="0"/>
        <pt x="545" y="82" on="0"/>
        <pt x="542" y="50" on="0"/>
        <pt x="538" y="29" on="1"/>
        <pt x="530" y="18" on="0"/>
        <pt x="505" y="-1" on="0"/>
        <pt x="490" y="-1" on="1"/>
        <pt x="477" y="-1" on="0"/>
        <pt x="470" y="12" on="0"/>
        <pt x="470" y="23" on="1"/>
        <pt x="470" y="40" on="0"/>
        <pt x="476" y="75" on="0"/>
        <pt x="484" y="110" on="0"/>
        <pt x="490" y="146" on="0"/>
        <pt x="490" y="164" on="1"/>
        <pt x="490" y="192" on="0"/>
        <pt x="486" y="256" on="0"/>
        <pt x="478" y="285" on="1"/>
        <pt x="450" y="279" on="0"/>
        <pt x="391" y="282" on="0"/>
        <pt x="332" y="290" on="0"/>
        <pt x="272" y="298" on="0"/>
        <pt x="242" y="298" on="1"/>
        <pt x="233" y="298" on="0"/>
        <pt x="194" y="298" on="0"/>
        <pt x="153" y="296" on="0"/>
        <pt x="136" y="294" on="1"/>
        <pt x="120" y="292" on="0"/>
        <pt x="116" y="288" on="1"/>
        <pt x="106" y="279" on="1"/>
        <pt x="106" y="278" on="0"/>
        <pt x="105" y="271" on="0"/>
        <pt x="105" y="261" on="0"/>
        <pt x="104" y="251" on="0"/>
        <pt x="104" y="248" on="1"/>
        <pt x="104" y="219" on="0"/>
        <pt x="113" y="160" on="0"/>
        <pt x="124" y="104" on="0"/>
        <pt x="129" y="76" on="1"/>
        <pt x="134" y="48" on="0"/>
        <pt x="134" y="20" on="1"/>
        <pt x="134" y="10" on="1"/>
        <pt x="119" y="-4" on="0"/>
        <pt x="95" y="5" on="0"/>
        <pt x="76" y="40" on="0"/>
        <pt x="63" y="95" on="0"/>
        <pt x="56" y="160" on="0"/>
        <pt x="55" y="228" on="0"/>
        <pt x="58" y="260" on="1"/>
        <pt x="56" y="262" on="0"/>
        <pt x="44" y="275" on="0"/>
        <pt x="32" y="290" on="0"/>
        <pt x="26" y="297" on="1"/>
        <pt x="22" y="304" on="0"/>
        <pt x="20" y="308" on="1"/>
        <pt x="19" y="310" on="1"/>
        <pt x="19" y="312" on="1"/>
        <pt x="19" y="319" on="0"/>
        <pt x="26" y="325" on="0"/>
        <pt x="36" y="328" on="0"/>
        <pt x="46" y="332" on="0"/>
        <pt x="49" y="337" on="1"/>
        <pt x="49" y="364" on="1"/>
        <pt x="53" y="406" on="0"/>
        <pt x="58" y="501" on="0"/>
        <pt x="71" y="592" on="0"/>
        <pt x="98" y="676" on="0"/>
        <pt x="146" y="740" on="0"/>
        <pt x="183" y="759" on="1"/>
        <pt x="197" y="767" on="0"/>
        <pt x="213" y="771" on="1"/>
        <pt x="199" y="776" on="0"/>
        <pt x="189" y="786" on="1"/>
        <pt x="164" y="809" on="0"/>
      </contour>
      <contour>
        <pt x="446" y="326" on="1"/>
        <pt x="449" y="326" on="0"/>
        <pt x="458" y="327" on="0"/>
        <pt x="464" y="336" on="0"/>
        <pt x="470" y="356" on="0"/>
        <pt x="472" y="374" on="1"/>
        <pt x="472" y="403" on="0"/>
        <pt x="461" y="478" on="0"/>
        <pt x="439" y="558" on="0"/>
        <pt x="404" y="634" on="0"/>
        <pt x="356" y="694" on="0"/>
        <pt x="293" y="730" on="0"/>
        <pt x="254" y="730" on="1"/>
        <pt x="213" y="730" on="0"/>
        <pt x="157" y="687" on="0"/>
        <pt x="122" y="618" on="0"/>
        <pt x="103" y="532" on="0"/>
        <pt x="95" y="446" on="0"/>
        <pt x="94" y="370" on="0"/>
        <pt x="94" y="346" on="1"/>
      </contour>
      <contour>
        <pt x="196" y="845" on="1"/>
        <pt x="196" y="820" on="0"/>
        <pt x="226" y="796" on="0"/>
        <pt x="253" y="796" on="1"/>
        <pt x="260" y="795" on="0"/>
        <pt x="281" y="803" on="0"/>
        <pt x="302" y="818" on="0"/>
        <pt x="317" y="840" on="0"/>
        <pt x="316" y="864" on="0"/>
        <pt x="306" y="876" on="1"/>
        <pt x="294" y="889" on="0"/>
        <pt x="268" y="900" on="1"/>
        <pt x="254" y="900" on="0"/>
        <pt x="229" y="895" on="0"/>
        <pt x="208" y="882" on="0"/>
        <pt x="196" y="861" on="0"/>
      </contour>
    </TTGlyph>
    <TTGlyph name="Atilde" xMin="19" yMin="-1" xMax="548" yMax="925">
      <component glyphName="A" x="0" y="0" flags="0x1204"/>
      <component glyphName="tilde" x="59" y="370" flags="0x1004"/>
    </TTGlyph>
    <TTGlyph name="B" xMin="20" yMin="-1" xMax="740" yMax="710">
      <contour>
        <pt x="308" y="29" on="1"/>
        <pt x="306" y="30" on="0"/>
        <pt x="279" y="44" on="0"/>
        <pt x="250" y="64" on="0"/>
        <pt x="228" y="86" on="0"/>
        <pt x="230" y="96" on="1"/>
        <pt x="234" y="107" on="0"/>
        <pt x="251" y="116" on="0"/>
        <pt x="268" y="124" on="0"/>
        <pt x="280" y="138" on="0"/>
        <pt x="279" y="154" on="1"/>
        <pt x="262" y="273" on="0"/>
        <pt x="234" y="456" on="0"/>
        <pt x="203" y="580" on="0"/>
        <pt x="166" y="644" on="0"/>
        <pt x="139" y="644" on="1"/>
        <pt x="138" y="644" on="0"/>
        <pt x="138" y="644" on="1"/>
        <pt x="136" y="644" on="1"/>
        <pt x="134" y="644" on="1"/>
        <pt x="126" y="639" on="0"/>
        <pt x="99" y="628" on="0"/>
        <pt x="68" y="617" on="0"/>
        <pt x="38" y="608" on="0"/>
        <pt x="29" y="605" on="1"/>
        <pt x="27" y="605" on="0"/>
        <pt x="24" y="604" on="1"/>
        <pt x="22" y="604" on="0"/>
        <pt x="20" y="604" on="1"/>
        <pt x="20" y="634" on="1"/>
        <pt x="20" y="644" on="0"/>
        <pt x="56" y="662" on="0"/>
        <pt x="111" y="679" on="0"/>
        <pt x="177" y="694" on="0"/>
        <pt x="238" y="704" on="0"/>
        <pt x="286" y="710" on="0"/>
        <pt x="294" y="710" on="1"/>
        <pt x="312" y="710" on="0"/>
        <pt x="362" y="702" on="0"/>
        <pt x="417" y="686" on="0"/>
        <pt x="470" y="661" on="0"/>
        <pt x="512" y="629" on="0"/>
        <pt x="525" y="609" on="1"/>
        <pt x="538" y="590" on="0"/>
        <pt x="538" y="566" on="1"/>
        <pt x="538" y="540" on="0"/>
        <pt x="517" y="496" on="0"/>
        <pt x="490" y="461" on="0"/>
        <pt x="469" y="434" on="0"/>
        <pt x="469" y="422" on="1"/>
        <pt x="469" y="420" on="0"/>
        <pt x="508" y="401" on="0"/>
        <pt x="569" y="367" on="0"/>
        <pt x="639" y="317" on="0"/>
        <pt x="700" y="256" on="0"/>
        <pt x="740" y="185" on="0"/>
        <pt x="740" y="145" on="1"/>
        <pt x="740" y="103" on="0"/>
        <pt x="703" y="47" on="0"/>
        <pt x="645" y="14" on="0"/>
        <pt x="574" y="-1" on="0"/>
        <pt x="508" y="-1" on="0"/>
        <pt x="457" y="2" on="0"/>
        <pt x="406" y="9" on="0"/>
        <pt x="348" y="20" on="0"/>
      </contour>
      <contour>
        <pt x="337" y="148" on="1"/>
        <pt x="324" y="128" on="0"/>
        <pt x="334" y="98" on="0"/>
        <pt x="368" y="76" on="0"/>
        <pt x="416" y="63" on="0"/>
        <pt x="464" y="56" on="0"/>
        <pt x="484" y="56" on="1"/>
        <pt x="504" y="56" on="0"/>
        <pt x="514" y="57" on="1"/>
        <pt x="544" y="57" on="0"/>
        <pt x="602" y="62" on="0"/>
        <pt x="646" y="83" on="0"/>
        <pt x="672" y="123" on="0"/>
        <pt x="672" y="158" on="1"/>
        <pt x="672" y="207" on="0"/>
        <pt x="621" y="272" on="0"/>
        <pt x="544" y="318" on="0"/>
        <pt x="454" y="349" on="0"/>
        <pt x="376" y="376" on="0"/>
        <pt x="326" y="406" on="0"/>
        <pt x="326" y="427" on="1"/>
        <pt x="326" y="438" on="0"/>
        <pt x="349" y="451" on="0"/>
        <pt x="384" y="461" on="0"/>
        <pt x="424" y="472" on="0"/>
        <pt x="460" y="493" on="0"/>
        <pt x="483" y="525" on="0"/>
        <pt x="483" y="552" on="1"/>
        <pt x="483" y="574" on="0"/>
        <pt x="459" y="608" on="0"/>
        <pt x="422" y="632" on="0"/>
        <pt x="379" y="644" on="0"/>
        <pt x="360" y="644" on="1"/>
        <pt x="332" y="644" on="0"/>
        <pt x="272" y="632" on="0"/>
        <pt x="250" y="614" on="1"/>
        <pt x="262" y="563" on="0"/>
        <pt x="292" y="441" on="0"/>
        <pt x="319" y="316" on="0"/>
        <pt x="337" y="196" on="0"/>
      </contour>
    </TTGlyph>
    <TTGlyph name="C" xMin="19" yMin="-1" xMax="500" yMax="663">
      <contour>
        <pt x="19" y="277" on="1"/>
        <pt x="19" y="317" on="0"/>
        <pt x="45" y="404" on="0"/>
        <pt x="91" y="490" on="0"/>
        <pt x="154" y="568" on="0"/>
        <pt x="230" y="628" on="0"/>
        <pt x="272" y="646" on="1"/>
        <pt x="314" y="663" on="0"/>
        <pt x="356" y="663" on="1"/>
        <pt x="380" y="663" on="0"/>
        <pt x="404" y="627" on="0"/>
        <pt x="404" y="605" on="1"/>
        <pt x="404" y="592" on="0"/>
        <pt x="394" y="558" on="0"/>
        <pt x="374" y="525" on="0"/>
        <pt x="349" y="502" on="0"/>
        <pt x="334" y="502" on="1"/>
        <pt x="334" y="512" on="0"/>
        <pt x="340" y="531" on="0"/>
        <pt x="350" y="548" on="0"/>
        <pt x="356" y="566" on="0"/>
        <pt x="356" y="577" on="1"/>
        <pt x="356" y="591" on="0"/>
        <pt x="333" y="596" on="0"/>
        <pt x="322" y="596" on="1"/>
        <pt x="320" y="596" on="0"/>
        <pt x="314" y="596" on="1"/>
        <pt x="310" y="596" on="0"/>
        <pt x="308" y="596" on="1"/>
        <pt x="262" y="578" on="0"/>
        <pt x="174" y="519" on="0"/>
        <pt x="106" y="442" on="0"/>
        <pt x="66" y="349" on="0"/>
        <pt x="66" y="296" on="1"/>
        <pt x="66" y="262" on="0"/>
        <pt x="79" y="181" on="0"/>
        <pt x="111" y="112" on="0"/>
        <pt x="166" y="66" on="0"/>
        <pt x="207" y="66" on="1"/>
        <pt x="241" y="66" on="0"/>
        <pt x="308" y="79" on="0"/>
        <pt x="375" y="94" on="0"/>
        <pt x="442" y="106" on="0"/>
        <pt x="476" y="106" on="1"/>
        <pt x="484" y="106" on="0"/>
        <pt x="500" y="102" on="0"/>
        <pt x="500" y="92" on="1"/>
        <pt x="500" y="87" on="0"/>
        <pt x="488" y="72" on="0"/>
        <pt x="470" y="58" on="0"/>
        <pt x="454" y="50" on="0"/>
        <pt x="452" y="49" on="1"/>
        <pt x="221" y="0" on="1"/>
        <pt x="219" y="0" on="0"/>
        <pt x="206" y="-1" on="0"/>
        <pt x="202" y="-1" on="1"/>
        <pt x="169" y="-1" on="0"/>
        <pt x="116" y="26" on="0"/>
        <pt x="75" y="69" on="0"/>
        <pt x="46" y="126" on="0"/>
        <pt x="27" y="188" on="0"/>
        <pt x="19" y="250" on="0"/>
      </contour>
    </TTGlyph>
    <TTGlyph name="Cacute" xMin="19" yMin="-1" xMax="500" yMax="836">
      <component glyphName="C" x="0" y="0" flags="0x1204"/>
      <component glyphName="acute" x="206" y="274" flags="0x1004"/>
    </TTGlyph>
    <TTGlyph name="Ccaron" xMin="19" yMin="-1" xMax="500" yMax="834">
      <component glyphName="C" x="0" y="0" flags="0x1204"/>
      <component glyphName="caron" x="117" y="212" flags="0x1004"/>
    </TTGlyph>
    <TTGlyph name="Ccedilla" xMin="19" yMin="-314" xMax="500" yMax="663">
      <contour>
        <pt x="131" y="-216" on="1"/>
        <pt x="137" y="-211" on="0"/>
        <pt x="148" y="-208" on="0"/>
        <pt x="155" y="-208" on="1"/>
        <pt x="171" y="-208" on="0"/>
        <pt x="202" y="-227" on="0"/>
        <pt x="230" y="-249" on="0"/>
        <pt x="256" y="-268" on="0"/>
        <pt x="288" y="-268" on="0"/>
        <pt x="316" y="-268" on="0"/>
        <pt x="334" y="-261" on="0"/>
        <pt x="345" y="-238" on="0"/>
        <pt x="345" y="-214" on="1"/>
        <pt x="346" y="-191" on="0"/>
        <pt x="329" y="-165" on="0"/>
        <pt x="302" y="-151" on="0"/>
        <pt x="266" y="-145" on="0"/>
        <pt x="229" y="-137" on="0"/>
        <pt x="193" y="-124" on="0"/>
        <pt x="164" y="-99" on="0"/>
        <pt x="147" y="-56" on="0"/>
        <pt x="146" y="-21" on="1"/>
        <pt x="147" y="-2" on="0"/>
        <pt x="150" y="8" on="1"/>
        <pt x="146" y="10" on="0"/>
        <pt x="142" y="12" on="1"/>
        <pt x="116" y="26" on="0"/>
        <pt x="75" y="69" on="0"/>
        <pt x="46" y="126" on="0"/>
        <pt x="27" y="188" on="0"/>
        <pt x="19" y="250" on="0"/>
        <pt x="19" y="277" on="1"/>
        <pt x="19" y="317" on="0"/>
        <pt x="45" y="404" on="0"/>
        <pt x="91" y="490" on="0"/>
        <pt x="154" y="568" on="0"/>
        <pt x="230" y="628" on="0"/>
        <pt x="272" y="646" on="1"/>
        <pt x="314" y="663" on="0"/>
        <pt x="356" y="663" on="1"/>
        <pt x="380" y="663" on="0"/>
        <pt x="404" y="627" on="0"/>
        <pt x="404" y="605" on="1"/>
        <pt x="404" y="592" on="0"/>
        <pt x="394" y="558" on="0"/>
        <pt x="374" y="525" on="0"/>
        <pt x="349" y="502" on="0"/>
        <pt x="334" y="502" on="1"/>
        <pt x="334" y="512" on="0"/>
        <pt x="340" y="531" on="0"/>
        <pt x="350" y="548" on="0"/>
        <pt x="356" y="566" on="0"/>
        <pt x="356" y="577" on="1"/>
        <pt x="356" y="591" on="0"/>
        <pt x="333" y="596" on="0"/>
        <pt x="322" y="596" on="1"/>
        <pt x="320" y="596" on="0"/>
        <pt x="314" y="596" on="1"/>
        <pt x="310" y="596" on="0"/>
        <pt x="308" y="596" on="1"/>
        <pt x="262" y="578" on="0"/>
        <pt x="174" y="519" on="0"/>
        <pt x="106" y="442" on="0"/>
        <pt x="66" y="349" on="0"/>
        <pt x="66" y="296" on="1"/>
        <pt x="66" y="262" on="0"/>
        <pt x="79" y="181" on="0"/>
        <pt x="111" y="112" on="0"/>
        <pt x="166" y="66" on="0"/>
        <pt x="207" y="66" on="1"/>
        <pt x="241" y="66" on="0"/>
        <pt x="308" y="79" on="0"/>
        <pt x="375" y="94" on="0"/>
        <pt x="442" y="106" on="0"/>
        <pt x="476" y="106" on="1"/>
        <pt x="484" y="106" on="0"/>
        <pt x="500" y="102" on="0"/>
        <pt x="500" y="92" on="1"/>
        <pt x="500" y="87" on="0"/>
        <pt x="488" y="72" on="0"/>
        <pt x="470" y="58" on="0"/>
        <pt x="454" y="50" on="0"/>
        <pt x="452" y="49" on="1"/>
        <pt x="221" y="0" on="1"/>
        <pt x="219" y="0" on="0"/>
        <pt x="206" y="-1" on="0"/>
        <pt x="202" y="-1" on="1"/>
        <pt x="196" y="-1" on="0"/>
        <pt x="190" y="0" on="1"/>
        <pt x="194" y="-10" on="0"/>
        <pt x="196" y="-30" on="0"/>
        <pt x="192" y="-34" on="1"/>
        <pt x="192" y="-66" on="0"/>
        <pt x="223" y="-93" on="0"/>
        <pt x="268" y="-105" on="0"/>
        <pt x="322" y="-111" on="0"/>
        <pt x="368" y="-132" on="0"/>
        <pt x="399" y="-176" on="0"/>
        <pt x="399" y="-219" on="1"/>
        <pt x="399" y="-243" on="0"/>
        <pt x="374" y="-279" on="0"/>
        <pt x="335" y="-302" on="0"/>
        <pt x="312" y="-308" on="1"/>
        <pt x="288" y="-314" on="0"/>
        <pt x="268" y="-314" on="1"/>
        <pt x="239" y="-314" on="0"/>
        <pt x="201" y="-297" on="0"/>
        <pt x="172" y="-270" on="0"/>
        <pt x="147" y="-235" on="0"/>
      </contour>
    </TTGlyph>
    <TTGlyph name="Ccircumflex" xMin="19" yMin="-1" xMax="500" yMax="903">
      <component glyphName="C" x="0" y="0" flags="0x1204"/>
      <component glyphName="circumflex" x="75" y="154" flags="0x1004"/>
    </TTGlyph>
    <TTGlyph name="Cdotaccent" xMin="19" yMin="-1" xMax="500" yMax="801">
      <component glyphName="C" x="0" y="0" flags="0x1204"/>
      <component glyphName="dotaccent" x="192" y="239" flags="0x1004"/>
    </TTGlyph>
    <TTGlyph name="D" xMin="20" yMin="-11" xMax="730" yMax="644">
      <contour>
        <pt x="249" y="62" on="1"/>
        <pt x="249" y="70" on="0"/>
        <pt x="254" y="87" on="0"/>
        <pt x="264" y="87" on="1"/>
        <pt x="269" y="87" on="0"/>
        <pt x="310" y="76" on="0"/>
        <pt x="358" y="62" on="0"/>
        <pt x="404" y="50" on="0"/>
        <pt x="413" y="49" on="1"/>
        <pt x="418" y="49" on="1"/>
        <pt x="462" y="49" on="0"/>
        <pt x="552" y="82" on="0"/>
        <pt x="626" y="142" on="0"/>
        <pt x="673" y="221" on="0"/>
        <pt x="673" y="267" on="1"/>
        <pt x="673" y="303" on="0"/>
        <pt x="645" y="372" on="0"/>
        <pt x="598" y="436" on="0"/>
        <pt x="535" y="490" on="0"/>
        <pt x="465" y="533" on="0"/>
        <pt x="393" y="563" on="0"/>
        <pt x="360" y="569" on="1"/>
        <pt x="361" y="505" on="0"/>
        <pt x="380" y="391" on="0"/>
        <pt x="399" y="286" on="0"/>
        <pt x="404" y="236" on="1"/>
        <pt x="410" y="186" on="0"/>
        <pt x="404" y="136" on="1"/>
        <pt x="404" y="130" on="0"/>
        <pt x="404" y="117" on="0"/>
        <pt x="399" y="104" on="0"/>
        <pt x="388" y="96" on="0"/>
        <pt x="380" y="96" on="1"/>
        <pt x="365" y="88" on="0"/>
        <pt x="349" y="116" on="0"/>
        <pt x="341" y="173" on="0"/>
        <pt x="339" y="251" on="0"/>
        <pt x="334" y="336" on="0"/>
        <pt x="326" y="418" on="0"/>
        <pt x="317" y="452" on="1"/>
        <pt x="315" y="464" on="0"/>
        <pt x="309" y="502" on="0"/>
        <pt x="299" y="543" on="0"/>
        <pt x="286" y="578" on="0"/>
        <pt x="279" y="586" on="1"/>
        <pt x="207" y="586" on="0"/>
        <pt x="121" y="577" on="0"/>
        <pt x="70" y="565" on="0"/>
        <pt x="47" y="552" on="0"/>
        <pt x="38" y="548" on="1"/>
        <pt x="36" y="547" on="1"/>
        <pt x="34" y="546" on="0"/>
        <pt x="33" y="546" on="1"/>
        <pt x="31" y="546" on="0"/>
        <pt x="31" y="547" on="1"/>
        <pt x="30" y="548" on="0"/>
        <pt x="29" y="548" on="1"/>
        <pt x="28" y="549" on="0"/>
        <pt x="26" y="555" on="0"/>
        <pt x="23" y="564" on="0"/>
        <pt x="20" y="574" on="0"/>
        <pt x="20" y="576" on="1"/>
        <pt x="20" y="580" on="1"/>
        <pt x="20" y="594" on="0"/>
        <pt x="49" y="614" on="0"/>
        <pt x="92" y="628" on="0"/>
        <pt x="144" y="637" on="0"/>
        <pt x="189" y="641" on="0"/>
        <pt x="220" y="644" on="0"/>
        <pt x="221" y="644" on="1"/>
        <pt x="272" y="644" on="0"/>
        <pt x="388" y="621" on="0"/>
        <pt x="501" y="577" on="0"/>
        <pt x="604" y="512" on="0"/>
        <pt x="683" y="428" on="0"/>
        <pt x="730" y="324" on="0"/>
        <pt x="730" y="264" on="1"/>
        <pt x="730" y="209" on="0"/>
        <pt x="696" y="121" on="0"/>
        <pt x="636" y="55" on="0"/>
        <pt x="556" y="10" on="0"/>
        <pt x="466" y="-11" on="0"/>
        <pt x="371" y="-11" on="0"/>
        <pt x="326" y="0" on="1"/>
        <pt x="317" y="3" on="0"/>
        <pt x="291" y="14" on="0"/>
        <pt x="266" y="28" on="0"/>
        <pt x="249" y="49" on="0"/>
      </contour>
    </TTGlyph>
    <TTGlyph name="Dcaron" xMin="20" yMin="-11" xMax="730" yMax="776">
      <component glyphName="D" x="0" y="0" flags="0x1204"/>
      <component glyphName="caron" x="189" y="154" flags="0x1004"/>
    </TTGlyph>
    <TTGlyph name="Dcroat" xMin="20" yMin="-11" xMax="730" yMax="644">
      <contour>
        <pt x="249" y="62" on="1"/>
        <pt x="249" y="70" on="0"/>
        <pt x="254" y="87" on="0"/>
        <pt x="264" y="87" on="1"/>
        <pt x="269" y="87" on="0"/>
        <pt x="310" y="76" on="0"/>
        <pt x="358" y="62" on="0"/>
        <pt x="404" y="50" on="0"/>
        <pt x="413" y="49" on="1"/>
        <pt x="418" y="49" on="1"/>
        <pt x="462" y="49" on="0"/>
        <pt x="552" y="82" on="0"/>
        <pt x="626" y="142" on="0"/>
        <pt x="673" y="221" on="0"/>
        <pt x="673" y="267" on="1"/>
        <pt x="673" y="303" on="0"/>
        <pt x="645" y="372" on="0"/>
        <pt x="598" y="436" on="0"/>
        <pt x="535" y="490" on="0"/>
        <pt x="465" y="533" on="0"/>
        <pt x="393" y="563" on="0"/>
        <pt x="360" y="569" on="1"/>
        <pt x="361" y="505" on="0"/>
        <pt x="370" y="448" on="1"/>
        <pt x="378" y="398" on="0"/>
        <pt x="386" y="351" on="1"/>
        <pt x="400" y="351" on="0"/>
        <pt x="432" y="349" on="0"/>
        <pt x="460" y="340" on="0"/>
        <pt x="478" y="321" on="0"/>
        <pt x="478" y="303" on="1"/>
        <pt x="478" y="282" on="0"/>
        <pt x="459" y="282" on="1"/>
        <pt x="436" y="282" on="0"/>
        <pt x="418" y="287" on="1"/>
        <pt x="408" y="290" on="0"/>
        <pt x="397" y="292" on="1"/>
        <pt x="401" y="264" on="0"/>
        <pt x="404" y="236" on="1"/>
        <pt x="410" y="186" on="0"/>
        <pt x="404" y="136" on="1"/>
        <pt x="404" y="130" on="0"/>
        <pt x="404" y="117" on="0"/>
        <pt x="399" y="104" on="0"/>
        <pt x="388" y="96" on="0"/>
        <pt x="380" y="96" on="1"/>
        <pt x="365" y="88" on="0"/>
        <pt x="349" y="116" on="0"/>
        <pt x="341" y="173" on="0"/>
        <pt x="340" y="212" on="1"/>
        <pt x="339" y="250" on="0"/>
        <pt x="337" y="291" on="1"/>
        <pt x="329" y="290" on="1"/>
        <pt x="311" y="287" on="0"/>
        <pt x="278" y="279" on="0"/>
        <pt x="242" y="272" on="0"/>
        <pt x="213" y="272" on="1"/>
        <pt x="213" y="307" on="0"/>
        <pt x="239" y="338" on="0"/>
        <pt x="281" y="348" on="0"/>
        <pt x="308" y="347" on="1"/>
        <pt x="320" y="346" on="0"/>
        <pt x="333" y="347" on="1"/>
        <pt x="330" y="377" on="1"/>
        <pt x="326" y="418" on="0"/>
        <pt x="317" y="452" on="1"/>
        <pt x="315" y="464" on="0"/>
        <pt x="309" y="502" on="0"/>
        <pt x="299" y="543" on="0"/>
        <pt x="286" y="578" on="0"/>
        <pt x="279" y="586" on="1"/>
        <pt x="207" y="586" on="0"/>
        <pt x="121" y="577" on="0"/>
        <pt x="70" y="565" on="0"/>
        <pt x="47" y="552" on="0"/>
        <pt x="38" y="548" on="1"/>
        <pt x="36" y="547" on="1"/>
        <pt x="34" y="546" on="0"/>
        <pt x="33" y="546" on="1"/>
        <pt x="31" y="546" on="0"/>
        <pt x="31" y="547" on="1"/>
        <pt x="30" y="548" on="0"/>
        <pt x="29" y="548" on="1"/>
        <pt x="28" y="549" on="0"/>
        <pt x="27" y="551" on="1"/>
        <pt x="25" y="560" on="1"/>
        <pt x="23" y="564" on="0"/>
        <pt x="20" y="574" on="0"/>
        <pt x="20" y="576" on="1"/>
        <pt x="20" y="580" on="1"/>
        <pt x="20" y="594" on="0"/>
        <pt x="49" y="614" on="0"/>
        <pt x="92" y="628" on="0"/>
        <pt x="144" y="637" on="0"/>
        <pt x="189" y="641" on="0"/>
        <pt x="220" y="644" on="0"/>
        <pt x="221" y="644" on="1"/>
        <pt x="272" y="644" on="0"/>
        <pt x="388" y="621" on="0"/>
        <pt x="501" y="577" on="0"/>
        <pt x="604" y="512" on="0"/>
        <pt x="683" y="428" on="0"/>
        <pt x="730" y="324" on="0"/>
        <pt x="730" y="264" on="1"/>
        <pt x="730" y="209" on="0"/>
        <pt x="696" y="121" on="0"/>
        <pt x="636" y="55" on="0"/>
        <pt x="556" y="10" on="0"/>
        <pt x="466" y="-11" on="0"/>
        <pt x="371" y="-11" on="0"/>
        <pt x="326" y="0" on="1"/>
        <pt x="317" y="3" on="0"/>
        <pt x="291" y="14" on="0"/>
        <pt x="266" y="28" on="0"/>
        <pt x="249" y="49" on="0"/>
      </contour>
    </TTGlyph>
    <TTGlyph name="E" xMin="19" yMin="-1" xMax="490" yMax="633">
      <contour>
        <pt x="94" y="569" on="1"/>
        <pt x="90" y="569" on="0"/>
        <pt x="87" y="570" on="1"/>
        <pt x="92" y="560" on="0"/>
        <pt x="92" y="556" on="1"/>
        <pt x="92" y="375" on="1"/>
        <pt x="97" y="367" on="0"/>
        <pt x="145" y="368" on="0"/>
        <pt x="211" y="374" on="0"/>
        <pt x="285" y="387" on="0"/>
        <pt x="349" y="398" on="0"/>
        <pt x="370" y="402" on="1"/>
        <pt x="392" y="406" on="0"/>
        <pt x="394" y="404" on="1"/>
        <pt x="397" y="404" on="0"/>
        <pt x="414" y="405" on="0"/>
        <pt x="434" y="406" on="0"/>
        <pt x="450" y="407" on="0"/>
        <pt x="453" y="407" on="1"/>
        <pt x="453" y="383" on="0"/>
        <pt x="400" y="353" on="0"/>
        <pt x="320" y="337" on="0"/>
        <pt x="227" y="328" on="0"/>
        <pt x="146" y="322" on="0"/>
        <pt x="118" y="318" on="1"/>
        <pt x="89" y="316" on="0"/>
        <pt x="87" y="308" on="1"/>
        <pt x="81" y="292" on="0"/>
        <pt x="76" y="252" on="0"/>
        <pt x="75" y="211" on="0"/>
        <pt x="76" y="170" on="0"/>
        <pt x="76" y="154" on="1"/>
        <pt x="76" y="150" on="0"/>
        <pt x="76" y="130" on="0"/>
        <pt x="76" y="109" on="0"/>
        <pt x="76" y="90" on="0"/>
        <pt x="76" y="87" on="1"/>
        <pt x="80" y="77" on="0"/>
        <pt x="108" y="67" on="0"/>
        <pt x="140" y="64" on="0"/>
        <pt x="154" y="65" on="1"/>
        <pt x="170" y="66" on="0"/>
        <pt x="176" y="66" on="1"/>
        <pt x="210" y="66" on="0"/>
        <pt x="278" y="73" on="0"/>
        <pt x="345" y="80" on="0"/>
        <pt x="412" y="87" on="0"/>
        <pt x="446" y="87" on="1"/>
        <pt x="452" y="87" on="1"/>
        <pt x="454" y="86" on="0"/>
        <pt x="462" y="84" on="0"/>
        <pt x="471" y="80" on="0"/>
        <pt x="474" y="78" on="1"/>
        <pt x="478" y="76" on="0"/>
        <pt x="480" y="76" on="1"/>
        <pt x="482" y="75" on="0"/>
        <pt x="486" y="72" on="1"/>
        <pt x="490" y="70" on="0"/>
        <pt x="490" y="68" on="1"/>
        <pt x="490" y="49" on="0"/>
        <pt x="448" y="24" on="0"/>
        <pt x="384" y="9" on="0"/>
        <pt x="308" y="2" on="0"/>
        <pt x="238" y="-1" on="0"/>
        <pt x="188" y="-1" on="0"/>
        <pt x="181" y="-1" on="1"/>
        <pt x="141" y="-1" on="0"/>
        <pt x="80" y="13" on="0"/>
        <pt x="39" y="46" on="0"/>
        <pt x="29" y="74" on="1"/>
        <pt x="19" y="104" on="0"/>
        <pt x="19" y="146" on="1"/>
        <pt x="19" y="184" on="0"/>
        <pt x="30" y="260" on="0"/>
        <pt x="30" y="299" on="1"/>
        <pt x="30" y="315" on="0"/>
        <pt x="20" y="337" on="0"/>
        <pt x="20" y="350" on="1"/>
        <pt x="20" y="356" on="1"/>
        <pt x="22" y="358" on="0"/>
        <pt x="32" y="373" on="0"/>
        <pt x="34" y="375" on="1"/>
        <pt x="34" y="596" on="1"/>
        <pt x="34" y="612" on="0"/>
        <pt x="41" y="628" on="0"/>
        <pt x="68" y="634" on="0"/>
        <pt x="117" y="632" on="0"/>
        <pt x="202" y="628" on="0"/>
        <pt x="264" y="627" on="1"/>
        <pt x="328" y="626" on="0"/>
        <pt x="416" y="627" on="1"/>
        <pt x="426" y="623" on="0"/>
        <pt x="446" y="614" on="0"/>
        <pt x="463" y="600" on="0"/>
        <pt x="473" y="582" on="0"/>
        <pt x="473" y="569" on="1"/>
        <pt x="473" y="566" on="0"/>
        <pt x="466" y="558" on="0"/>
        <pt x="464" y="559" on="1"/>
        <pt x="416" y="578" on="1"/>
      </contour>
    </TTGlyph>
    <TTGlyph name="Eacute" xMin="19" yMin="-1" xMax="490" yMax="808">
      <component glyphName="E" x="0" y="0" flags="0x1204"/>
      <component glyphName="acute" x="156" y="245" flags="0x1004"/>
    </TTGlyph>
    <TTGlyph name="Ebreve" xMin="19" yMin="-1" xMax="490" yMax="802">
      <component glyphName="E" x="0" y="0" flags="0x1204"/>
      <component glyphName="breve" x="140" y="289" flags="0x1004"/>
    </TTGlyph>
    <TTGlyph name="Ecaron" xMin="19" yMin="-1" xMax="490" yMax="776">
      <component glyphName="E" x="0" y="0" flags="0x1204"/>
      <component glyphName="caron" x="78" y="154" flags="0x1004"/>
    </TTGlyph>
    <TTGlyph name="Ecircumflex" xMin="19" yMin="-1" xMax="490" yMax="903">
      <component glyphName="E" x="0" y="0" flags="0x1204"/>
      <component glyphName="circumflex" x="80" y="154" flags="0x1004"/>
    </TTGlyph>
    <TTGlyph name="Edieresis" xMin="19" yMin="-1" xMax="490" yMax="787">
      <component glyphName="E" x="0" y="0" flags="0x1204"/>
      <component glyphName="dieresis" x="64" y="248" flags="0x1004"/>
    </TTGlyph>
    <TTGlyph name="Edotaccent" xMin="19" yMin="-1" xMax="490" yMax="774">
      <component glyphName="E" x="0" y="0" flags="0x1204"/>
      <component glyphName="dotaccent" x="169" y="212" flags="0x1004"/>
    </TTGlyph>
    <TTGlyph name="Egrave" xMin="19" yMin="-1" xMax="490" yMax="811">
      <component glyphName="E" x="0" y="0" flags="0x1204"/>
      <component glyphName="grave" x="170" y="243" flags="0x1004"/>
    </TTGlyph>
    <TTGlyph name="Emacron" xMin="19" yMin="-1" xMax="490" yMax="766">
      <component glyphName="E" x="0" y="0" flags="0x1204"/>
      <component glyphName="macron" x="93" y="212" flags="0x1004"/>
    </TTGlyph>
    <TTGlyph name="Eogonek" xMin="19" yMin="-145" xMax="490" yMax="633">
      <contour>
        <pt x="454" y="-145" on="1"/>
        <pt x="402" y="-146" on="0"/>
        <pt x="322" y="-138" on="0"/>
        <pt x="273" y="-110" on="0"/>
        <pt x="262" y="-58" on="0"/>
        <pt x="280" y="-13" on="1"/>
        <pt x="284" y="-5" on="0"/>
        <pt x="290" y="1" on="1"/>
        <pt x="282" y="1" on="0"/>
        <pt x="273" y="0" on="1"/>
        <pt x="239" y="-1" on="0"/>
        <pt x="213" y="-1" on="1"/>
        <pt x="181" y="-1" on="1"/>
        <pt x="141" y="-1" on="0"/>
        <pt x="80" y="13" on="0"/>
        <pt x="39" y="46" on="0"/>
        <pt x="29" y="74" on="1"/>
        <pt x="19" y="104" on="0"/>
        <pt x="19" y="146" on="1"/>
        <pt x="19" y="184" on="0"/>
        <pt x="30" y="260" on="0"/>
        <pt x="30" y="299" on="1"/>
        <pt x="30" y="315" on="0"/>
        <pt x="20" y="337" on="0"/>
        <pt x="20" y="350" on="1"/>
        <pt x="20" y="356" on="1"/>
        <pt x="22" y="358" on="0"/>
        <pt x="32" y="373" on="0"/>
        <pt x="34" y="375" on="1"/>
        <pt x="34" y="596" on="1"/>
        <pt x="34" y="612" on="0"/>
        <pt x="41" y="628" on="0"/>
        <pt x="68" y="634" on="0"/>
        <pt x="117" y="632" on="0"/>
        <pt x="202" y="628" on="0"/>
        <pt x="264" y="627" on="1"/>
        <pt x="328" y="626" on="0"/>
        <pt x="416" y="627" on="1"/>
        <pt x="426" y="623" on="0"/>
        <pt x="446" y="614" on="0"/>
        <pt x="463" y="600" on="0"/>
        <pt x="473" y="582" on="0"/>
        <pt x="473" y="569" on="1"/>
        <pt x="473" y="566" on="0"/>
        <pt x="466" y="558" on="0"/>
        <pt x="464" y="559" on="1"/>
        <pt x="416" y="578" on="1"/>
        <pt x="94" y="569" on="1"/>
        <pt x="90" y="569" on="0"/>
        <pt x="87" y="570" on="1"/>
        <pt x="92" y="560" on="0"/>
        <pt x="92" y="556" on="1"/>
        <pt x="92" y="375" on="1"/>
        <pt x="97" y="367" on="0"/>
        <pt x="145" y="368" on="0"/>
        <pt x="211" y="374" on="0"/>
        <pt x="285" y="387" on="0"/>
        <pt x="349" y="398" on="0"/>
        <pt x="370" y="402" on="1"/>
        <pt x="392" y="406" on="0"/>
        <pt x="394" y="404" on="1"/>
        <pt x="397" y="404" on="0"/>
        <pt x="414" y="405" on="0"/>
        <pt x="434" y="406" on="0"/>
        <pt x="450" y="407" on="0"/>
        <pt x="453" y="407" on="1"/>
        <pt x="453" y="383" on="0"/>
        <pt x="400" y="353" on="0"/>
        <pt x="320" y="337" on="0"/>
        <pt x="227" y="328" on="0"/>
        <pt x="146" y="322" on="0"/>
        <pt x="118" y="318" on="1"/>
        <pt x="89" y="316" on="0"/>
        <pt x="87" y="308" on="1"/>
        <pt x="81" y="292" on="0"/>
        <pt x="76" y="252" on="0"/>
        <pt x="75" y="211" on="0"/>
        <pt x="76" y="170" on="0"/>
        <pt x="76" y="154" on="1"/>
        <pt x="76" y="140" on="1"/>
        <pt x="76" y="131" on="0"/>
        <pt x="76" y="109" on="0"/>
        <pt x="76" y="99" on="1"/>
        <pt x="76" y="87" on="1"/>
        <pt x="80" y="77" on="0"/>
        <pt x="108" y="67" on="0"/>
        <pt x="140" y="64" on="0"/>
        <pt x="154" y="65" on="1"/>
        <pt x="170" y="66" on="0"/>
        <pt x="176" y="66" on="1"/>
        <pt x="210" y="66" on="0"/>
        <pt x="278" y="73" on="0"/>
        <pt x="345" y="80" on="0"/>
        <pt x="412" y="87" on="0"/>
        <pt x="446" y="87" on="1"/>
        <pt x="452" y="87" on="1"/>
        <pt x="454" y="86" on="0"/>
        <pt x="462" y="84" on="0"/>
        <pt x="471" y="80" on="0"/>
        <pt x="474" y="78" on="1"/>
        <pt x="478" y="76" on="0"/>
        <pt x="480" y="76" on="1"/>
        <pt x="482" y="75" on="0"/>
        <pt x="486" y="72" on="1"/>
        <pt x="490" y="70" on="0"/>
        <pt x="490" y="68" on="1"/>
        <pt x="490" y="49" on="0"/>
        <pt x="448" y="24" on="0"/>
        <pt x="416" y="16" on="1"/>
        <pt x="412" y="16" on="1"/>
        <pt x="412" y="15" on="1"/>
        <pt x="351" y="-7" on="0"/>
        <pt x="310" y="-55" on="0"/>
        <pt x="332" y="-93" on="0"/>
        <pt x="410" y="-115" on="0"/>
        <pt x="470" y="-111" on="1"/>
      </contour>
    </TTGlyph>
    <TTGlyph name="Eth" xMin="20" yMin="-11" xMax="730" yMax="644">
      <contour>
        <pt x="463" y="375" on="1"/>
        <pt x="477" y="375" on="0"/>
        <pt x="510" y="374" on="0"/>
        <pt x="538" y="364" on="0"/>
        <pt x="556" y="344" on="0"/>
        <pt x="556" y="326" on="1"/>
        <pt x="556" y="306" on="0"/>
        <pt x="537" y="306" on="1"/>
        <pt x="515" y="306" on="0"/>
        <pt x="478" y="317" on="0"/>
        <pt x="454" y="317" on="1"/>
        <pt x="437" y="317" on="0"/>
        <pt x="404" y="314" on="0"/>
        <pt x="386" y="312" on="1"/>
        <pt x="390" y="286" on="0"/>
        <pt x="398" y="254" on="0"/>
        <pt x="404" y="230" on="0"/>
        <pt x="408" y="212" on="0"/>
        <pt x="409" y="190" on="0"/>
        <pt x="407" y="160" on="0"/>
        <pt x="404" y="136" on="1"/>
        <pt x="404" y="130" on="0"/>
        <pt x="404" y="117" on="0"/>
        <pt x="399" y="104" on="0"/>
        <pt x="388" y="96" on="0"/>
        <pt x="380" y="96" on="1"/>
        <pt x="360" y="86" on="0"/>
        <pt x="347" y="110" on="0"/>
        <pt x="346" y="167" on="0"/>
        <pt x="346" y="254" on="0"/>
        <pt x="338" y="305" on="1"/>
        <pt x="310" y="301" on="0"/>
        <pt x="254" y="294" on="0"/>
        <pt x="225" y="294" on="1"/>
        <pt x="225" y="314" on="0"/>
        <pt x="242" y="341" on="0"/>
        <pt x="268" y="358" on="0"/>
        <pt x="286" y="362" on="1"/>
        <pt x="306" y="367" on="0"/>
        <pt x="326" y="369" on="1"/>
        <pt x="324" y="378" on="0"/>
        <pt x="318" y="416" on="0"/>
        <pt x="310" y="460" on="0"/>
        <pt x="302" y="509" on="0"/>
        <pt x="292" y="551" on="0"/>
        <pt x="283" y="581" on="0"/>
        <pt x="279" y="586" on="1"/>
        <pt x="207" y="586" on="0"/>
        <pt x="121" y="577" on="0"/>
        <pt x="70" y="565" on="0"/>
        <pt x="47" y="552" on="0"/>
        <pt x="38" y="548" on="1"/>
        <pt x="36" y="547" on="1"/>
        <pt x="34" y="546" on="0"/>
        <pt x="33" y="546" on="1"/>
        <pt x="31" y="546" on="0"/>
        <pt x="31" y="547" on="1"/>
        <pt x="30" y="548" on="0"/>
        <pt x="29" y="548" on="1"/>
        <pt x="28" y="549" on="0"/>
        <pt x="27" y="551" on="1"/>
        <pt x="25" y="560" on="1"/>
        <pt x="23" y="564" on="0"/>
        <pt x="20" y="574" on="0"/>
        <pt x="20" y="576" on="1"/>
        <pt x="20" y="580" on="1"/>
        <pt x="20" y="594" on="0"/>
        <pt x="49" y="614" on="0"/>
        <pt x="92" y="628" on="0"/>
        <pt x="144" y="637" on="0"/>
        <pt x="189" y="641" on="0"/>
        <pt x="220" y="644" on="0"/>
        <pt x="221" y="644" on="1"/>
        <pt x="272" y="644" on="0"/>
        <pt x="388" y="621" on="0"/>
        <pt x="501" y="577" on="0"/>
        <pt x="604" y="512" on="0"/>
        <pt x="683" y="428" on="0"/>
        <pt x="730" y="324" on="0"/>
        <pt x="730" y="264" on="1"/>
        <pt x="730" y="209" on="0"/>
        <pt x="696" y="121" on="0"/>
        <pt x="636" y="55" on="0"/>
        <pt x="556" y="10" on="0"/>
        <pt x="466" y="-11" on="0"/>
        <pt x="371" y="-11" on="0"/>
        <pt x="326" y="0" on="1"/>
        <pt x="317" y="3" on="0"/>
        <pt x="291" y="14" on="0"/>
        <pt x="266" y="28" on="0"/>
        <pt x="258" y="38" on="1"/>
        <pt x="249" y="50" on="0"/>
        <pt x="249" y="62" on="1"/>
        <pt x="249" y="70" on="0"/>
        <pt x="254" y="87" on="0"/>
        <pt x="264" y="87" on="1"/>
        <pt x="269" y="87" on="0"/>
        <pt x="310" y="76" on="0"/>
        <pt x="358" y="62" on="0"/>
        <pt x="404" y="50" on="0"/>
        <pt x="413" y="49" on="1"/>
        <pt x="418" y="49" on="1"/>
        <pt x="462" y="49" on="0"/>
        <pt x="552" y="82" on="0"/>
        <pt x="626" y="142" on="0"/>
        <pt x="673" y="221" on="0"/>
        <pt x="673" y="267" on="1"/>
        <pt x="673" y="303" on="0"/>
        <pt x="645" y="372" on="0"/>
        <pt x="598" y="436" on="0"/>
        <pt x="535" y="490" on="0"/>
        <pt x="465" y="533" on="0"/>
        <pt x="393" y="563" on="0"/>
        <pt x="360" y="569" on="1"/>
        <pt x="360" y="561" on="0"/>
        <pt x="362" y="530" on="0"/>
        <pt x="366" y="490" on="0"/>
        <pt x="370" y="448" on="0"/>
        <pt x="374" y="409" on="0"/>
        <pt x="376" y="394" on="1"/>
        <pt x="378" y="371" on="1"/>
        <pt x="395" y="371" on="0"/>
        <pt x="427" y="373" on="0"/>
        <pt x="440" y="374" on="1"/>
        <pt x="441" y="374" on="0"/>
        <pt x="459" y="375" on="0"/>
      </contour>
    </TTGlyph>
    <TTGlyph name="Euro" xMin="-1" yMin="-1" xMax="732" yMax="712">
      <contour>
        <pt x="164" y="260" on="1"/>
        <pt x="126" y="260" on="0"/>
        <pt x="50" y="247" on="0"/>
        <pt x="10" y="247" on="1"/>
        <pt x="10" y="288" on="1"/>
        <pt x="10" y="288" on="0"/>
        <pt x="16" y="290" on="1"/>
        <pt x="21" y="291" on="0"/>
        <pt x="36" y="294" on="0"/>
        <pt x="52" y="297" on="0"/>
        <pt x="58" y="298" on="1"/>
        <pt x="68" y="298" on="1"/>
        <pt x="78" y="299" on="0"/>
        <pt x="109" y="302" on="0"/>
        <pt x="139" y="304" on="0"/>
        <pt x="162" y="308" on="0"/>
        <pt x="164" y="308" on="1"/>
        <pt x="170" y="309" on="0"/>
        <pt x="191" y="316" on="0"/>
        <pt x="193" y="317" on="1"/>
        <pt x="241" y="452" on="1"/>
        <pt x="242" y="454" on="0"/>
        <pt x="226" y="460" on="0"/>
        <pt x="221" y="460" on="1"/>
        <pt x="217" y="460" on="1"/>
        <pt x="213" y="460" on="0"/>
        <pt x="202" y="461" on="0"/>
        <pt x="190" y="461" on="0"/>
        <pt x="188" y="461" on="1"/>
        <pt x="164" y="461" on="0"/>
        <pt x="117" y="454" on="0"/>
        <pt x="70" y="447" on="0"/>
        <pt x="23" y="440" on="0"/>
        <pt x="-1" y="440" on="1"/>
        <pt x="-1" y="470" on="0"/>
        <pt x="34" y="502" on="0"/>
        <pt x="92" y="515" on="0"/>
        <pt x="161" y="517" on="0"/>
        <pt x="230" y="518" on="0"/>
        <pt x="290" y="525" on="0"/>
        <pt x="308" y="538" on="1"/>
        <pt x="342" y="561" on="0"/>
        <pt x="406" y="621" on="0"/>
        <pt x="476" y="675" on="0"/>
        <pt x="552" y="712" on="0"/>
        <pt x="598" y="712" on="1"/>
        <pt x="624" y="712" on="0"/>
        <pt x="664" y="684" on="0"/>
        <pt x="664" y="655" on="1"/>
        <pt x="664" y="645" on="0"/>
        <pt x="662" y="623" on="0"/>
        <pt x="653" y="614" on="1"/>
        <pt x="646" y="620" on="0"/>
        <pt x="636" y="637" on="0"/>
        <pt x="625" y="652" on="0"/>
        <pt x="618" y="658" on="1"/>
        <pt x="612" y="664" on="0"/>
        <pt x="602" y="664" on="1"/>
        <pt x="600" y="664" on="0"/>
        <pt x="571" y="654" on="0"/>
        <pt x="529" y="638" on="0"/>
        <pt x="481" y="618" on="0"/>
        <pt x="440" y="597" on="0"/>
        <pt x="413" y="575" on="0"/>
        <pt x="413" y="567" on="1"/>
        <pt x="413" y="556" on="1"/>
        <pt x="426" y="554" on="0"/>
        <pt x="477" y="545" on="0"/>
        <pt x="529" y="529" on="0"/>
        <pt x="568" y="506" on="0"/>
        <pt x="568" y="490" on="1"/>
        <pt x="568" y="480" on="0"/>
        <pt x="553" y="471" on="0"/>
        <pt x="543" y="471" on="1"/>
        <pt x="538" y="471" on="1"/>
        <pt x="536" y="471" on="0"/>
        <pt x="526" y="474" on="0"/>
        <pt x="513" y="477" on="0"/>
        <pt x="502" y="480" on="0"/>
        <pt x="500" y="480" on="1"/>
        <pt x="494" y="480" on="1"/>
        <pt x="490" y="480" on="1"/>
        <pt x="488" y="480" on="0"/>
        <pt x="480" y="477" on="0"/>
        <pt x="470" y="474" on="0"/>
        <pt x="462" y="471" on="0"/>
        <pt x="461" y="471" on="1"/>
        <pt x="456" y="471" on="1"/>
        <pt x="446" y="471" on="0"/>
        <pt x="430" y="474" on="0"/>
        <pt x="415" y="478" on="0"/>
        <pt x="397" y="481" on="0"/>
        <pt x="385" y="481" on="1"/>
        <pt x="359" y="481" on="0"/>
        <pt x="313" y="462" on="0"/>
        <pt x="279" y="428" on="0"/>
        <pt x="259" y="382" on="0"/>
        <pt x="259" y="354" on="1"/>
        <pt x="259" y="343" on="0"/>
        <pt x="272" y="334" on="0"/>
        <pt x="283" y="334" on="1"/>
        <pt x="308" y="334" on="0"/>
        <pt x="356" y="341" on="0"/>
        <pt x="406" y="350" on="0"/>
        <pt x="455" y="356" on="0"/>
        <pt x="481" y="356" on="1"/>
        <pt x="491" y="356" on="0"/>
        <pt x="512" y="357" on="0"/>
        <pt x="532" y="355" on="0"/>
        <pt x="550" y="346" on="0"/>
        <pt x="557" y="337" on="1"/>
        <pt x="549" y="323" on="0"/>
        <pt x="527" y="310" on="0"/>
        <pt x="502" y="308" on="0"/>
        <pt x="488" y="308" on="1"/>
        <pt x="475" y="310" on="0"/>
        <pt x="461" y="308" on="1"/>
        <pt x="453" y="306" on="0"/>
        <pt x="422" y="302" on="0"/>
        <pt x="382" y="296" on="0"/>
        <pt x="338" y="290" on="0"/>
        <pt x="298" y="284" on="0"/>
        <pt x="282" y="282" on="1"/>
        <pt x="268" y="280" on="0"/>
        <pt x="260" y="279" on="1"/>
        <pt x="243" y="277" on="0"/>
        <pt x="231" y="251" on="0"/>
        <pt x="231" y="236" on="1"/>
        <pt x="231" y="198" on="0"/>
        <pt x="245" y="133" on="0"/>
        <pt x="279" y="85" on="0"/>
        <pt x="334" y="57" on="0"/>
        <pt x="375" y="57" on="1"/>
        <pt x="415" y="57" on="0"/>
        <pt x="498" y="72" on="0"/>
        <pt x="580" y="91" on="0"/>
        <pt x="662" y="106" on="0"/>
        <pt x="701" y="106" on="1"/>
        <pt x="721" y="106" on="0"/>
        <pt x="732" y="96" on="0"/>
        <pt x="732" y="83" on="1"/>
        <pt x="732" y="72" on="0"/>
        <pt x="690" y="50" on="0"/>
        <pt x="624" y="32" on="0"/>
        <pt x="543" y="16" on="0"/>
        <pt x="466" y="5" on="0"/>
        <pt x="401" y="-1" on="0"/>
        <pt x="385" y="-1" on="1"/>
        <pt x="326" y="-1" on="0"/>
        <pt x="253" y="38" on="0"/>
        <pt x="211" y="96" on="0"/>
        <pt x="193" y="163" on="0"/>
        <pt x="184" y="221" on="0"/>
        <pt x="175" y="260" on="0"/>
      </contour>
    </TTGlyph>
    <TTGlyph name="F" xMin="-35" yMin="12" xMax="629" yMax="614">
      <contour>
        <pt x="194" y="19" on="1"/>
        <pt x="188" y="46" on="0"/>
        <pt x="182" y="82" on="0"/>
        <pt x="179" y="111" on="0"/>
        <pt x="179" y="135" on="0"/>
        <pt x="178" y="163" on="0"/>
        <pt x="174" y="200" on="0"/>
        <pt x="170" y="227" on="1"/>
        <pt x="167" y="247" on="0"/>
        <pt x="145" y="262" on="0"/>
        <pt x="116" y="263" on="0"/>
        <pt x="85" y="258" on="0"/>
        <pt x="58" y="258" on="0"/>
        <pt x="50" y="264" on="1"/>
        <pt x="41" y="272" on="0"/>
        <pt x="41" y="290" on="1"/>
        <pt x="41" y="292" on="0"/>
        <pt x="50" y="299" on="0"/>
        <pt x="52" y="299" on="1"/>
        <pt x="70" y="301" on="0"/>
        <pt x="104" y="302" on="0"/>
        <pt x="131" y="312" on="0"/>
        <pt x="140" y="324" on="1"/>
        <pt x="148" y="338" on="0"/>
        <pt x="148" y="362" on="1"/>
        <pt x="140" y="411" on="0"/>
        <pt x="142" y="482" on="0"/>
        <pt x="135" y="528" on="0"/>
        <pt x="121" y="536" on="1"/>
        <pt x="106" y="545" on="0"/>
        <pt x="70" y="540" on="1"/>
        <pt x="66" y="540" on="0"/>
        <pt x="47" y="540" on="0"/>
        <pt x="26" y="539" on="0"/>
        <pt x="7" y="539" on="0"/>
        <pt x="3" y="539" on="1"/>
        <pt x="1" y="537" on="0"/>
        <pt x="-14" y="531" on="0"/>
        <pt x="-16" y="530" on="1"/>
        <pt x="-18" y="530" on="0"/>
        <pt x="-19" y="530" on="1"/>
        <pt x="-21" y="529" on="0"/>
        <pt x="-22" y="529" on="1"/>
        <pt x="-24" y="530" on="1"/>
        <pt x="-26" y="530" on="1"/>
        <pt x="-28" y="532" on="0"/>
        <pt x="-34" y="546" on="0"/>
        <pt x="-35" y="549" on="1"/>
        <pt x="-35" y="554" on="1"/>
        <pt x="-21" y="568" on="0"/>
        <pt x="49" y="590" on="0"/>
        <pt x="145" y="606" on="0"/>
        <pt x="259" y="614" on="0"/>
        <pt x="374" y="613" on="0"/>
        <pt x="484" y="598" on="0"/>
        <pt x="570" y="571" on="0"/>
        <pt x="598" y="549" on="1"/>
        <pt x="626" y="526" on="0"/>
        <pt x="629" y="496" on="1"/>
        <pt x="597" y="496" on="0"/>
        <pt x="536" y="512" on="0"/>
        <pt x="474" y="532" on="0"/>
        <pt x="411" y="548" on="0"/>
        <pt x="377" y="548" on="1"/>
        <pt x="369" y="548" on="0"/>
        <pt x="338" y="549" on="0"/>
        <pt x="298" y="550" on="0"/>
        <pt x="256" y="547" on="0"/>
        <pt x="220" y="538" on="0"/>
        <pt x="198" y="521" on="0"/>
        <pt x="198" y="507" on="1"/>
        <pt x="198" y="492" on="0"/>
        <pt x="194" y="440" on="0"/>
        <pt x="196" y="385" on="0"/>
        <pt x="208" y="337" on="0"/>
        <pt x="224" y="326" on="1"/>
        <pt x="226" y="326" on="0"/>
        <pt x="236" y="326" on="0"/>
        <pt x="248" y="326" on="0"/>
        <pt x="260" y="326" on="0"/>
        <pt x="262" y="326" on="1"/>
        <pt x="337" y="332" on="0"/>
        <pt x="430" y="326" on="0"/>
        <pt x="470" y="308" on="0"/>
        <pt x="459" y="285" on="0"/>
        <pt x="402" y="265" on="0"/>
        <pt x="300" y="252" on="0"/>
        <pt x="229" y="254" on="1"/>
        <pt x="231" y="209" on="0"/>
        <pt x="235" y="158" on="0"/>
        <pt x="240" y="129" on="0"/>
        <pt x="244" y="112" on="0"/>
        <pt x="250" y="89" on="0"/>
        <pt x="254" y="50" on="0"/>
        <pt x="256" y="12" on="1"/>
        <pt x="242" y="14" on="0"/>
        <pt x="218" y="15" on="0"/>
        <pt x="201" y="15" on="0"/>
        <pt x="192" y="17" on="0"/>
      </contour>
    </TTGlyph>
    <TTGlyph name="G" xMin="33" yMin="-70" xMax="572" yMax="536">
      <contour>
        <pt x="476" y="45" on="1"/>
        <pt x="473" y="45" on="0"/>
        <pt x="454" y="46" on="0"/>
        <pt x="452" y="46" on="1"/>
        <pt x="424" y="46" on="0"/>
        <pt x="365" y="33" on="0"/>
        <pt x="307" y="19" on="0"/>
        <pt x="248" y="6" on="0"/>
        <pt x="217" y="6" on="1"/>
        <pt x="175" y="6" on="0"/>
        <pt x="107" y="35" on="0"/>
        <pt x="59" y="87" on="0"/>
        <pt x="33" y="158" on="0"/>
        <pt x="33" y="200" on="1"/>
        <pt x="33" y="244" on="0"/>
        <pt x="71" y="326" on="0"/>
        <pt x="135" y="399" on="0"/>
        <pt x="218" y="460" on="0"/>
        <pt x="308" y="505" on="0"/>
        <pt x="398" y="532" on="0"/>
        <pt x="437" y="536" on="1"/>
        <pt x="457" y="538" on="0"/>
        <pt x="494" y="527" on="0"/>
        <pt x="520" y="507" on="0"/>
        <pt x="536" y="476" on="0"/>
        <pt x="536" y="456" on="1"/>
        <pt x="522" y="456" on="0"/>
        <pt x="496" y="463" on="0"/>
        <pt x="470" y="472" on="0"/>
        <pt x="442" y="478" on="0"/>
        <pt x="428" y="478" on="1"/>
        <pt x="392" y="478" on="0"/>
        <pt x="312" y="457" on="0"/>
        <pt x="235" y="417" on="0"/>
        <pt x="166" y="362" on="0"/>
        <pt x="113" y="296" on="0"/>
        <pt x="82" y="220" on="0"/>
        <pt x="82" y="180" on="1"/>
        <pt x="82" y="152" on="0"/>
        <pt x="110" y="108" on="0"/>
        <pt x="152" y="79" on="0"/>
        <pt x="202" y="64" on="0"/>
        <pt x="226" y="64" on="1"/>
        <pt x="270" y="64" on="0"/>
        <pt x="363" y="69" on="0"/>
        <pt x="439" y="94" on="0"/>
        <pt x="487" y="148" on="0"/>
        <pt x="487" y="197" on="1"/>
        <pt x="487" y="203" on="0"/>
        <pt x="485" y="216" on="1"/>
        <pt x="484" y="229" on="0"/>
        <pt x="476" y="237" on="1"/>
        <pt x="293" y="237" on="1"/>
        <pt x="285" y="237" on="0"/>
        <pt x="272" y="245" on="0"/>
        <pt x="260" y="258" on="0"/>
        <pt x="254" y="273" on="0"/>
        <pt x="254" y="280" on="1"/>
        <pt x="254" y="288" on="0"/>
        <pt x="258" y="305" on="0"/>
        <pt x="278" y="305" on="0"/>
        <pt x="298" y="298" on="0"/>
        <pt x="318" y="291" on="0"/>
        <pt x="338" y="284" on="0"/>
        <pt x="349" y="284" on="1"/>
        <pt x="384" y="284" on="0"/>
        <pt x="452" y="296" on="0"/>
        <pt x="488" y="296" on="1"/>
        <pt x="496" y="296" on="0"/>
        <pt x="514" y="287" on="0"/>
        <pt x="528" y="274" on="0"/>
        <pt x="538" y="256" on="0"/>
        <pt x="538" y="248" on="1"/>
        <pt x="538" y="-2" on="1"/>
        <pt x="540" y="-4" on="0"/>
        <pt x="550" y="-12" on="0"/>
        <pt x="560" y="-21" on="0"/>
        <pt x="570" y="-30" on="0"/>
        <pt x="572" y="-32" on="1"/>
        <pt x="574" y="-39" on="0"/>
        <pt x="567" y="-52" on="0"/>
        <pt x="555" y="-63" on="0"/>
        <pt x="540" y="-70" on="0"/>
        <pt x="534" y="-70" on="1"/>
        <pt x="513" y="-70" on="0"/>
        <pt x="490" y="-44" on="0"/>
        <pt x="478" y="-8" on="0"/>
        <pt x="476" y="31" on="0"/>
      </contour>
    </TTGlyph>
    <TTGlyph name="Gbreve" xMin="33" yMin="-70" xMax="572" yMax="667">
      <component glyphName="G" x="0" y="0" flags="0x1204"/>
      <component glyphName="breve" x="176" y="154" flags="0x1004"/>
    </TTGlyph>
    <TTGlyph name="Gcircumflex" xMin="33" yMin="-70" xMax="572" yMax="811">
      <component glyphName="G" x="0" y="0" flags="0x1204"/>
      <component glyphName="circumflex" x="187" y="62" flags="0x1004"/>
    </TTGlyph>
    <TTGlyph name="Gcommaaccent" xMin="33" yMin="-325" xMax="572" yMax="536">
      <component glyphName="G" x="0" y="0" flags="0x1204"/>
      <component glyphName="commaaccent" x="132" y="0" flags="0x1004"/>
    </TTGlyph>
    <TTGlyph name="Gdotaccent" xMin="33" yMin="-70" xMax="572" yMax="651">
      <component glyphName="G" x="0" y="0" flags="0x1204"/>
      <component glyphName="dotaccent" x="274" y="89" flags="0x1004"/>
    </TTGlyph>
    <TTGlyph name="H" xMin="16" yMin="0" xMax="509" yMax="692">
      <contour>
        <pt x="364" y="337" on="1"/>
        <pt x="355" y="333" on="0"/>
        <pt x="320" y="316" on="0"/>
        <pt x="274" y="295" on="0"/>
        <pt x="224" y="272" on="0"/>
        <pt x="179" y="250" on="0"/>
        <pt x="142" y="234" on="0"/>
        <pt x="134" y="230" on="1"/>
        <pt x="136" y="30" on="1"/>
        <pt x="136" y="27" on="0"/>
        <pt x="122" y="12" on="0"/>
        <pt x="118" y="10" on="1"/>
        <pt x="102" y="6" on="0"/>
        <pt x="89" y="39" on="0"/>
        <pt x="84" y="92" on="0"/>
        <pt x="81" y="152" on="0"/>
        <pt x="70" y="202" on="0"/>
        <pt x="44" y="229" on="0"/>
        <pt x="20" y="221" on="1"/>
        <pt x="19" y="223" on="0"/>
        <pt x="16" y="233" on="0"/>
        <pt x="16" y="235" on="1"/>
        <pt x="16" y="248" on="0"/>
        <pt x="29" y="256" on="0"/>
        <pt x="45" y="263" on="0"/>
        <pt x="58" y="274" on="0"/>
        <pt x="58" y="289" on="1"/>
        <pt x="58" y="329" on="0"/>
        <pt x="52" y="407" on="0"/>
        <pt x="44" y="487" on="0"/>
        <pt x="38" y="566" on="0"/>
        <pt x="38" y="605" on="1"/>
        <pt x="38" y="608" on="0"/>
        <pt x="38" y="622" on="0"/>
        <pt x="38" y="637" on="0"/>
        <pt x="38" y="650" on="0"/>
        <pt x="38" y="652" on="1"/>
        <pt x="41" y="660" on="0"/>
        <pt x="52" y="664" on="0"/>
        <pt x="58" y="664" on="1"/>
        <pt x="63" y="664" on="0"/>
        <pt x="70" y="662" on="1"/>
        <pt x="76" y="660" on="0"/>
        <pt x="76" y="652" on="1"/>
        <pt x="116" y="317" on="1"/>
        <pt x="116" y="315" on="0"/>
        <pt x="123" y="299" on="0"/>
        <pt x="125" y="298" on="1"/>
        <pt x="129" y="298" on="1"/>
        <pt x="134" y="298" on="1"/>
        <pt x="138" y="299" on="0"/>
        <pt x="162" y="305" on="0"/>
        <pt x="222" y="330" on="0"/>
        <pt x="328" y="381" on="0"/>
        <pt x="418" y="425" on="1"/>
        <pt x="422" y="652" on="1"/>
        <pt x="422" y="658" on="0"/>
        <pt x="430" y="673" on="0"/>
        <pt x="442" y="685" on="0"/>
        <pt x="454" y="692" on="0"/>
        <pt x="460" y="692" on="1"/>
        <pt x="469" y="692" on="0"/>
        <pt x="480" y="686" on="0"/>
        <pt x="480" y="672" on="1"/>
        <pt x="480" y="669" on="0"/>
        <pt x="472" y="654" on="0"/>
        <pt x="471" y="652" on="1"/>
        <pt x="471" y="648" on="0"/>
        <pt x="470" y="628" on="0"/>
        <pt x="470" y="605" on="0"/>
        <pt x="470" y="584" on="0"/>
        <pt x="470" y="580" on="1"/>
        <pt x="470" y="495" on="0"/>
        <pt x="474" y="325" on="0"/>
        <pt x="480" y="241" on="1"/>
        <pt x="481" y="231" on="0"/>
        <pt x="486" y="180" on="0"/>
        <pt x="492" y="122" on="0"/>
        <pt x="498" y="69" on="0"/>
        <pt x="500" y="58" on="1"/>
        <pt x="500" y="56" on="0"/>
        <pt x="502" y="48" on="0"/>
        <pt x="506" y="38" on="0"/>
        <pt x="508" y="30" on="0"/>
        <pt x="509" y="29" on="1"/>
        <pt x="509" y="23" on="1"/>
        <pt x="509" y="20" on="1"/>
        <pt x="507" y="18" on="0"/>
        <pt x="499" y="11" on="0"/>
        <pt x="490" y="5" on="0"/>
        <pt x="482" y="0" on="0"/>
        <pt x="480" y="0" on="1"/>
        <pt x="466" y="-3" on="0"/>
        <pt x="448" y="27" on="0"/>
        <pt x="438" y="68" on="0"/>
        <pt x="436" y="88" on="1"/>
        <pt x="434" y="108" on="0"/>
        <pt x="433" y="116" on="1"/>
        <pt x="433" y="117" on="0"/>
        <pt x="432" y="145" on="0"/>
        <pt x="430" y="188" on="0"/>
        <pt x="427" y="242" on="0"/>
        <pt x="423" y="296" on="0"/>
        <pt x="418" y="344" on="0"/>
        <pt x="416" y="360" on="1"/>
      </contour>
    </TTGlyph>
    <TTGlyph name="Hcircumflex" xMin="16" yMin="0" xMax="509" yMax="976">
      <component glyphName="H" x="0" y="0" flags="0x1204"/>
      <component glyphName="circumflex" x="76" y="227" flags="0x1004"/>
    </TTGlyph>
    <TTGlyph name="I" xMin="15" yMin="0" xMax="154" yMax="566">
      <contour>
        <pt x="96" y="38" on="1"/>
        <pt x="91" y="75" on="0"/>
        <pt x="82" y="156" on="0"/>
        <pt x="74" y="238" on="0"/>
        <pt x="69" y="278" on="1"/>
        <pt x="64" y="320" on="0"/>
        <pt x="58" y="356" on="1"/>
        <pt x="55" y="371" on="0"/>
        <pt x="40" y="421" on="0"/>
        <pt x="26" y="478" on="0"/>
        <pt x="15" y="536" on="0"/>
        <pt x="15" y="560" on="1"/>
        <pt x="27" y="576" on="0"/>
        <pt x="51" y="556" on="0"/>
        <pt x="75" y="501" on="0"/>
        <pt x="98" y="416" on="0"/>
        <pt x="117" y="320" on="0"/>
        <pt x="134" y="218" on="0"/>
        <pt x="146" y="128" on="0"/>
        <pt x="154" y="58" on="0"/>
        <pt x="154" y="40" on="1"/>
        <pt x="154" y="34" on="0"/>
        <pt x="154" y="22" on="0"/>
        <pt x="152" y="11" on="0"/>
        <pt x="143" y="2" on="0"/>
        <pt x="134" y="0" on="1"/>
        <pt x="128" y="-2" on="0"/>
        <pt x="116" y="9" on="0"/>
        <pt x="104" y="23" on="0"/>
        <pt x="97" y="36" on="0"/>
      </contour>
    </TTGlyph>
    <TTGlyph name="Iacute" xMin="-26" yMin="0" xMax="154" yMax="757">
      <component glyphName="I" x="0" y="0" flags="0x1204"/>
      <component glyphName="acute" x="-34" y="195" flags="0x1004"/>
    </TTGlyph>
    <TTGlyph name="Ibreve" xMin="3" yMin="0" xMax="191" yMax="783">
      <component glyphName="I" x="0" y="0" flags="0x1204"/>
      <component glyphName="breve" x="-20" y="270" flags="0x1004"/>
    </TTGlyph>
    <TTGlyph name="Icircumflex" xMin="-50" yMin="0" xMax="228" yMax="903">
      <component glyphName="I" x="0" y="0" flags="0x1204"/>
      <component glyphName="circumflex" x="-100" y="154" flags="0x1004"/>
    </TTGlyph>
    <TTGlyph name="Idieresis" xMin="-108" yMin="0" xMax="156" yMax="700">
      <component glyphName="I" x="0" y="0" flags="0x1204"/>
      <component glyphName="dieresis" x="-176" y="161" flags="0x1004"/>
    </TTGlyph>
    <TTGlyph name="Idotaccent" xMin="-9" yMin="0" xMax="154" yMax="752">
      <component glyphName="I" x="0" y="0" flags="0x1204"/>
      <component glyphName="dotaccent" x="-58" y="190" flags="0x1004"/>
    </TTGlyph>
    <TTGlyph name="Igrave" xMin="-20" yMin="0" xMax="154" yMax="782">
      <component glyphName="I" x="0" y="0" flags="0x1204"/>
      <component glyphName="grave" x="-40" y="214" flags="0x1004"/>
    </TTGlyph>
    <TTGlyph name="Iogonek" xMin="0" yMin="-145" xMax="202" yMax="566">
      <contour>
        <pt x="188" y="-145" on="1"/>
        <pt x="136" y="-146" on="0"/>
        <pt x="55" y="-138" on="0"/>
        <pt x="6" y="-110" on="0"/>
        <pt x="0" y="-84" on="1"/>
        <pt x="-4" y="-58" on="0"/>
        <pt x="14" y="-13" on="1"/>
        <pt x="22" y="1" on="0"/>
        <pt x="44" y="20" on="0"/>
        <pt x="70" y="32" on="0"/>
        <pt x="85" y="38" on="1"/>
        <pt x="90" y="40" on="0"/>
        <pt x="95" y="41" on="1"/>
        <pt x="91" y="76" on="0"/>
        <pt x="86" y="116" on="1"/>
        <pt x="82" y="156" on="0"/>
        <pt x="74" y="238" on="0"/>
        <pt x="69" y="278" on="1"/>
        <pt x="64" y="320" on="0"/>
        <pt x="58" y="356" on="1"/>
        <pt x="55" y="371" on="0"/>
        <pt x="40" y="421" on="0"/>
        <pt x="26" y="478" on="0"/>
        <pt x="15" y="536" on="0"/>
        <pt x="15" y="560" on="1"/>
        <pt x="27" y="576" on="0"/>
        <pt x="51" y="556" on="0"/>
        <pt x="75" y="501" on="0"/>
        <pt x="98" y="416" on="0"/>
        <pt x="117" y="320" on="0"/>
        <pt x="134" y="218" on="0"/>
        <pt x="146" y="128" on="0"/>
        <pt x="154" y="58" on="0"/>
        <pt x="154" y="40" on="1"/>
        <pt x="154" y="28" on="1"/>
        <pt x="154" y="22" on="0"/>
        <pt x="152" y="11" on="0"/>
        <pt x="143" y="2" on="0"/>
        <pt x="134" y="0" on="1"/>
        <pt x="128" y="-2" on="0"/>
        <pt x="122" y="4" on="1"/>
        <pt x="121" y="4" on="0"/>
        <pt x="120" y="4" on="1"/>
        <pt x="80" y="-13" on="0"/>
        <pt x="64" y="-31" on="1"/>
        <pt x="43" y="-55" on="0"/>
        <pt x="64" y="-93" on="0"/>
        <pt x="104" y="-104" on="1"/>
        <pt x="142" y="-115" on="0"/>
        <pt x="202" y="-111" on="1"/>
      </contour>
    </TTGlyph>
    <TTGlyph name="Itilde" xMin="-83" yMin="0" xMax="275" yMax="709">
      <component glyphName="I" x="0" y="0" flags="0x1204"/>
      <component glyphName="tilde" x="-106" y="154" flags="0x1004"/>
    </TTGlyph>
    <TTGlyph name="J" xMin="22" yMin="-1" xMax="432" yMax="720">
      <contour>
        <pt x="325" y="-1" on="1"/>
        <pt x="284" y="7" on="0"/>
        <pt x="213" y="52" on="0"/>
        <pt x="152" y="111" on="0"/>
        <pt x="94" y="178" on="0"/>
        <pt x="67" y="212" on="1"/>
        <pt x="59" y="222" on="0"/>
        <pt x="43" y="242" on="0"/>
        <pt x="30" y="266" on="0"/>
        <pt x="22" y="296" on="0"/>
        <pt x="22" y="315" on="1"/>
        <pt x="22" y="333" on="0"/>
        <pt x="36" y="348" on="1"/>
        <pt x="48" y="362" on="0"/>
        <pt x="70" y="363" on="1"/>
        <pt x="81" y="357" on="0"/>
        <pt x="78" y="350" on="1"/>
        <pt x="74" y="344" on="0"/>
        <pt x="70" y="334" on="1"/>
        <pt x="70" y="329" on="1"/>
        <pt x="70" y="303" on="0"/>
        <pt x="97" y="242" on="0"/>
        <pt x="140" y="182" on="0"/>
        <pt x="196" y="125" on="0"/>
        <pt x="254" y="82" on="0"/>
        <pt x="309" y="57" on="0"/>
        <pt x="331" y="57" on="1"/>
        <pt x="343" y="57" on="0"/>
        <pt x="358" y="84" on="0"/>
        <pt x="368" y="125" on="0"/>
        <pt x="374" y="174" on="0"/>
        <pt x="375" y="218" on="0"/>
        <pt x="375" y="234" on="1"/>
        <pt x="375" y="250" on="0"/>
        <pt x="375" y="256" on="1"/>
        <pt x="375" y="261" on="0"/>
        <pt x="375" y="282" on="0"/>
        <pt x="374" y="301" on="0"/>
        <pt x="374" y="316" on="0"/>
        <pt x="374" y="317" on="1"/>
        <pt x="321" y="692" on="1"/>
        <pt x="333" y="723" on="0"/>
        <pt x="356" y="717" on="0"/>
        <pt x="376" y="666" on="0"/>
        <pt x="395" y="581" on="0"/>
        <pt x="411" y="484" on="0"/>
        <pt x="423" y="385" on="0"/>
        <pt x="430" y="306" on="0"/>
        <pt x="432" y="282" on="1"/>
        <pt x="433" y="258" on="0"/>
        <pt x="431" y="260" on="1"/>
        <pt x="432" y="244" on="0"/>
        <pt x="431" y="193" on="0"/>
        <pt x="425" y="135" on="0"/>
        <pt x="412" y="76" on="0"/>
        <pt x="388" y="29" on="0"/>
        <pt x="351" y="-1" on="0"/>
      </contour>
    </TTGlyph>
    <TTGlyph name="Jcircumflex" xMin="22" yMin="-1" xMax="475" yMax="988">
      <component glyphName="J" x="0" y="0" flags="0x1204"/>
      <component glyphName="circumflex" x="147" y="239" flags="0x1004"/>
    </TTGlyph>
    <TTGlyph name="K" xMin="19" yMin="-2" xMax="455" yMax="600">
      <contour>
        <pt x="394" y="10" on="1"/>
        <pt x="378" y="23" on="0"/>
        <pt x="328" y="56" on="0"/>
        <pt x="272" y="94" on="0"/>
        <pt x="212" y="134" on="0"/>
        <pt x="158" y="174" on="0"/>
        <pt x="116" y="212" on="0"/>
        <pt x="104" y="230" on="1"/>
        <pt x="100" y="213" on="0"/>
        <pt x="103" y="164" on="0"/>
        <pt x="110" y="112" on="0"/>
        <pt x="118" y="62" on="0"/>
        <pt x="118" y="22" on="0"/>
        <pt x="108" y="-2" on="0"/>
        <pt x="94" y="-2" on="1"/>
        <pt x="80" y="-2" on="0"/>
        <pt x="62" y="38" on="0"/>
        <pt x="52" y="100" on="0"/>
        <pt x="48" y="174" on="0"/>
        <pt x="48" y="240" on="0"/>
        <pt x="49" y="290" on="0"/>
        <pt x="49" y="298" on="1"/>
        <pt x="47" y="330" on="0"/>
        <pt x="38" y="400" on="0"/>
        <pt x="27" y="472" on="0"/>
        <pt x="19" y="542" on="0"/>
        <pt x="19" y="572" on="1"/>
        <pt x="19" y="574" on="0"/>
        <pt x="22" y="583" on="0"/>
        <pt x="28" y="592" on="0"/>
        <pt x="37" y="598" on="0"/>
        <pt x="41" y="598" on="1"/>
        <pt x="50" y="598" on="0"/>
        <pt x="59" y="586" on="0"/>
        <pt x="64" y="569" on="0"/>
        <pt x="66" y="552" on="0"/>
        <pt x="68" y="548" on="1"/>
        <pt x="72" y="532" on="0"/>
        <pt x="76" y="488" on="0"/>
        <pt x="81" y="437" on="0"/>
        <pt x="86" y="385" on="0"/>
        <pt x="89" y="360" on="1"/>
        <pt x="102" y="374" on="0"/>
        <pt x="137" y="420" on="0"/>
        <pt x="179" y="474" on="0"/>
        <pt x="226" y="530" on="0"/>
        <pt x="274" y="574" on="0"/>
        <pt x="322" y="601" on="0"/>
        <pt x="346" y="600" on="1"/>
        <pt x="353" y="593" on="0"/>
        <pt x="346" y="574" on="0"/>
        <pt x="328" y="550" on="0"/>
        <pt x="302" y="524" on="0"/>
        <pt x="288" y="509" on="1"/>
        <pt x="267" y="484" on="0"/>
        <pt x="218" y="432" on="0"/>
        <pt x="170" y="380" on="0"/>
        <pt x="149" y="354" on="1"/>
        <pt x="128" y="330" on="0"/>
        <pt x="115" y="308" on="1"/>
        <pt x="143" y="269" on="0"/>
        <pt x="214" y="202" on="0"/>
        <pt x="292" y="142" on="0"/>
        <pt x="334" y="116" on="1"/>
        <pt x="376" y="89" on="0"/>
        <pt x="416" y="63" on="1"/>
        <pt x="428" y="59" on="0"/>
        <pt x="446" y="43" on="0"/>
        <pt x="455" y="24" on="0"/>
        <pt x="454" y="7" on="0"/>
        <pt x="441" y="-3" on="0"/>
        <pt x="415" y="0" on="0"/>
      </contour>
    </TTGlyph>
    <TTGlyph name="Kcommaaccent" xMin="19" yMin="-325" xMax="455" yMax="600">
      <component glyphName="K" x="0" y="0" flags="0x1204"/>
      <component glyphName="commaaccent" x="79" y="0" flags="0x1004"/>
    </TTGlyph>
    <TTGlyph name="L" xMin="19" yMin="-2" xMax="338" yMax="548">
      <contour>
        <pt x="19" y="162" on="1"/>
        <pt x="21" y="197" on="0"/>
        <pt x="26" y="286" on="0"/>
        <pt x="34" y="375" on="0"/>
        <pt x="44" y="458" on="0"/>
        <pt x="58" y="520" on="0"/>
        <pt x="66" y="537" on="1"/>
        <pt x="76" y="554" on="0"/>
        <pt x="86" y="548" on="1"/>
        <pt x="100" y="546" on="0"/>
        <pt x="108" y="506" on="0"/>
        <pt x="105" y="440" on="0"/>
        <pt x="93" y="356" on="0"/>
        <pt x="82" y="268" on="0"/>
        <pt x="74" y="181" on="0"/>
        <pt x="76" y="145" on="1"/>
        <pt x="76" y="135" on="0"/>
        <pt x="83" y="112" on="0"/>
        <pt x="95" y="92" on="0"/>
        <pt x="104" y="84" on="1"/>
        <pt x="114" y="76" on="0"/>
        <pt x="125" y="76" on="1"/>
        <pt x="326" y="58" on="1"/>
        <pt x="335" y="57" on="0"/>
        <pt x="338" y="39" on="0"/>
        <pt x="338" y="34" on="1"/>
        <pt x="338" y="16" on="0"/>
        <pt x="316" y="4" on="0"/>
        <pt x="298" y="0" on="1"/>
        <pt x="294" y="0" on="0"/>
        <pt x="273" y="-1" on="0"/>
        <pt x="250" y="-2" on="0"/>
        <pt x="230" y="-2" on="0"/>
        <pt x="226" y="-2" on="1"/>
        <pt x="180" y="-2" on="0"/>
        <pt x="103" y="12" on="0"/>
        <pt x="49" y="49" on="0"/>
        <pt x="19" y="112" on="0"/>
      </contour>
    </TTGlyph>
    <TTGlyph name="Lacute" xMin="19" yMin="-2" xMax="338" yMax="750">
      <component glyphName="L" x="0" y="0" flags="0x1204"/>
      <component glyphName="acute" x="140" y="188" flags="0x1004"/>
    </TTGlyph>
    <TTGlyph name="Lcaron" xMin="19" yMin="-2" xMax="338" yMax="731">
      <component glyphName="L" x="0" y="0" flags="0x1204"/>
      <component glyphName="quoteright" x="156" y="-17" flags="0x1004"/>
    </TTGlyph>
    <TTGlyph name="Lcommaaccent" xMin="19" yMin="-325" xMax="338" yMax="548">
      <component glyphName="L" x="0" y="0" flags="0x1204"/>
      <component glyphName="commaaccent" x="17" y="0" flags="0x1004"/>
    </TTGlyph>
    <TTGlyph name="Ldot" xMin="19" yMin="-2" xMax="338" yMax="548">
      <component glyphName="L" x="0" y="0" flags="0x1204"/>
      <component glyphName="periodcentered" x="65" y="0" flags="0x1004"/>
    </TTGlyph>
    <TTGlyph name="Lslash" xMin="12" yMin="7" xMax="383" yMax="557">
      <contour>
        <pt x="68" y="241" on="1"/>
        <pt x="70" y="277" on="0"/>
        <pt x="76" y="354" on="0"/>
        <pt x="85" y="428" on="0"/>
        <pt x="94" y="492" on="0"/>
        <pt x="107" y="538" on="0"/>
        <pt x="122" y="562" on="0"/>
        <pt x="131" y="557" on="1"/>
        <pt x="147" y="555" on="0"/>
        <pt x="154" y="506" on="0"/>
        <pt x="148" y="425" on="0"/>
        <pt x="134" y="326" on="0"/>
        <pt x="128" y="277" on="1"/>
        <pt x="178" y="308" on="1"/>
        <pt x="178" y="303" on="0"/>
        <pt x="190" y="284" on="0"/>
        <pt x="201" y="268" on="0"/>
        <pt x="208" y="255" on="0"/>
        <pt x="202" y="255" on="1"/>
        <pt x="191" y="247" on="0"/>
        <pt x="176" y="232" on="0"/>
        <pt x="160" y="218" on="0"/>
        <pt x="140" y="202" on="0"/>
        <pt x="122" y="192" on="1"/>
        <pt x="121" y="182" on="0"/>
        <pt x="122" y="162" on="0"/>
        <pt x="123" y="154" on="1"/>
        <pt x="123" y="144" on="0"/>
        <pt x="129" y="122" on="0"/>
        <pt x="142" y="101" on="0"/>
        <pt x="160" y="87" on="0"/>
        <pt x="171" y="86" on="1"/>
        <pt x="373" y="67" on="1"/>
        <pt x="381" y="66" on="0"/>
        <pt x="383" y="49" on="0"/>
        <pt x="383" y="43" on="1"/>
        <pt x="383" y="26" on="0"/>
        <pt x="362" y="13" on="0"/>
        <pt x="344" y="9" on="1"/>
        <pt x="340" y="9" on="0"/>
        <pt x="320" y="8" on="0"/>
        <pt x="296" y="8" on="0"/>
        <pt x="276" y="7" on="0"/>
        <pt x="272" y="7" on="1"/>
        <pt x="227" y="7" on="0"/>
        <pt x="151" y="20" on="0"/>
        <pt x="97" y="55" on="0"/>
        <pt x="81" y="86" on="1"/>
        <pt x="64" y="116" on="0"/>
        <pt x="64" y="164" on="1"/>
        <pt x="55" y="160" on="0"/>
        <pt x="35" y="152" on="0"/>
        <pt x="25" y="148" on="1"/>
        <pt x="12" y="206" on="1"/>
      </contour>
    </TTGlyph>
    <TTGlyph name="M" xMin="19" yMin="-2" xMax="518" yMax="626">
      <contour>
        <pt x="452" y="20" on="1"/>
        <pt x="450" y="30" on="0"/>
        <pt x="446" y="74" on="0"/>
        <pt x="440" y="128" on="0"/>
        <pt x="434" y="189" on="0"/>
        <pt x="428" y="244" on="0"/>
        <pt x="423" y="287" on="0"/>
        <pt x="422" y="298" on="1"/>
        <pt x="420" y="308" on="0"/>
        <pt x="421" y="338" on="0"/>
        <pt x="416" y="370" on="0"/>
        <pt x="405" y="398" on="0"/>
        <pt x="394" y="404" on="1"/>
        <pt x="358" y="384" on="0"/>
        <pt x="286" y="364" on="0"/>
        <pt x="246" y="364" on="1"/>
        <pt x="187" y="364" on="0"/>
        <pt x="128" y="436" on="1"/>
        <pt x="124" y="436" on="0"/>
        <pt x="121" y="424" on="0"/>
        <pt x="119" y="408" on="0"/>
        <pt x="120" y="390" on="0"/>
        <pt x="120" y="384" on="1"/>
        <pt x="119" y="50" on="1"/>
        <pt x="119" y="44" on="0"/>
        <pt x="112" y="35" on="0"/>
        <pt x="102" y="31" on="0"/>
        <pt x="91" y="28" on="0"/>
        <pt x="86" y="28" on="1"/>
        <pt x="70" y="28" on="0"/>
        <pt x="59" y="55" on="0"/>
        <pt x="57" y="68" on="1"/>
        <pt x="57" y="212" on="1"/>
        <pt x="57" y="278" on="0"/>
        <pt x="68" y="406" on="0"/>
        <pt x="68" y="472" on="1"/>
        <pt x="68" y="492" on="0"/>
        <pt x="52" y="524" on="0"/>
        <pt x="34" y="555" on="0"/>
        <pt x="19" y="586" on="0"/>
        <pt x="19" y="605" on="1"/>
        <pt x="19" y="626" on="0"/>
        <pt x="39" y="626" on="1"/>
        <pt x="64" y="626" on="0"/>
        <pt x="98" y="596" on="0"/>
        <pt x="124" y="554" on="0"/>
        <pt x="148" y="502" on="0"/>
        <pt x="181" y="460" on="0"/>
        <pt x="224" y="430" on="0"/>
        <pt x="256" y="430" on="1"/>
        <pt x="296" y="428" on="0"/>
        <pt x="349" y="457" on="0"/>
        <pt x="382" y="502" on="0"/>
        <pt x="403" y="555" on="0"/>
        <pt x="419" y="600" on="0"/>
        <pt x="428" y="614" on="1"/>
        <pt x="438" y="628" on="0"/>
        <pt x="452" y="625" on="1"/>
        <pt x="463" y="627" on="0"/>
        <pt x="474" y="613" on="0"/>
        <pt x="480" y="592" on="0"/>
        <pt x="481" y="572" on="0"/>
        <pt x="481" y="568" on="1"/>
        <pt x="481" y="530" on="0"/>
        <pt x="470" y="461" on="0"/>
        <pt x="470" y="422" on="1"/>
        <pt x="470" y="371" on="0"/>
        <pt x="484" y="271" on="0"/>
        <pt x="503" y="170" on="0"/>
        <pt x="518" y="70" on="0"/>
        <pt x="518" y="20" on="1"/>
        <pt x="518" y="12" on="0"/>
        <pt x="514" y="2" on="0"/>
        <pt x="506" y="-2" on="0"/>
        <pt x="496" y="-2" on="0"/>
        <pt x="490" y="-2" on="1"/>
        <pt x="477" y="-2" on="0"/>
        <pt x="456" y="4" on="0"/>
      </contour>
    </TTGlyph>
    <TTGlyph name="N" xMin="29" yMin="-1" xMax="597" yMax="548">
      <contour>
        <pt x="29" y="61" on="1"/>
        <pt x="29" y="108" on="0"/>
        <pt x="35" y="202" on="0"/>
        <pt x="44" y="295" on="0"/>
        <pt x="47" y="341" on="1"/>
        <pt x="50" y="388" on="0"/>
        <pt x="50" y="434" on="1"/>
        <pt x="50" y="460" on="0"/>
        <pt x="39" y="508" on="0"/>
        <pt x="39" y="533" on="1"/>
        <pt x="39" y="538" on="1"/>
        <pt x="41" y="539" on="0"/>
        <pt x="52" y="542" on="0"/>
        <pt x="64" y="544" on="0"/>
        <pt x="70" y="546" on="1"/>
        <pt x="75" y="548" on="0"/>
        <pt x="77" y="548" on="1"/>
        <pt x="87" y="548" on="1"/>
        <pt x="95" y="512" on="0"/>
        <pt x="122" y="412" on="0"/>
        <pt x="160" y="308" on="0"/>
        <pt x="212" y="205" on="0"/>
        <pt x="280" y="124" on="0"/>
        <pt x="364" y="75" on="0"/>
        <pt x="416" y="76" on="1"/>
        <pt x="447" y="76" on="0"/>
        <pt x="494" y="97" on="0"/>
        <pt x="524" y="134" on="0"/>
        <pt x="539" y="184" on="0"/>
        <pt x="539" y="214" on="1"/>
        <pt x="539" y="253" on="0"/>
        <pt x="508" y="320" on="0"/>
        <pt x="472" y="382" on="0"/>
        <pt x="441" y="444" on="0"/>
        <pt x="441" y="480" on="1"/>
        <pt x="441" y="494" on="0"/>
        <pt x="447" y="510" on="0"/>
        <pt x="461" y="510" on="1"/>
        <pt x="477" y="510" on="0"/>
        <pt x="510" y="474" on="0"/>
        <pt x="540" y="418" on="0"/>
        <pt x="566" y="349" on="0"/>
        <pt x="586" y="281" on="0"/>
        <pt x="597" y="223" on="0"/>
        <pt x="597" y="206" on="1"/>
        <pt x="597" y="163" on="0"/>
        <pt x="569" y="92" on="0"/>
        <pt x="518" y="39" on="0"/>
        <pt x="447" y="10" on="0"/>
        <pt x="404" y="10" on="1"/>
        <pt x="357" y="10" on="0"/>
        <pt x="282" y="46" on="0"/>
        <pt x="223" y="103" on="0"/>
        <pt x="178" y="167" on="0"/>
        <pt x="146" y="224" on="0"/>
        <pt x="123" y="260" on="0"/>
        <pt x="116" y="260" on="1"/>
        <pt x="103" y="260" on="0"/>
        <pt x="91" y="242" on="0"/>
        <pt x="86" y="218" on="0"/>
        <pt x="86" y="191" on="0"/>
        <pt x="86" y="184" on="1"/>
        <pt x="86" y="152" on="0"/>
        <pt x="98" y="97" on="0"/>
        <pt x="98" y="66" on="1"/>
        <pt x="98" y="59" on="0"/>
        <pt x="95" y="37" on="0"/>
        <pt x="88" y="15" on="0"/>
        <pt x="74" y="-1" on="0"/>
        <pt x="63" y="-1" on="1"/>
        <pt x="53" y="-1" on="0"/>
        <pt x="40" y="14" on="0"/>
        <pt x="32" y="33" on="0"/>
        <pt x="29" y="54" on="0"/>
      </contour>
    </TTGlyph>
    <TTGlyph name="Nacute" xMin="29" yMin="-1" xMax="597" yMax="716">
      <component glyphName="N" x="0" y="0" flags="0x1204"/>
      <component glyphName="acute" x="204" y="154" flags="0x1004"/>
    </TTGlyph>
    <TTGlyph name="Ncaron" xMin="29" yMin="-1" xMax="597" yMax="776">
      <component glyphName="N" x="0" y="0" flags="0x1204"/>
      <component glyphName="caron" x="122" y="154" flags="0x1004"/>
    </TTGlyph>
    <TTGlyph name="Ncommaaccent" xMin="29" yMin="-325" xMax="597" yMax="548">
      <component glyphName="N" x="0" y="0" flags="0x1204"/>
      <component glyphName="commaaccent" x="152" y="0" flags="0x1004"/>
    </TTGlyph>
    <TTGlyph name="Ntilde" xMin="29" yMin="-1" xMax="597" yMax="709">
      <component glyphName="N" x="0" y="0" flags="0x1204"/>
      <component glyphName="tilde" x="117" y="154" flags="0x1004"/>
    </TTGlyph>
    <TTGlyph name="O" xMin="19" yMin="-1" xMax="596" yMax="496">
      <contour>
        <pt x="19" y="279" on="1"/>
        <pt x="17" y="323" on="0"/>
        <pt x="44" y="399" on="0"/>
        <pt x="94" y="458" on="0"/>
        <pt x="130" y="476" on="1"/>
        <pt x="166" y="492" on="0"/>
        <pt x="209" y="496" on="1"/>
        <pt x="284" y="485" on="0"/>
        <pt x="421" y="431" on="0"/>
        <pt x="526" y="347" on="0"/>
        <pt x="592" y="235" on="0"/>
        <pt x="596" y="165" on="1"/>
        <pt x="586" y="113" on="0"/>
        <pt x="524" y="53" on="0"/>
        <pt x="440" y="20" on="0"/>
        <pt x="392" y="12" on="1"/>
        <pt x="344" y="5" on="0"/>
        <pt x="304" y="-1" on="1"/>
        <pt x="242" y="-1" on="0"/>
        <pt x="137" y="40" on="0"/>
        <pt x="62" y="112" on="0"/>
        <pt x="19" y="216" on="0"/>
      </contour>
      <contour>
        <pt x="66" y="284" on="1"/>
        <pt x="65" y="238" on="0"/>
        <pt x="106" y="158" on="0"/>
        <pt x="172" y="98" on="0"/>
        <pt x="254" y="58" on="0"/>
        <pt x="295" y="52" on="1"/>
        <pt x="309" y="52" on="0"/>
        <pt x="355" y="57" on="0"/>
        <pt x="409" y="68" on="0"/>
        <pt x="464" y="87" on="0"/>
        <pt x="509" y="114" on="0"/>
        <pt x="538" y="151" on="0"/>
        <pt x="538" y="175" on="1"/>
        <pt x="531" y="225" on="0"/>
        <pt x="484" y="303" on="0"/>
        <pt x="416" y="363" on="0"/>
        <pt x="336" y="405" on="0"/>
        <pt x="258" y="430" on="0"/>
        <pt x="224" y="434" on="1"/>
        <pt x="190" y="438" on="0"/>
        <pt x="168" y="434" on="1"/>
        <pt x="137" y="423" on="0"/>
        <pt x="98" y="387" on="0"/>
        <pt x="75" y="346" on="0"/>
        <pt x="66" y="304" on="0"/>
      </contour>
    </TTGlyph>
    <TTGlyph name="OE" xMin="19" yMin="1" xMax="853" yMax="500">
      <contour>
        <pt x="454" y="435" on="1"/>
        <pt x="450" y="435" on="0"/>
        <pt x="447" y="436" on="1"/>
        <pt x="452" y="428" on="0"/>
        <pt x="452" y="425" on="1"/>
        <pt x="452" y="287" on="1"/>
        <pt x="457" y="282" on="0"/>
        <pt x="506" y="281" on="0"/>
        <pt x="572" y="287" on="0"/>
        <pt x="646" y="296" on="0"/>
        <pt x="710" y="305" on="0"/>
        <pt x="754" y="310" on="0"/>
        <pt x="756" y="309" on="1"/>
        <pt x="759" y="309" on="0"/>
        <pt x="776" y="310" on="0"/>
        <pt x="795" y="311" on="0"/>
        <pt x="812" y="312" on="0"/>
        <pt x="815" y="312" on="1"/>
        <pt x="815" y="298" on="0"/>
        <pt x="784" y="278" on="0"/>
        <pt x="734" y="266" on="0"/>
        <pt x="669" y="257" on="0"/>
        <pt x="601" y="252" on="0"/>
        <pt x="535" y="249" on="0"/>
        <pt x="482" y="245" on="0"/>
        <pt x="448" y="240" on="0"/>
        <pt x="447" y="236" on="1"/>
        <pt x="442" y="223" on="0"/>
        <pt x="437" y="194" on="0"/>
        <pt x="436" y="162" on="0"/>
        <pt x="436" y="146" on="1"/>
        <pt x="436" y="130" on="0"/>
        <pt x="436" y="118" on="1"/>
        <pt x="436" y="108" on="1"/>
        <pt x="436" y="100" on="0"/>
        <pt x="437" y="84" on="0"/>
        <pt x="437" y="76" on="1"/>
        <pt x="437" y="68" on="1"/>
        <pt x="441" y="60" on="0"/>
        <pt x="468" y="52" on="0"/>
        <pt x="500" y="51" on="0"/>
        <pt x="530" y="52" on="0"/>
        <pt x="536" y="52" on="1"/>
        <pt x="604" y="52" on="0"/>
        <pt x="740" y="68" on="0"/>
        <pt x="808" y="68" on="1"/>
        <pt x="814" y="68" on="1"/>
        <pt x="818" y="67" on="0"/>
        <pt x="840" y="62" on="0"/>
        <pt x="842" y="60" on="1"/>
        <pt x="844" y="59" on="0"/>
        <pt x="853" y="55" on="0"/>
        <pt x="853" y="53" on="1"/>
        <pt x="853" y="39" on="0"/>
        <pt x="811" y="20" on="0"/>
        <pt x="746" y="8" on="0"/>
        <pt x="669" y="2" on="0"/>
        <pt x="600" y="1" on="0"/>
        <pt x="574" y="1" on="1"/>
        <pt x="542" y="1" on="1"/>
        <pt x="489" y="1" on="0"/>
        <pt x="416" y="19" on="0"/>
        <pt x="397" y="43" on="1"/>
        <pt x="387" y="26" on="0"/>
        <pt x="344" y="8" on="0"/>
        <pt x="304" y="2" on="1"/>
        <pt x="242" y="2" on="0"/>
        <pt x="137" y="43" on="0"/>
        <pt x="62" y="116" on="0"/>
        <pt x="19" y="219" on="0"/>
        <pt x="19" y="282" on="1"/>
        <pt x="17" y="326" on="0"/>
        <pt x="44" y="402" on="0"/>
        <pt x="94" y="460" on="0"/>
        <pt x="166" y="496" on="0"/>
        <pt x="209" y="500" on="1"/>
        <pt x="247" y="494" on="0"/>
        <pt x="307" y="474" on="0"/>
        <pt x="351" y="447" on="0"/>
        <pt x="382" y="412" on="0"/>
        <pt x="393" y="392" on="1"/>
        <pt x="393" y="454" on="1"/>
        <pt x="393" y="466" on="0"/>
        <pt x="400" y="479" on="0"/>
        <pt x="427" y="484" on="0"/>
        <pt x="477" y="483" on="0"/>
        <pt x="562" y="481" on="0"/>
        <pt x="688" y="478" on="0"/>
        <pt x="778" y="479" on="1"/>
        <pt x="788" y="476" on="0"/>
        <pt x="808" y="469" on="0"/>
        <pt x="825" y="459" on="0"/>
        <pt x="836" y="445" on="0"/>
        <pt x="836" y="435" on="1"/>
        <pt x="836" y="433" on="0"/>
        <pt x="832" y="430" on="1"/>
        <pt x="828" y="428" on="0"/>
        <pt x="826" y="428" on="1"/>
        <pt x="778" y="442" on="1"/>
      </contour>
      <contour>
        <pt x="66" y="286" on="1"/>
        <pt x="65" y="240" on="0"/>
        <pt x="106" y="161" on="0"/>
        <pt x="172" y="100" on="0"/>
        <pt x="254" y="62" on="0"/>
        <pt x="295" y="56" on="1"/>
        <pt x="315" y="56" on="0"/>
        <pt x="348" y="79" on="0"/>
        <pt x="371" y="120" on="0"/>
        <pt x="384" y="179" on="0"/>
        <pt x="384" y="215" on="1"/>
        <pt x="374" y="289" on="0"/>
        <pt x="329" y="381" on="0"/>
        <pt x="269" y="430" on="0"/>
        <pt x="201" y="442" on="0"/>
        <pt x="168" y="436" on="1"/>
        <pt x="137" y="425" on="0"/>
        <pt x="98" y="390" on="0"/>
        <pt x="75" y="350" on="0"/>
        <pt x="66" y="306" on="0"/>
      </contour>
    </TTGlyph>
    <TTGlyph name="Oacute" xMin="19" yMin="-1" xMax="596" yMax="716">
      <component glyphName="O" x="0" y="0" flags="0x1204"/>
      <component glyphName="acute" x="204" y="154" flags="0x1004"/>
    </TTGlyph>
    <TTGlyph name="Obreve" xMin="19" yMin="-1" xMax="596" yMax="667">
      <component glyphName="O" x="0" y="0" flags="0x1204"/>
      <component glyphName="breve" x="195" y="154" flags="0x1004"/>
    </TTGlyph>
    <TTGlyph name="Ocircumflex" xMin="19" yMin="-1" xMax="596" yMax="783">
      <component glyphName="O" x="0" y="0" flags="0x1204"/>
      <component glyphName="circumflex" x="34" y="34" flags="0x1004"/>
    </TTGlyph>
    <TTGlyph name="Odieresis" xMin="19" yMin="-1" xMax="596" yMax="692">
      <component glyphName="O" x="0" y="0" flags="0x1204"/>
      <component glyphName="dieresis" x="111" y="154" flags="0x1004"/>
    </TTGlyph>
    <TTGlyph name="Ograve" xMin="19" yMin="-1" xMax="596" yMax="722">
      <component glyphName="O" x="0" y="0" flags="0x1204"/>
      <component glyphName="grave" x="236" y="154" flags="0x1004"/>
    </TTGlyph>
    <TTGlyph name="Ohungarumlaut" xMin="19" yMin="-1" xMax="596" yMax="732">
      <component glyphName="O" x="0" y="0" flags="0x1204"/>
      <component glyphName="hungarumlaut" x="152" y="154" flags="0x1004"/>
    </TTGlyph>
    <TTGlyph name="Omacron" xMin="19" yMin="-1" xMax="596" yMax="707">
      <component glyphName="O" x="0" y="0" flags="0x1204"/>
      <component glyphName="macron" x="146" y="154" flags="0x1004"/>
    </TTGlyph>
    <TTGlyph name="Oslash" xMin="19" yMin="-104" xMax="596" yMax="664">
      <contour>
        <pt x="127" y="-70" on="1"/>
        <pt x="127" y="-56" on="0"/>
        <pt x="140" y="-14" on="0"/>
        <pt x="149" y="8" on="1"/>
        <pt x="154" y="21" on="0"/>
        <pt x="160" y="32" on="1"/>
        <pt x="126" y="50" on="0"/>
        <pt x="99" y="76" on="1"/>
        <pt x="61" y="113" on="0"/>
        <pt x="19" y="216" on="0"/>
        <pt x="19" y="279" on="1"/>
        <pt x="17" y="323" on="0"/>
        <pt x="44" y="399" on="0"/>
        <pt x="94" y="458" on="0"/>
        <pt x="130" y="476" on="1"/>
        <pt x="166" y="492" on="0"/>
        <pt x="209" y="496" on="1"/>
        <pt x="270" y="487" on="0"/>
        <pt x="326" y="468" on="1"/>
        <pt x="348" y="530" on="1"/>
        <pt x="351" y="544" on="0"/>
        <pt x="357" y="586" on="0"/>
        <pt x="367" y="627" on="0"/>
        <pt x="383" y="660" on="0"/>
        <pt x="396" y="664" on="1"/>
        <pt x="405" y="662" on="0"/>
        <pt x="413" y="652" on="0"/>
        <pt x="416" y="639" on="0"/>
        <pt x="416" y="625" on="0"/>
        <pt x="416" y="619" on="1"/>
        <pt x="416" y="604" on="0"/>
        <pt x="397" y="525" on="0"/>
        <pt x="381" y="471" on="1"/>
        <pt x="378" y="460" on="0"/>
        <pt x="375" y="448" on="1"/>
        <pt x="430" y="423" on="0"/>
        <pt x="473" y="389" on="1"/>
        <pt x="526" y="347" on="0"/>
        <pt x="592" y="235" on="0"/>
        <pt x="596" y="165" on="1"/>
        <pt x="586" y="113" on="0"/>
        <pt x="524" y="53" on="0"/>
        <pt x="440" y="20" on="0"/>
        <pt x="392" y="12" on="1"/>
        <pt x="344" y="5" on="0"/>
        <pt x="304" y="-1" on="1"/>
        <pt x="260" y="-1" on="0"/>
        <pt x="220" y="9" on="1"/>
        <pt x="218" y="3" on="0"/>
        <pt x="215" y="-2" on="1"/>
        <pt x="195" y="-48" on="0"/>
        <pt x="164" y="-104" on="0"/>
        <pt x="156" y="-104" on="1"/>
        <pt x="143" y="-104" on="0"/>
        <pt x="127" y="-80" on="0"/>
      </contour>
      <contour>
        <pt x="295" y="52" on="1"/>
        <pt x="309" y="52" on="0"/>
        <pt x="355" y="57" on="0"/>
        <pt x="409" y="68" on="0"/>
        <pt x="464" y="87" on="0"/>
        <pt x="509" y="114" on="0"/>
        <pt x="538" y="151" on="0"/>
        <pt x="538" y="175" on="1"/>
        <pt x="531" y="225" on="0"/>
        <pt x="484" y="303" on="0"/>
        <pt x="416" y="363" on="0"/>
        <pt x="376" y="384" on="1"/>
        <pt x="358" y="393" on="1"/>
        <pt x="352" y="374" on="0"/>
        <pt x="345" y="354" on="1"/>
        <pt x="325" y="291" on="0"/>
        <pt x="280" y="163" on="0"/>
        <pt x="258" y="103" on="1"/>
        <pt x="250" y="83" on="0"/>
        <pt x="244" y="65" on="1"/>
        <pt x="269" y="56" on="0"/>
      </contour>
      <contour>
        <pt x="66" y="284" on="1"/>
        <pt x="65" y="238" on="0"/>
        <pt x="106" y="158" on="0"/>
        <pt x="140" y="128" on="1"/>
        <pt x="162" y="107" on="0"/>
        <pt x="188" y="91" on="1"/>
        <pt x="306" y="414" on="1"/>
        <pt x="297" y="417" on="1"/>
        <pt x="258" y="430" on="0"/>
        <pt x="224" y="434" on="1"/>
        <pt x="190" y="438" on="0"/>
        <pt x="168" y="434" on="1"/>
        <pt x="137" y="423" on="0"/>
        <pt x="98" y="387" on="0"/>
        <pt x="75" y="346" on="0"/>
        <pt x="66" y="304" on="0"/>
      </contour>
    </TTGlyph>
    <TTGlyph name="Oslashacute" xMin="19" yMin="-92" xMax="596" yMax="716">
      <contour>
        <pt x="166" y="-64" on="1"/>
        <pt x="166" y="-54" on="0"/>
        <pt x="178" y="-19" on="0"/>
        <pt x="186" y="-1" on="1"/>
        <pt x="190" y="8" on="0"/>
        <pt x="194" y="17" on="1"/>
        <pt x="192" y="20" on="0"/>
        <pt x="190" y="20" on="1"/>
        <pt x="138" y="40" on="0"/>
        <pt x="62" y="112" on="0"/>
        <pt x="19" y="216" on="0"/>
        <pt x="19" y="279" on="1"/>
        <pt x="17" y="323" on="0"/>
        <pt x="44" y="399" on="0"/>
        <pt x="94" y="458" on="0"/>
        <pt x="130" y="476" on="1"/>
        <pt x="166" y="492" on="0"/>
        <pt x="209" y="496" on="1"/>
        <pt x="284" y="485" on="0"/>
        <pt x="352" y="458" on="1"/>
        <pt x="366" y="452" on="1"/>
        <pt x="369" y="468" on="0"/>
        <pt x="378" y="502" on="0"/>
        <pt x="392" y="529" on="0"/>
        <pt x="404" y="532" on="1"/>
        <pt x="412" y="530" on="0"/>
        <pt x="418" y="523" on="0"/>
        <pt x="422" y="512" on="0"/>
        <pt x="421" y="500" on="0"/>
        <pt x="421" y="495" on="1"/>
        <pt x="420" y="483" on="0"/>
        <pt x="412" y="451" on="1"/>
        <pt x="410" y="442" on="0"/>
        <pt x="407" y="432" on="1"/>
        <pt x="443" y="413" on="0"/>
        <pt x="473" y="389" on="1"/>
        <pt x="526" y="347" on="0"/>
        <pt x="592" y="235" on="0"/>
        <pt x="596" y="165" on="1"/>
        <pt x="586" y="113" on="0"/>
        <pt x="524" y="53" on="0"/>
        <pt x="440" y="20" on="0"/>
        <pt x="392" y="12" on="1"/>
        <pt x="344" y="5" on="0"/>
        <pt x="304" y="-1" on="1"/>
        <pt x="276" y="-1" on="0"/>
        <pt x="250" y="3" on="1"/>
        <pt x="244" y="-9" on="1"/>
        <pt x="227" y="-47" on="0"/>
        <pt x="200" y="-92" on="0"/>
        <pt x="192" y="-92" on="1"/>
        <pt x="181" y="-92" on="0"/>
        <pt x="166" y="-73" on="0"/>
      </contour>
      <contour>
        <pt x="66" y="284" on="1"/>
        <pt x="65" y="238" on="0"/>
        <pt x="106" y="158" on="0"/>
        <pt x="172" y="98" on="0"/>
        <pt x="213" y="78" on="1"/>
        <pt x="218" y="76" on="0"/>
        <pt x="223" y="73" on="1"/>
        <pt x="351" y="396" on="1"/>
        <pt x="324" y="409" on="0"/>
        <pt x="297" y="417" on="1"/>
        <pt x="258" y="430" on="0"/>
        <pt x="224" y="434" on="1"/>
        <pt x="190" y="438" on="0"/>
        <pt x="168" y="434" on="1"/>
        <pt x="137" y="423" on="0"/>
        <pt x="98" y="387" on="0"/>
        <pt x="75" y="346" on="0"/>
        <pt x="66" y="304" on="0"/>
      </contour>
      <contour>
        <pt x="295" y="52" on="1"/>
        <pt x="309" y="52" on="0"/>
        <pt x="355" y="57" on="0"/>
        <pt x="409" y="68" on="0"/>
        <pt x="464" y="87" on="0"/>
        <pt x="509" y="114" on="0"/>
        <pt x="538" y="151" on="0"/>
        <pt x="538" y="175" on="1"/>
        <pt x="531" y="225" on="0"/>
        <pt x="484" y="303" on="0"/>
        <pt x="450" y="333" on="1"/>
        <pt x="422" y="357" on="0"/>
        <pt x="391" y="376" on="1"/>
        <pt x="391" y="375" on="1"/>
        <pt x="377" y="331" on="0"/>
        <pt x="340" y="229" on="0"/>
        <pt x="302" y="124" on="0"/>
        <pt x="281" y="76" on="1"/>
        <pt x="277" y="66" on="0"/>
        <pt x="273" y="56" on="1"/>
        <pt x="285" y="54" on="0"/>
      </contour>
      <contour>
        <pt x="213" y="580" on="1"/>
        <pt x="213" y="601" on="0"/>
        <pt x="245" y="640" on="0"/>
        <pt x="290" y="674" on="0"/>
        <pt x="314" y="689" on="1"/>
        <pt x="336" y="704" on="0"/>
        <pt x="352" y="716" on="1"/>
        <pt x="373" y="706" on="0"/>
        <pt x="368" y="678" on="0"/>
        <pt x="331" y="640" on="0"/>
        <pt x="271" y="590" on="0"/>
        <pt x="238" y="556" on="1"/>
        <pt x="223" y="556" on="0"/>
        <pt x="213" y="566" on="0"/>
      </contour>
    </TTGlyph>
    <TTGlyph name="Otilde" xMin="19" yMin="-1" xMax="596" yMax="670">
      <component glyphName="O" x="0" y="0" flags="0x1204"/>
      <component glyphName="tilde" x="62" y="115" flags="0x1004"/>
    </TTGlyph>
    <TTGlyph name="P" xMin="20" yMin="0" xMax="625" yMax="614">
      <contour>
        <pt x="308" y="0" on="1"/>
        <pt x="294" y="25" on="0"/>
        <pt x="275" y="104" on="0"/>
        <pt x="262" y="190" on="0"/>
        <pt x="254" y="266" on="0"/>
        <pt x="250" y="288" on="1"/>
        <pt x="250" y="460" on="1"/>
        <pt x="250" y="471" on="0"/>
        <pt x="268" y="490" on="0"/>
        <pt x="279" y="490" on="1"/>
        <pt x="281" y="490" on="0"/>
        <pt x="287" y="490" on="0"/>
        <pt x="288" y="490" on="1"/>
        <pt x="292" y="463" on="0"/>
        <pt x="296" y="406" on="0"/>
        <pt x="299" y="350" on="0"/>
        <pt x="304" y="322" on="1"/>
        <pt x="308" y="294" on="0"/>
        <pt x="317" y="268" on="1"/>
        <pt x="333" y="264" on="0"/>
        <pt x="352" y="262" on="1"/>
        <pt x="370" y="262" on="0"/>
        <pt x="394" y="260" on="1"/>
        <pt x="420" y="260" on="0"/>
        <pt x="481" y="277" on="0"/>
        <pt x="533" y="309" on="0"/>
        <pt x="568" y="356" on="0"/>
        <pt x="568" y="385" on="1"/>
        <pt x="568" y="417" on="0"/>
        <pt x="526" y="466" on="0"/>
        <pt x="460" y="504" on="0"/>
        <pt x="380" y="532" on="0"/>
        <pt x="303" y="549" on="0"/>
        <pt x="237" y="557" on="0"/>
        <pt x="219" y="557" on="1"/>
        <pt x="213" y="557" on="0"/>
        <pt x="181" y="559" on="0"/>
        <pt x="142" y="558" on="0"/>
        <pt x="106" y="554" on="0"/>
        <pt x="96" y="548" on="1"/>
        <pt x="87" y="543" on="0"/>
        <pt x="72" y="517" on="0"/>
        <pt x="58" y="490" on="0"/>
        <pt x="43" y="470" on="0"/>
        <pt x="34" y="470" on="1"/>
        <pt x="32" y="470" on="1"/>
        <pt x="31" y="470" on="0"/>
        <pt x="29" y="471" on="1"/>
        <pt x="27" y="472" on="0"/>
        <pt x="25" y="476" on="0"/>
        <pt x="22" y="492" on="0"/>
        <pt x="20" y="522" on="0"/>
        <pt x="20" y="548" on="1"/>
        <pt x="20" y="559" on="0"/>
        <pt x="41" y="578" on="0"/>
        <pt x="76" y="592" on="0"/>
        <pt x="116" y="603" on="0"/>
        <pt x="153" y="610" on="0"/>
        <pt x="182" y="614" on="0"/>
        <pt x="187" y="614" on="1"/>
        <pt x="221" y="614" on="0"/>
        <pt x="312" y="606" on="0"/>
        <pt x="409" y="585" on="0"/>
        <pt x="504" y="550" on="0"/>
        <pt x="578" y="499" on="0"/>
        <pt x="602" y="463" on="1"/>
        <pt x="625" y="428" on="0"/>
        <pt x="625" y="380" on="1"/>
        <pt x="630" y="346" on="0"/>
        <pt x="596" y="289" on="0"/>
        <pt x="537" y="244" on="0"/>
        <pt x="463" y="211" on="0"/>
        <pt x="393" y="192" on="0"/>
        <pt x="337" y="187" on="0"/>
        <pt x="326" y="192" on="1"/>
        <pt x="326" y="183" on="1"/>
        <pt x="326" y="148" on="0"/>
        <pt x="338" y="80" on="0"/>
        <pt x="338" y="45" on="1"/>
        <pt x="338" y="41" on="0"/>
        <pt x="336" y="24" on="0"/>
        <pt x="329" y="8" on="0"/>
        <pt x="318" y="-2" on="0"/>
      </contour>
    </TTGlyph>
    <TTGlyph name="Q" xMin="26" yMin="-116" xMax="670" yMax="550">
      <contour>
        <pt x="430" y="12" on="1"/>
        <pt x="426" y="12" on="0"/>
        <pt x="418" y="12" on="1"/>
        <pt x="410" y="11" on="1"/>
        <pt x="407" y="10" on="0"/>
        <pt x="384" y="8" on="0"/>
        <pt x="358" y="4" on="0"/>
        <pt x="335" y="2" on="0"/>
        <pt x="332" y="2" on="1"/>
        <pt x="328" y="2" on="1"/>
        <pt x="268" y="-3" on="0"/>
        <pt x="158" y="37" on="0"/>
        <pt x="74" y="115" on="0"/>
        <pt x="26" y="220" on="0"/>
        <pt x="26" y="280" on="1"/>
        <pt x="26" y="294" on="1"/>
        <pt x="26" y="342" on="0"/>
        <pt x="61" y="434" on="0"/>
        <pt x="123" y="506" on="0"/>
        <pt x="208" y="550" on="0"/>
        <pt x="258" y="550" on="1"/>
        <pt x="291" y="550" on="0"/>
        <pt x="372" y="518" on="0"/>
        <pt x="455" y="463" on="0"/>
        <pt x="534" y="392" on="0"/>
        <pt x="595" y="315" on="0"/>
        <pt x="632" y="238" on="0"/>
        <pt x="632" y="204" on="1"/>
        <pt x="632" y="177" on="0"/>
        <pt x="614" y="132" on="0"/>
        <pt x="585" y="95" on="0"/>
        <pt x="546" y="64" on="0"/>
        <pt x="524" y="50" on="1"/>
        <pt x="524" y="40" on="1"/>
        <pt x="524" y="22" on="0"/>
        <pt x="545" y="-7" on="0"/>
        <pt x="577" y="-29" on="0"/>
        <pt x="614" y="-49" on="0"/>
        <pt x="646" y="-67" on="0"/>
        <pt x="669" y="-85" on="0"/>
        <pt x="670" y="-95" on="1"/>
        <pt x="648" y="-116" on="0"/>
        <pt x="609" y="-116" on="0"/>
        <pt x="572" y="-91" on="0"/>
        <pt x="535" y="-50" on="0"/>
        <pt x="496" y="-12" on="0"/>
        <pt x="453" y="14" on="0"/>
      </contour>
      <contour>
        <pt x="82" y="280" on="1"/>
        <pt x="78" y="233" on="0"/>
        <pt x="112" y="154" on="0"/>
        <pt x="176" y="98" on="0"/>
        <pt x="218" y="82" on="1"/>
        <pt x="258" y="66" on="0"/>
        <pt x="304" y="67" on="1"/>
        <pt x="313" y="67" on="0"/>
        <pt x="334" y="67" on="0"/>
        <pt x="351" y="73" on="0"/>
        <pt x="362" y="87" on="0"/>
        <pt x="362" y="102" on="1"/>
        <pt x="358" y="121" on="0"/>
        <pt x="332" y="161" on="0"/>
        <pt x="312" y="197" on="0"/>
        <pt x="306" y="228" on="0"/>
        <pt x="320" y="238" on="1"/>
        <pt x="336" y="238" on="0"/>
        <pt x="370" y="202" on="0"/>
        <pt x="404" y="155" on="0"/>
        <pt x="420" y="132" on="1"/>
        <pt x="435" y="110" on="0"/>
        <pt x="448" y="98" on="1"/>
        <pt x="450" y="98" on="0"/>
        <pt x="460" y="97" on="0"/>
        <pt x="462" y="97" on="1"/>
        <pt x="476" y="97" on="0"/>
        <pt x="516" y="114" on="0"/>
        <pt x="554" y="140" on="0"/>
        <pt x="582" y="173" on="0"/>
        <pt x="582" y="189" on="1"/>
        <pt x="582" y="210" on="0"/>
        <pt x="568" y="251" on="0"/>
        <pt x="546" y="290" on="0"/>
        <pt x="532" y="306" on="1"/>
        <pt x="520" y="323" on="0"/>
        <pt x="506" y="338" on="1"/>
        <pt x="498" y="346" on="0"/>
        <pt x="472" y="373" on="0"/>
        <pt x="446" y="398" on="0"/>
        <pt x="424" y="415" on="0"/>
        <pt x="419" y="415" on="1"/>
        <pt x="417" y="392" on="0"/>
        <pt x="404" y="347" on="0"/>
        <pt x="390" y="328" on="1"/>
        <pt x="389" y="328" on="0"/>
        <pt x="388" y="328" on="1"/>
        <pt x="386" y="327" on="1"/>
        <pt x="383" y="327" on="1"/>
        <pt x="382" y="327" on="0"/>
        <pt x="381" y="328" on="1"/>
        <pt x="380" y="328" on="0"/>
        <pt x="372" y="332" on="0"/>
        <pt x="362" y="338" on="0"/>
        <pt x="358" y="340" on="1"/>
        <pt x="354" y="344" on="1"/>
        <pt x="372" y="388" on="0"/>
        <pt x="362" y="443" on="0"/>
        <pt x="325" y="475" on="0"/>
        <pt x="272" y="488" on="0"/>
        <pt x="223" y="488" on="0"/>
        <pt x="206" y="486" on="1"/>
        <pt x="188" y="484" on="0"/>
        <pt x="189" y="482" on="1"/>
        <pt x="155" y="470" on="0"/>
        <pt x="113" y="427" on="0"/>
        <pt x="90" y="373" on="0"/>
        <pt x="82" y="311" on="0"/>
      </contour>
    </TTGlyph>
    <TTGlyph name="R" xMin="-10" yMin="-41" xMax="566" yMax="639">
      <contour>
        <pt x="198" y="222" on="1"/>
        <pt x="205" y="177" on="0"/>
        <pt x="224" y="102" on="0"/>
        <pt x="234" y="46" on="0"/>
        <pt x="232" y="29" on="1"/>
        <pt x="230" y="12" on="0"/>
        <pt x="212" y="8" on="1"/>
        <pt x="210" y="2" on="0"/>
        <pt x="198" y="28" on="0"/>
        <pt x="182" y="81" on="0"/>
        <pt x="164" y="155" on="0"/>
        <pt x="147" y="238" on="0"/>
        <pt x="133" y="326" on="0"/>
        <pt x="124" y="406" on="0"/>
        <pt x="124" y="472" on="0"/>
        <pt x="130" y="494" on="1"/>
        <pt x="142" y="503" on="0"/>
        <pt x="161" y="494" on="0"/>
        <pt x="172" y="474" on="0"/>
        <pt x="174" y="461" on="1"/>
        <pt x="174" y="448" on="0"/>
        <pt x="172" y="437" on="1"/>
        <pt x="173" y="433" on="0"/>
        <pt x="178" y="411" on="0"/>
        <pt x="184" y="386" on="0"/>
        <pt x="190" y="364" on="0"/>
        <pt x="192" y="360" on="1"/>
        <pt x="206" y="362" on="0"/>
        <pt x="261" y="369" on="0"/>
        <pt x="325" y="382" on="0"/>
        <pt x="392" y="400" on="0"/>
        <pt x="446" y="424" on="0"/>
        <pt x="481" y="456" on="0"/>
        <pt x="481" y="476" on="1"/>
        <pt x="481" y="478" on="0"/>
        <pt x="480" y="481" on="1"/>
        <pt x="480" y="484" on="1"/>
        <pt x="452" y="516" on="0"/>
        <pt x="394" y="556" on="0"/>
        <pt x="329" y="575" on="0"/>
        <pt x="257" y="581" on="0"/>
        <pt x="216" y="581" on="1"/>
        <pt x="186" y="581" on="0"/>
        <pt x="120" y="580" on="0"/>
        <pt x="65" y="564" on="0"/>
        <pt x="29" y="522" on="0"/>
        <pt x="29" y="482" on="1"/>
        <pt x="20" y="482" on="0"/>
        <pt x="6" y="494" on="0"/>
        <pt x="-4" y="511" on="0"/>
        <pt x="-10" y="530" on="0"/>
        <pt x="-10" y="537" on="1"/>
        <pt x="-10" y="551" on="0"/>
        <pt x="2" y="576" on="0"/>
        <pt x="22" y="596" on="0"/>
        <pt x="46" y="613" on="0"/>
        <pt x="58" y="619" on="1"/>
        <pt x="90" y="625" on="0"/>
        <pt x="139" y="633" on="0"/>
        <pt x="183" y="638" on="0"/>
        <pt x="228" y="639" on="0"/>
        <pt x="256" y="639" on="1"/>
        <pt x="284" y="639" on="0"/>
        <pt x="346" y="630" on="0"/>
        <pt x="410" y="612" on="0"/>
        <pt x="467" y="583" on="0"/>
        <pt x="512" y="542" on="0"/>
        <pt x="538" y="489" on="0"/>
        <pt x="538" y="456" on="1"/>
        <pt x="538" y="427" on="0"/>
        <pt x="502" y="383" on="0"/>
        <pt x="442" y="351" on="0"/>
        <pt x="369" y="329" on="0"/>
        <pt x="296" y="312" on="0"/>
        <pt x="264" y="306" on="1"/>
        <pt x="232" y="298" on="0"/>
        <pt x="212" y="292" on="1"/>
        <pt x="262" y="223" on="0"/>
        <pt x="360" y="127" on="0"/>
        <pt x="446" y="61" on="0"/>
        <pt x="516" y="20" on="0"/>
        <pt x="560" y="-8" on="0"/>
        <pt x="566" y="-16" on="1"/>
        <pt x="572" y="-24" on="0"/>
        <pt x="557" y="-34" on="1"/>
        <pt x="546" y="-48" on="0"/>
        <pt x="496" y="-34" on="0"/>
        <pt x="431" y="7" on="0"/>
        <pt x="357" y="68" on="0"/>
        <pt x="285" y="134" on="0"/>
        <pt x="220" y="198" on="0"/>
      </contour>
    </TTGlyph>
    <TTGlyph name="R.alt" xMin="-10" yMin="-41" xMax="566" yMax="639">
      <contour>
        <pt x="198" y="222" on="1"/>
        <pt x="205" y="177" on="0"/>
        <pt x="224" y="102" on="0"/>
        <pt x="234" y="46" on="0"/>
        <pt x="232" y="29" on="1"/>
        <pt x="230" y="12" on="0"/>
        <pt x="212" y="8" on="1"/>
        <pt x="210" y="2" on="0"/>
        <pt x="198" y="28" on="0"/>
        <pt x="182" y="81" on="0"/>
        <pt x="164" y="155" on="0"/>
        <pt x="147" y="238" on="0"/>
        <pt x="133" y="326" on="0"/>
        <pt x="124" y="406" on="0"/>
        <pt x="124" y="472" on="0"/>
        <pt x="130" y="494" on="1"/>
        <pt x="142" y="503" on="0"/>
        <pt x="161" y="494" on="0"/>
        <pt x="172" y="474" on="0"/>
        <pt x="174" y="461" on="1"/>
        <pt x="174" y="448" on="0"/>
        <pt x="172" y="437" on="1"/>
        <pt x="173" y="433" on="0"/>
        <pt x="178" y="411" on="0"/>
        <pt x="184" y="386" on="0"/>
        <pt x="190" y="364" on="0"/>
        <pt x="192" y="360" on="1"/>
        <pt x="206" y="362" on="0"/>
        <pt x="261" y="369" on="0"/>
        <pt x="325" y="382" on="0"/>
        <pt x="392" y="400" on="0"/>
        <pt x="446" y="424" on="0"/>
        <pt x="481" y="456" on="0"/>
        <pt x="481" y="476" on="1"/>
        <pt x="481" y="478" on="0"/>
        <pt x="480" y="481" on="1"/>
        <pt x="480" y="484" on="1"/>
        <pt x="452" y="516" on="0"/>
        <pt x="394" y="556" on="0"/>
        <pt x="329" y="575" on="0"/>
        <pt x="257" y="581" on="0"/>
        <pt x="216" y="581" on="1"/>
        <pt x="186" y="581" on="0"/>
        <pt x="120" y="580" on="0"/>
        <pt x="65" y="564" on="0"/>
        <pt x="29" y="522" on="0"/>
        <pt x="29" y="482" on="1"/>
        <pt x="20" y="482" on="0"/>
        <pt x="6" y="494" on="0"/>
        <pt x="-4" y="511" on="0"/>
        <pt x="-10" y="530" on="0"/>
        <pt x="-10" y="537" on="1"/>
        <pt x="-10" y="551" on="0"/>
        <pt x="2" y="576" on="0"/>
        <pt x="22" y="596" on="0"/>
        <pt x="46" y="613" on="0"/>
        <pt x="58" y="619" on="1"/>
        <pt x="90" y="625" on="0"/>
        <pt x="139" y="633" on="0"/>
        <pt x="183" y="638" on="0"/>
        <pt x="228" y="639" on="0"/>
        <pt x="256" y="639" on="1"/>
        <pt x="284" y="639" on="0"/>
        <pt x="346" y="630" on="0"/>
        <pt x="410" y="612" on="0"/>
        <pt x="467" y="583" on="0"/>
        <pt x="512" y="542" on="0"/>
        <pt x="538" y="489" on="0"/>
        <pt x="538" y="456" on="1"/>
        <pt x="538" y="427" on="0"/>
        <pt x="502" y="383" on="0"/>
        <pt x="442" y="351" on="0"/>
        <pt x="369" y="329" on="0"/>
        <pt x="296" y="312" on="0"/>
        <pt x="264" y="306" on="1"/>
        <pt x="232" y="298" on="0"/>
        <pt x="212" y="292" on="1"/>
        <pt x="262" y="223" on="0"/>
        <pt x="360" y="127" on="0"/>
        <pt x="446" y="61" on="0"/>
        <pt x="516" y="20" on="0"/>
        <pt x="560" y="-8" on="0"/>
        <pt x="566" y="-16" on="1"/>
        <pt x="572" y="-24" on="0"/>
        <pt x="557" y="-34" on="1"/>
        <pt x="546" y="-48" on="0"/>
        <pt x="496" y="-34" on="0"/>
        <pt x="431" y="7" on="0"/>
        <pt x="357" y="68" on="0"/>
        <pt x="285" y="134" on="0"/>
        <pt x="220" y="198" on="0"/>
      </contour>
    </TTGlyph>
    <TTGlyph name="Racute" xMin="-10" yMin="-41" xMax="566" yMax="823">
      <component glyphName="R" x="0" y="0" flags="0x1204"/>
      <component glyphName="acute" x="235" y="261" flags="0x1004"/>
    </TTGlyph>
    <TTGlyph name="Rcaron" xMin="-10" yMin="-41" xMax="566" yMax="837">
      <component glyphName="R" x="0" y="0" flags="0x1204"/>
      <component glyphName="caron" x="103" y="215" flags="0x1004"/>
    </TTGlyph>
    <TTGlyph name="Rcommaaccent" xMin="-10" yMin="-335" xMax="566" yMax="639">
      <component glyphName="R" x="0" y="0" flags="0x1204"/>
      <component glyphName="commaaccent" x="141" y="-10" flags="0x1004"/>
    </TTGlyph>
    <TTGlyph name="S" xMin="20" yMin="-6" xMax="615" yMax="615">
      <contour>
        <pt x="20" y="178" on="1"/>
        <pt x="20" y="188" on="0"/>
        <pt x="28" y="211" on="0"/>
        <pt x="42" y="232" on="0"/>
        <pt x="62" y="246" on="0"/>
        <pt x="73" y="246" on="1"/>
        <pt x="73" y="181" on="0"/>
        <pt x="119" y="106" on="0"/>
        <pt x="200" y="66" on="0"/>
        <pt x="252" y="59" on="1"/>
        <pt x="304" y="52" on="0"/>
        <pt x="364" y="49" on="1"/>
        <pt x="384" y="50" on="0"/>
        <pt x="449" y="51" on="0"/>
        <pt x="509" y="64" on="0"/>
        <pt x="551" y="94" on="0"/>
        <pt x="550" y="125" on="1"/>
        <pt x="550" y="139" on="0"/>
        <pt x="548" y="161" on="0"/>
        <pt x="541" y="178" on="0"/>
        <pt x="524" y="194" on="0"/>
        <pt x="509" y="202" on="1"/>
        <pt x="212" y="364" on="1"/>
        <pt x="196" y="373" on="0"/>
        <pt x="166" y="400" on="0"/>
        <pt x="146" y="433" on="0"/>
        <pt x="134" y="470" on="0"/>
        <pt x="134" y="488" on="1"/>
        <pt x="134" y="526" on="0"/>
        <pt x="175" y="574" on="0"/>
        <pt x="236" y="603" on="0"/>
        <pt x="307" y="615" on="0"/>
        <pt x="337" y="615" on="1"/>
        <pt x="351" y="615" on="0"/>
        <pt x="395" y="610" on="0"/>
        <pt x="445" y="600" on="0"/>
        <pt x="494" y="584" on="0"/>
        <pt x="532" y="559" on="0"/>
        <pt x="557" y="526" on="0"/>
        <pt x="557" y="504" on="1"/>
        <pt x="543" y="496" on="0"/>
        <pt x="514" y="502" on="0"/>
        <pt x="484" y="518" on="0"/>
        <pt x="452" y="538" on="0"/>
        <pt x="418" y="558" on="0"/>
        <pt x="380" y="570" on="0"/>
        <pt x="359" y="568" on="1"/>
        <pt x="340" y="568" on="0"/>
        <pt x="280" y="564" on="0"/>
        <pt x="223" y="549" on="0"/>
        <pt x="182" y="518" on="0"/>
        <pt x="182" y="490" on="1"/>
        <pt x="182" y="463" on="0"/>
        <pt x="220" y="418" on="0"/>
        <pt x="285" y="377" on="0"/>
        <pt x="366" y="340" on="0"/>
        <pt x="449" y="301" on="0"/>
        <pt x="528" y="259" on="0"/>
        <pt x="587" y="209" on="0"/>
        <pt x="620" y="152" on="0"/>
        <pt x="610" y="80" on="0"/>
        <pt x="558" y="28" on="0"/>
        <pt x="478" y="-1" on="0"/>
        <pt x="380" y="-10" on="0"/>
        <pt x="276" y="0" on="0"/>
        <pt x="174" y="28" on="0"/>
        <pt x="90" y="75" on="0"/>
        <pt x="30" y="138" on="0"/>
      </contour>
    </TTGlyph>
    <TTGlyph name="Sacute" xMin="20" yMin="-6" xMax="615" yMax="823">
      <component glyphName="S" x="0" y="0" flags="0x1204"/>
      <component glyphName="acute" x="230" y="261" flags="0x1004"/>
    </TTGlyph>
    <TTGlyph name="Scaron" xMin="20" yMin="-6" xMax="615" yMax="776">
      <component glyphName="S" x="0" y="0" flags="0x1204"/>
      <component glyphName="caron" x="131" y="154" flags="0x1004"/>
    </TTGlyph>
    <TTGlyph name="Scedilla" xMin="20" yMin="-314" xMax="615" yMax="615">
      <contour>
        <pt x="188" y="-216" on="1"/>
        <pt x="194" y="-211" on="0"/>
        <pt x="204" y="-208" on="0"/>
        <pt x="212" y="-208" on="1"/>
        <pt x="228" y="-208" on="0"/>
        <pt x="258" y="-227" on="0"/>
        <pt x="286" y="-249" on="0"/>
        <pt x="313" y="-268" on="0"/>
        <pt x="328" y="-268" on="1"/>
        <pt x="344" y="-268" on="0"/>
        <pt x="372" y="-268" on="0"/>
        <pt x="391" y="-261" on="0"/>
        <pt x="401" y="-238" on="0"/>
        <pt x="401" y="-214" on="1"/>
        <pt x="402" y="-191" on="0"/>
        <pt x="386" y="-165" on="0"/>
        <pt x="358" y="-151" on="0"/>
        <pt x="322" y="-145" on="0"/>
        <pt x="285" y="-137" on="0"/>
        <pt x="249" y="-124" on="0"/>
        <pt x="220" y="-99" on="0"/>
        <pt x="212" y="-78" on="1"/>
        <pt x="202" y="-56" on="0"/>
        <pt x="202" y="-21" on="1"/>
        <pt x="204" y="5" on="0"/>
        <pt x="208" y="16" on="1"/>
        <pt x="210" y="19" on="1"/>
        <pt x="167" y="32" on="0"/>
        <pt x="132" y="52" on="1"/>
        <pt x="90" y="75" on="0"/>
        <pt x="30" y="138" on="0"/>
        <pt x="20" y="178" on="1"/>
        <pt x="20" y="188" on="0"/>
        <pt x="28" y="211" on="0"/>
        <pt x="42" y="232" on="0"/>
        <pt x="62" y="246" on="0"/>
        <pt x="73" y="246" on="1"/>
        <pt x="73" y="181" on="0"/>
        <pt x="119" y="106" on="0"/>
        <pt x="200" y="66" on="0"/>
        <pt x="252" y="59" on="1"/>
        <pt x="304" y="52" on="0"/>
        <pt x="364" y="49" on="1"/>
        <pt x="384" y="50" on="0"/>
        <pt x="449" y="51" on="0"/>
        <pt x="509" y="64" on="0"/>
        <pt x="551" y="94" on="0"/>
        <pt x="550" y="125" on="1"/>
        <pt x="550" y="139" on="0"/>
        <pt x="548" y="161" on="0"/>
        <pt x="541" y="178" on="0"/>
        <pt x="524" y="194" on="0"/>
        <pt x="509" y="202" on="1"/>
        <pt x="212" y="364" on="1"/>
        <pt x="196" y="373" on="0"/>
        <pt x="166" y="400" on="0"/>
        <pt x="146" y="433" on="0"/>
        <pt x="134" y="470" on="0"/>
        <pt x="134" y="488" on="1"/>
        <pt x="134" y="526" on="0"/>
        <pt x="175" y="574" on="0"/>
        <pt x="236" y="603" on="0"/>
        <pt x="307" y="615" on="0"/>
        <pt x="337" y="615" on="1"/>
        <pt x="351" y="615" on="0"/>
        <pt x="395" y="610" on="0"/>
        <pt x="445" y="600" on="0"/>
        <pt x="494" y="584" on="0"/>
        <pt x="532" y="559" on="0"/>
        <pt x="557" y="526" on="0"/>
        <pt x="557" y="504" on="1"/>
        <pt x="543" y="496" on="0"/>
        <pt x="514" y="502" on="0"/>
        <pt x="484" y="518" on="0"/>
        <pt x="452" y="538" on="0"/>
        <pt x="418" y="558" on="0"/>
        <pt x="380" y="570" on="0"/>
        <pt x="359" y="568" on="1"/>
        <pt x="340" y="568" on="0"/>
        <pt x="280" y="564" on="0"/>
        <pt x="223" y="549" on="0"/>
        <pt x="182" y="518" on="0"/>
        <pt x="182" y="490" on="1"/>
        <pt x="182" y="463" on="0"/>
        <pt x="220" y="418" on="0"/>
        <pt x="285" y="377" on="0"/>
        <pt x="366" y="340" on="0"/>
        <pt x="449" y="301" on="0"/>
        <pt x="528" y="259" on="0"/>
        <pt x="587" y="209" on="0"/>
        <pt x="620" y="152" on="0"/>
        <pt x="610" y="80" on="0"/>
        <pt x="558" y="28" on="0"/>
        <pt x="478" y="-1" on="0"/>
        <pt x="380" y="-10" on="0"/>
        <pt x="328" y="-4" on="1"/>
        <pt x="284" y="0" on="0"/>
        <pt x="241" y="10" on="1"/>
        <pt x="244" y="6" on="0"/>
        <pt x="246" y="0" on="1"/>
        <pt x="250" y="-10" on="0"/>
        <pt x="253" y="-30" on="0"/>
        <pt x="248" y="-34" on="1"/>
        <pt x="248" y="-66" on="0"/>
        <pt x="279" y="-93" on="0"/>
        <pt x="325" y="-105" on="0"/>
        <pt x="379" y="-111" on="0"/>
        <pt x="424" y="-132" on="0"/>
        <pt x="455" y="-176" on="0"/>
        <pt x="455" y="-219" on="1"/>
        <pt x="455" y="-243" on="0"/>
        <pt x="430" y="-279" on="0"/>
        <pt x="392" y="-302" on="0"/>
        <pt x="345" y="-314" on="0"/>
        <pt x="325" y="-314" on="1"/>
        <pt x="296" y="-314" on="0"/>
        <pt x="257" y="-297" on="0"/>
        <pt x="229" y="-270" on="0"/>
        <pt x="204" y="-235" on="0"/>
      </contour>
    </TTGlyph>
    <TTGlyph name="Scircumflex" xMin="20" yMin="-6" xMax="615" yMax="903">
      <component glyphName="S" x="0" y="0" flags="0x1204"/>
      <component glyphName="circumflex" x="133" y="154" flags="0x1004"/>
    </TTGlyph>
    <TTGlyph name="Scommaaccent" xMin="20" yMin="-335" xMax="615" yMax="615">
      <component glyphName="S" x="0" y="0" flags="0x1204"/>
      <component glyphName="commaaccent" x="141" y="-10" flags="0x1004"/>
    </TTGlyph>
    <TTGlyph name="T" xMin="3" yMin="-1" xMax="682" yMax="626">
      <contour>
        <pt x="316" y="556" on="1"/>
        <pt x="246" y="556" on="0"/>
        <pt x="97" y="575" on="0"/>
        <pt x="29" y="586" on="1"/>
        <pt x="20" y="584" on="0"/>
        <pt x="10" y="593" on="0"/>
        <pt x="4" y="608" on="0"/>
        <pt x="3" y="622" on="0"/>
        <pt x="3" y="626" on="1"/>
        <pt x="18" y="626" on="0"/>
        <pt x="92" y="626" on="0"/>
        <pt x="193" y="624" on="0"/>
        <pt x="312" y="620" on="0"/>
        <pt x="432" y="612" on="0"/>
        <pt x="544" y="601" on="0"/>
        <pt x="631" y="584" on="0"/>
        <pt x="682" y="562" on="0"/>
        <pt x="682" y="548" on="1"/>
        <pt x="682" y="538" on="0"/>
        <pt x="676" y="518" on="0"/>
        <pt x="664" y="518" on="1"/>
        <pt x="627" y="520" on="0"/>
        <pt x="555" y="538" on="0"/>
        <pt x="483" y="555" on="0"/>
        <pt x="408" y="562" on="0"/>
        <pt x="369" y="550" on="1"/>
        <pt x="369" y="504" on="0"/>
        <pt x="380" y="394" on="0"/>
        <pt x="395" y="280" on="0"/>
        <pt x="414" y="166" on="0"/>
        <pt x="423" y="116" on="1"/>
        <pt x="425" y="103" on="0"/>
        <pt x="438" y="78" on="0"/>
        <pt x="452" y="55" on="0"/>
        <pt x="462" y="31" on="0"/>
        <pt x="462" y="19" on="1"/>
        <pt x="462" y="11" on="0"/>
        <pt x="452" y="2" on="0"/>
        <pt x="438" y="-1" on="0"/>
        <pt x="422" y="-1" on="0"/>
        <pt x="417" y="-1" on="1"/>
        <pt x="397" y="-1" on="0"/>
        <pt x="374" y="31" on="0"/>
        <pt x="362" y="74" on="0"/>
        <pt x="358" y="120" on="0"/>
        <pt x="356" y="134" on="1"/>
        <pt x="348" y="189" on="0"/>
        <pt x="336" y="292" on="0"/>
        <pt x="327" y="395" on="0"/>
        <pt x="320" y="500" on="0"/>
      </contour>
    </TTGlyph>
    <TTGlyph name="Tcaron" xMin="3" yMin="-1" xMax="682" yMax="776">
      <component glyphName="T" x="0" y="0" flags="0x1204"/>
      <component glyphName="caron" x="107" y="154" flags="0x1004"/>
    </TTGlyph>
    <TTGlyph name="Tcommaaccent" xMin="3" yMin="-300" xMax="682" yMax="626">
      <component glyphName="T" x="0" y="0" flags="0x1204"/>
      <component glyphName="commaaccent" x="244" y="25" flags="0x1004"/>
    </TTGlyph>
    <TTGlyph name="Thorn" xMin="50" yMin="-160" xMax="490" yMax="623">
      <contour>
        <pt x="117" y="611" on="1"/>
        <pt x="119" y="601" on="0"/>
        <pt x="118" y="551" on="0"/>
        <pt x="114" y="489" on="0"/>
        <pt x="110" y="422" on="0"/>
        <pt x="108" y="368" on="0"/>
        <pt x="109" y="350" on="1"/>
        <pt x="110" y="332" on="0"/>
        <pt x="114" y="334" on="1"/>
        <pt x="132" y="334" on="0"/>
        <pt x="167" y="346" on="0"/>
        <pt x="187" y="346" on="1"/>
        <pt x="217" y="346" on="0"/>
        <pt x="285" y="335" on="0"/>
        <pt x="352" y="313" on="0"/>
        <pt x="415" y="278" on="0"/>
        <pt x="462" y="232" on="0"/>
        <pt x="490" y="172" on="0"/>
        <pt x="490" y="136" on="1"/>
        <pt x="490" y="90" on="0"/>
        <pt x="445" y="35" on="0"/>
        <pt x="375" y="7" on="0"/>
        <pt x="334" y="3" on="1"/>
        <pt x="292" y="-1" on="0"/>
        <pt x="256" y="-1" on="1"/>
        <pt x="245" y="-1" on="0"/>
        <pt x="207" y="12" on="0"/>
        <pt x="166" y="28" on="0"/>
        <pt x="130" y="44" on="0"/>
        <pt x="123" y="46" on="1"/>
        <pt x="135" y="-160" on="1"/>
        <pt x="80" y="-138" on="1"/>
        <pt x="58" y="308" on="1"/>
        <pt x="58" y="311" on="0"/>
        <pt x="56" y="342" on="0"/>
        <pt x="54" y="388" on="0"/>
        <pt x="52" y="445" on="0"/>
        <pt x="50" y="502" on="0"/>
        <pt x="50" y="557" on="0"/>
        <pt x="52" y="599" on="0"/>
        <pt x="56" y="624" on="0"/>
        <pt x="58" y="623" on="1"/>
      </contour>
      <contour>
        <pt x="125" y="218" on="1"/>
        <pt x="115" y="174" on="0"/>
        <pt x="146" y="110" on="0"/>
        <pt x="205" y="69" on="0"/>
        <pt x="282" y="53" on="0"/>
        <pt x="358" y="64" on="0"/>
        <pt x="388" y="82" on="1"/>
        <pt x="420" y="101" on="0"/>
        <pt x="434" y="134" on="1"/>
        <pt x="434" y="161" on="0"/>
        <pt x="409" y="205" on="0"/>
        <pt x="369" y="239" on="0"/>
        <pt x="318" y="264" on="0"/>
        <pt x="265" y="280" on="0"/>
        <pt x="213" y="289" on="0"/>
        <pt x="193" y="289" on="1"/>
        <pt x="160" y="289" on="0"/>
        <pt x="125" y="251" on="0"/>
      </contour>
    </TTGlyph>
    <TTGlyph name="U" xMin="28" yMin="-1" xMax="569" yMax="557">
      <contour>
        <pt x="28" y="390" on="1"/>
        <pt x="28" y="399" on="0"/>
        <pt x="29" y="430" on="0"/>
        <pt x="32" y="467" on="0"/>
        <pt x="40" y="506" on="0"/>
        <pt x="56" y="537" on="0"/>
        <pt x="80" y="557" on="0"/>
        <pt x="97" y="557" on="1"/>
        <pt x="108" y="557" on="0"/>
        <pt x="120" y="545" on="0"/>
        <pt x="122" y="528" on="0"/>
        <pt x="110" y="508" on="0"/>
        <pt x="97" y="500" on="1"/>
        <pt x="88" y="500" on="0"/>
        <pt x="80" y="473" on="0"/>
        <pt x="76" y="441" on="0"/>
        <pt x="76" y="411" on="0"/>
        <pt x="76" y="408" on="1"/>
        <pt x="76" y="382" on="0"/>
        <pt x="80" y="314" on="0"/>
        <pt x="92" y="241" on="0"/>
        <pt x="115" y="169" on="0"/>
        <pt x="152" y="110" on="0"/>
        <pt x="204" y="70" on="0"/>
        <pt x="241" y="68" on="1"/>
        <pt x="269" y="66" on="0"/>
        <pt x="343" y="90" on="0"/>
        <pt x="407" y="135" on="0"/>
        <pt x="452" y="194" on="0"/>
        <pt x="452" y="226" on="1"/>
        <pt x="452" y="230" on="1"/>
        <pt x="445" y="272" on="0"/>
        <pt x="430" y="328" on="0"/>
        <pt x="419" y="374" on="0"/>
        <pt x="412" y="422" on="0"/>
        <pt x="412" y="454" on="1"/>
        <pt x="415" y="500" on="0"/>
        <pt x="430" y="545" on="0"/>
        <pt x="446" y="550" on="0"/>
        <pt x="464" y="522" on="0"/>
        <pt x="478" y="469" on="0"/>
        <pt x="484" y="396" on="0"/>
        <pt x="483" y="355" on="1"/>
        <pt x="484" y="325" on="0"/>
        <pt x="505" y="253" on="0"/>
        <pt x="531" y="181" on="0"/>
        <pt x="558" y="113" on="0"/>
        <pt x="572" y="62" on="0"/>
        <pt x="566" y="29" on="0"/>
        <pt x="548" y="29" on="1"/>
        <pt x="528" y="29" on="0"/>
        <pt x="508" y="53" on="0"/>
        <pt x="494" y="82" on="0"/>
        <pt x="486" y="94" on="1"/>
        <pt x="478" y="106" on="0"/>
        <pt x="466" y="106" on="1"/>
        <pt x="456" y="106" on="0"/>
        <pt x="428" y="91" on="0"/>
        <pt x="393" y="67" on="0"/>
        <pt x="352" y="39" on="0"/>
        <pt x="308" y="15" on="0"/>
        <pt x="262" y="-1" on="0"/>
        <pt x="238" y="-1" on="1"/>
        <pt x="195" y="-1" on="0"/>
        <pt x="131" y="40" on="0"/>
        <pt x="85" y="106" on="0"/>
        <pt x="54" y="191" on="0"/>
        <pt x="36" y="278" on="0"/>
        <pt x="28" y="359" on="0"/>
      </contour>
    </TTGlyph>
    <TTGlyph name="Uacute" xMin="28" yMin="-1" xMax="569" yMax="716">
      <component glyphName="U" x="0" y="0" flags="0x1204"/>
      <component glyphName="acute" x="185" y="154" flags="0x1004"/>
    </TTGlyph>
    <TTGlyph name="Ubreve" xMin="28" yMin="-1" xMax="569" yMax="667">
      <component glyphName="U" x="0" y="0" flags="0x1204"/>
      <component glyphName="breve" x="176" y="154" flags="0x1004"/>
    </TTGlyph>
    <TTGlyph name="Ucircumflex" xMin="28" yMin="-1" xMax="569" yMax="903">
      <component glyphName="U" x="0" y="0" flags="0x1204"/>
      <component glyphName="circumflex" x="104" y="154" flags="0x1004"/>
    </TTGlyph>
    <TTGlyph name="Udieresis" xMin="28" yMin="-1" xMax="569" yMax="692">
      <component glyphName="U" x="0" y="0" flags="0x1204"/>
      <component glyphName="dieresis" x="92" y="154" flags="0x1004"/>
    </TTGlyph>
    <TTGlyph name="Ugrave" xMin="28" yMin="-1" xMax="569" yMax="722">
      <component glyphName="U" x="0" y="0" flags="0x1204"/>
      <component glyphName="grave" x="218" y="154" flags="0x1004"/>
    </TTGlyph>
    <TTGlyph name="Uhungarumlaut" xMin="28" yMin="-1" xMax="569" yMax="732">
      <component glyphName="U" x="0" y="0" flags="0x1204"/>
      <component glyphName="hungarumlaut" x="133" y="154" flags="0x1004"/>
    </TTGlyph>
    <TTGlyph name="Umacron" xMin="28" yMin="-1" xMax="569" yMax="707">
      <component glyphName="U" x="0" y="0" flags="0x1204"/>
      <component glyphName="macron" x="127" y="154" flags="0x1004"/>
    </TTGlyph>
    <TTGlyph name="Uogonek" xMin="40" yMin="-165" xMax="616" yMax="512">
      <contour>
        <pt x="601" y="-165" on="1"/>
        <pt x="549" y="-166" on="0"/>
        <pt x="468" y="-158" on="0"/>
        <pt x="419" y="-130" on="0"/>
        <pt x="408" y="-78" on="0"/>
        <pt x="427" y="-33" on="1"/>
        <pt x="435" y="-19" on="0"/>
        <pt x="457" y="-1" on="0"/>
        <pt x="483" y="12" on="0"/>
        <pt x="498" y="17" on="1"/>
        <pt x="505" y="20" on="0"/>
        <pt x="512" y="23" on="1"/>
        <pt x="505" y="37" on="0"/>
        <pt x="498" y="50" on="1"/>
        <pt x="490" y="62" on="0"/>
        <pt x="478" y="62" on="1"/>
        <pt x="468" y="62" on="0"/>
        <pt x="440" y="46" on="0"/>
        <pt x="405" y="22" on="0"/>
        <pt x="364" y="-6" on="0"/>
        <pt x="320" y="-30" on="0"/>
        <pt x="274" y="-46" on="0"/>
        <pt x="250" y="-46" on="1"/>
        <pt x="207" y="-46" on="0"/>
        <pt x="143" y="-4" on="0"/>
        <pt x="97" y="62" on="0"/>
        <pt x="66" y="146" on="0"/>
        <pt x="48" y="232" on="0"/>
        <pt x="40" y="314" on="0"/>
        <pt x="40" y="345" on="1"/>
        <pt x="40" y="354" on="0"/>
        <pt x="41" y="386" on="0"/>
        <pt x="44" y="422" on="0"/>
        <pt x="52" y="461" on="0"/>
        <pt x="68" y="492" on="0"/>
        <pt x="92" y="512" on="0"/>
        <pt x="109" y="512" on="1"/>
        <pt x="120" y="512" on="0"/>
        <pt x="132" y="500" on="0"/>
        <pt x="134" y="483" on="0"/>
        <pt x="128" y="473" on="1"/>
        <pt x="122" y="462" on="0"/>
        <pt x="109" y="454" on="1"/>
        <pt x="100" y="454" on="0"/>
        <pt x="92" y="428" on="0"/>
        <pt x="88" y="396" on="0"/>
        <pt x="88" y="381" on="1"/>
        <pt x="88" y="363" on="1"/>
        <pt x="88" y="337" on="0"/>
        <pt x="92" y="269" on="0"/>
        <pt x="104" y="196" on="0"/>
        <pt x="127" y="124" on="0"/>
        <pt x="164" y="65" on="0"/>
        <pt x="216" y="26" on="0"/>
        <pt x="253" y="22" on="1"/>
        <pt x="281" y="20" on="0"/>
        <pt x="355" y="45" on="0"/>
        <pt x="419" y="90" on="0"/>
        <pt x="464" y="149" on="0"/>
        <pt x="464" y="181" on="1"/>
        <pt x="464" y="185" on="1"/>
        <pt x="457" y="227" on="0"/>
        <pt x="442" y="284" on="0"/>
        <pt x="431" y="329" on="0"/>
        <pt x="424" y="376" on="0"/>
        <pt x="424" y="410" on="1"/>
        <pt x="427" y="456" on="0"/>
        <pt x="442" y="500" on="0"/>
        <pt x="458" y="506" on="0"/>
        <pt x="476" y="477" on="0"/>
        <pt x="490" y="424" on="0"/>
        <pt x="496" y="351" on="0"/>
        <pt x="495" y="310" on="1"/>
        <pt x="496" y="280" on="0"/>
        <pt x="517" y="208" on="0"/>
        <pt x="543" y="136" on="0"/>
        <pt x="570" y="68" on="0"/>
        <pt x="584" y="16" on="0"/>
        <pt x="578" y="-16" on="0"/>
        <pt x="560" y="-16" on="1"/>
        <pt x="550" y="-16" on="0"/>
        <pt x="541" y="-12" on="1"/>
        <pt x="495" y="-32" on="0"/>
        <pt x="477" y="-51" on="1"/>
        <pt x="456" y="-75" on="0"/>
        <pt x="478" y="-113" on="0"/>
        <pt x="556" y="-135" on="0"/>
        <pt x="616" y="-131" on="1"/>
      </contour>
    </TTGlyph>
    <TTGlyph name="Uring" xMin="28" yMin="-1" xMax="569" yMax="738">
      <component glyphName="U" x="0" y="0" flags="0x1204"/>
      <component glyphName="ring" x="94" y="154" flags="0x1004"/>
    </TTGlyph>
    <TTGlyph name="Utilde" xMin="28" yMin="-1" xMax="569" yMax="709">
      <component glyphName="U" x="0" y="0" flags="0x1204"/>
      <component glyphName="tilde" x="98" y="154" flags="0x1004"/>
    </TTGlyph>
    <TTGlyph name="V" xMin="19" yMin="-1" xMax="405" yMax="530">
      <contour>
        <pt x="19" y="514" on="1"/>
        <pt x="19" y="525" on="0"/>
        <pt x="34" y="530" on="0"/>
        <pt x="42" y="530" on="1"/>
        <pt x="61" y="530" on="0"/>
        <pt x="93" y="486" on="0"/>
        <pt x="120" y="427" on="0"/>
        <pt x="141" y="368" on="0"/>
        <pt x="149" y="352" on="1"/>
        <pt x="152" y="346" on="0"/>
        <pt x="170" y="308" on="0"/>
        <pt x="193" y="256" on="0"/>
        <pt x="218" y="199" on="0"/>
        <pt x="242" y="147" on="0"/>
        <pt x="258" y="108" on="0"/>
        <pt x="261" y="102" on="1"/>
        <pt x="267" y="108" on="0"/>
        <pt x="280" y="152" on="0"/>
        <pt x="295" y="217" on="0"/>
        <pt x="309" y="294" on="0"/>
        <pt x="324" y="373" on="0"/>
        <pt x="340" y="446" on="0"/>
        <pt x="356" y="502" on="0"/>
        <pt x="371" y="533" on="0"/>
        <pt x="379" y="530" on="1"/>
        <pt x="394" y="534" on="0"/>
        <pt x="406" y="497" on="0"/>
        <pt x="404" y="430" on="0"/>
        <pt x="390" y="338" on="0"/>
        <pt x="367" y="241" on="0"/>
        <pt x="338" y="143" on="0"/>
        <pt x="304" y="63" on="0"/>
        <pt x="270" y="7" on="0"/>
        <pt x="254" y="-1" on="1"/>
        <pt x="252" y="-1" on="0"/>
        <pt x="242" y="0" on="0"/>
        <pt x="241" y="0" on="1"/>
        <pt x="236" y="10" on="0"/>
        <pt x="210" y="59" on="0"/>
        <pt x="182" y="114" on="0"/>
        <pt x="170" y="138" on="1"/>
        <pt x="158" y="162" on="0"/>
        <pt x="154" y="172" on="1"/>
        <pt x="148" y="185" on="0"/>
        <pt x="123" y="239" on="0"/>
        <pt x="93" y="306" on="0"/>
        <pt x="62" y="380" on="0"/>
        <pt x="35" y="447" on="0"/>
        <pt x="19" y="500" on="0"/>
      </contour>
    </TTGlyph>
    <TTGlyph name="W" xMin="10" yMin="0" xMax="701" yMax="510">
      <contour>
        <pt x="332" y="116" on="1"/>
        <pt x="331" y="116" on="0"/>
        <pt x="330" y="116" on="0"/>
        <pt x="329" y="116" on="1"/>
        <pt x="327" y="116" on="1"/>
        <pt x="283" y="76" on="0"/>
        <pt x="229" y="32" on="0"/>
        <pt x="197" y="11" on="0"/>
        <pt x="183" y="8" on="0"/>
        <pt x="180" y="8" on="1"/>
        <pt x="142" y="8" on="0"/>
        <pt x="87" y="51" on="0"/>
        <pt x="50" y="119" on="0"/>
        <pt x="27" y="206" on="0"/>
        <pt x="15" y="292" on="0"/>
        <pt x="10" y="368" on="0"/>
        <pt x="10" y="394" on="1"/>
        <pt x="10" y="397" on="0"/>
        <pt x="10" y="434" on="0"/>
        <pt x="16" y="476" on="0"/>
        <pt x="24" y="493" on="1"/>
        <pt x="34" y="510" on="0"/>
        <pt x="50" y="510" on="1"/>
        <pt x="57" y="510" on="0"/>
        <pt x="63" y="472" on="0"/>
        <pt x="68" y="412" on="0"/>
        <pt x="74" y="334" on="0"/>
        <pt x="81" y="252" on="0"/>
        <pt x="94" y="174" on="0"/>
        <pt x="115" y="113" on="0"/>
        <pt x="146" y="76" on="0"/>
        <pt x="168" y="76" on="1"/>
        <pt x="186" y="76" on="0"/>
        <pt x="219" y="96" on="0"/>
        <pt x="247" y="124" on="0"/>
        <pt x="270" y="154" on="0"/>
        <pt x="279" y="164" on="1"/>
        <pt x="285" y="178" on="0"/>
        <pt x="290" y="214" on="0"/>
        <pt x="291" y="252" on="0"/>
        <pt x="290" y="286" on="0"/>
        <pt x="289" y="298" on="1"/>
        <pt x="294" y="312" on="0"/>
        <pt x="308" y="323" on="0"/>
        <pt x="320" y="319" on="0"/>
        <pt x="332" y="302" on="0"/>
        <pt x="337" y="288" on="1"/>
        <pt x="342" y="256" on="0"/>
        <pt x="368" y="178" on="0"/>
        <pt x="411" y="111" on="0"/>
        <pt x="473" y="66" on="0"/>
        <pt x="514" y="66" on="1"/>
        <pt x="536" y="66" on="0"/>
        <pt x="583" y="84" on="0"/>
        <pt x="620" y="116" on="0"/>
        <pt x="644" y="158" on="0"/>
        <pt x="644" y="182" on="1"/>
        <pt x="644" y="220" on="0"/>
        <pt x="620" y="292" on="0"/>
        <pt x="590" y="363" on="0"/>
        <pt x="566" y="434" on="0"/>
        <pt x="566" y="471" on="1"/>
        <pt x="579" y="499" on="0"/>
        <pt x="610" y="490" on="0"/>
        <pt x="641" y="440" on="0"/>
        <pt x="669" y="361" on="0"/>
        <pt x="691" y="280" on="0"/>
        <pt x="702" y="209" on="0"/>
        <pt x="701" y="192" on="1"/>
        <pt x="701" y="154" on="0"/>
        <pt x="669" y="86" on="0"/>
        <pt x="614" y="32" on="0"/>
        <pt x="543" y="0" on="0"/>
        <pt x="505" y="0" on="1"/>
        <pt x="475" y="0" on="0"/>
        <pt x="418" y="36" on="0"/>
        <pt x="373" y="80" on="0"/>
        <pt x="340" y="116" on="0"/>
      </contour>
    </TTGlyph>
    <TTGlyph name="Wacute" xMin="10" yMin="0" xMax="701" yMax="716">
      <component glyphName="W" x="0" y="0" flags="0x1204"/>
      <component glyphName="acute" x="253" y="154" flags="0x1004"/>
    </TTGlyph>
    <TTGlyph name="Wcircumflex" xMin="10" yMin="0" xMax="701" yMax="903">
      <component glyphName="W" x="0" y="0" flags="0x1204"/>
      <component glyphName="circumflex" x="171" y="154" flags="0x1004"/>
    </TTGlyph>
    <TTGlyph name="Wdieresis" xMin="10" yMin="0" xMax="701" yMax="692">
      <component glyphName="W" x="0" y="0" flags="0x1204"/>
      <component glyphName="dieresis" x="159" y="154" flags="0x1004"/>
    </TTGlyph>
    <TTGlyph name="Wgrave" xMin="10" yMin="0" xMax="701" yMax="722">
      <component glyphName="W" x="0" y="0" flags="0x1204"/>
      <component glyphName="grave" x="284" y="154" flags="0x1004"/>
    </TTGlyph>
    <TTGlyph name="X" xMin="20" yMin="-62" xMax="539" yMax="538">
      <contour>
        <pt x="20" y="-31" on="1"/>
        <pt x="20" y="6" on="0"/>
        <pt x="59" y="88" on="0"/>
        <pt x="116" y="171" on="0"/>
        <pt x="178" y="247" on="0"/>
        <pt x="202" y="277" on="1"/>
        <pt x="202" y="293" on="0"/>
        <pt x="185" y="332" on="0"/>
        <pt x="159" y="373" on="0"/>
        <pt x="129" y="416" on="0"/>
        <pt x="103" y="457" on="0"/>
        <pt x="86" y="496" on="0"/>
        <pt x="86" y="514" on="1"/>
        <pt x="86" y="526" on="0"/>
        <pt x="93" y="538" on="0"/>
        <pt x="106" y="538" on="1"/>
        <pt x="111" y="537" on="0"/>
        <pt x="130" y="513" on="0"/>
        <pt x="153" y="477" on="0"/>
        <pt x="178" y="435" on="0"/>
        <pt x="200" y="396" on="0"/>
        <pt x="218" y="367" on="0"/>
        <pt x="222" y="362" on="1"/>
        <pt x="232" y="344" on="0"/>
        <pt x="253" y="328" on="0"/>
        <pt x="292" y="347" on="0"/>
        <pt x="362" y="407" on="0"/>
        <pt x="420" y="465" on="1"/>
        <pt x="427" y="471" on="0"/>
        <pt x="463" y="493" on="0"/>
        <pt x="502" y="506" on="0"/>
        <pt x="536" y="502" on="0"/>
        <pt x="539" y="482" on="1"/>
        <pt x="507" y="462" on="0"/>
        <pt x="436" y="412" on="0"/>
        <pt x="367" y="355" on="0"/>
        <pt x="303" y="295" on="0"/>
        <pt x="280" y="266" on="1"/>
        <pt x="289" y="241" on="0"/>
        <pt x="332" y="178" on="0"/>
        <pt x="381" y="114" on="0"/>
        <pt x="427" y="55" on="0"/>
        <pt x="450" y="13" on="0"/>
        <pt x="442" y="-6" on="0"/>
        <pt x="412" y="2" on="1"/>
        <pt x="386" y="22" on="0"/>
        <pt x="340" y="76" on="0"/>
        <pt x="298" y="133" on="0"/>
        <pt x="254" y="188" on="0"/>
        <pt x="231" y="209" on="1"/>
        <pt x="226" y="209" on="1"/>
        <pt x="220" y="209" on="0"/>
        <pt x="200" y="190" on="0"/>
        <pt x="177" y="162" on="0"/>
        <pt x="152" y="127" on="0"/>
        <pt x="128" y="92" on="0"/>
        <pt x="120" y="78" on="1"/>
        <pt x="110" y="64" on="0"/>
        <pt x="106" y="56" on="1"/>
        <pt x="100" y="49" on="0"/>
        <pt x="84" y="12" on="0"/>
        <pt x="66" y="-28" on="0"/>
        <pt x="46" y="-60" on="0"/>
        <pt x="39" y="-62" on="1"/>
        <pt x="27" y="-62" on="0"/>
        <pt x="20" y="-45" on="0"/>
      </contour>
    </TTGlyph>
    <TTGlyph name="Y" xMin="18" yMin="-16" xMax="394" yMax="658">
      <contour>
        <pt x="202" y="4" on="1"/>
        <pt x="202" y="7" on="0"/>
        <pt x="202" y="22" on="0"/>
        <pt x="202" y="39" on="0"/>
        <pt x="202" y="54" on="0"/>
        <pt x="202" y="57" on="1"/>
        <pt x="202" y="100" on="0"/>
        <pt x="211" y="167" on="0"/>
        <pt x="226" y="231" on="0"/>
        <pt x="248" y="298" on="0"/>
        <pt x="260" y="340" on="1"/>
        <pt x="260" y="342" on="0"/>
        <pt x="261" y="353" on="0"/>
        <pt x="261" y="355" on="1"/>
        <pt x="263" y="356" on="0"/>
        <pt x="224" y="374" on="0"/>
        <pt x="168" y="407" on="0"/>
        <pt x="102" y="457" on="0"/>
        <pt x="47" y="523" on="0"/>
        <pt x="14" y="605" on="0"/>
        <pt x="18" y="655" on="1"/>
        <pt x="19" y="655" on="0"/>
        <pt x="28" y="656" on="0"/>
        <pt x="39" y="657" on="0"/>
        <pt x="44" y="658" on="1"/>
        <pt x="50" y="658" on="1"/>
        <pt x="57" y="638" on="0"/>
        <pt x="81" y="588" on="0"/>
        <pt x="116" y="536" on="0"/>
        <pt x="158" y="487" on="0"/>
        <pt x="205" y="448" on="0"/>
        <pt x="256" y="425" on="0"/>
        <pt x="283" y="425" on="1"/>
        <pt x="301" y="465" on="0"/>
        <pt x="322" y="512" on="0"/>
        <pt x="334" y="538" on="0"/>
        <pt x="338" y="551" on="0"/>
        <pt x="340" y="566" on="0"/>
        <pt x="342" y="587" on="0"/>
        <pt x="346" y="609" on="1"/>
        <pt x="346" y="613" on="0"/>
        <pt x="362" y="622" on="0"/>
        <pt x="379" y="624" on="0"/>
        <pt x="394" y="618" on="0"/>
        <pt x="394" y="609" on="1"/>
        <pt x="394" y="554" on="0"/>
        <pt x="370" y="455" on="0"/>
        <pt x="334" y="361" on="0"/>
        <pt x="294" y="268" on="0"/>
        <pt x="264" y="170" on="0"/>
        <pt x="251" y="64" on="0"/>
        <pt x="260" y="4" on="1"/>
        <pt x="254" y="-7" on="0"/>
        <pt x="242" y="-16" on="0"/>
        <pt x="232" y="-16" on="1"/>
        <pt x="222" y="-16" on="0"/>
        <pt x="208" y="-7" on="0"/>
      </contour>
    </TTGlyph>
    <TTGlyph name="Yacute" xMin="18" yMin="-16" xMax="394" yMax="849">
      <component glyphName="Y" x="0" y="0" flags="0x1204"/>
      <component glyphName="acute" x="172" y="286" flags="0x1004"/>
    </TTGlyph>
    <TTGlyph name="Ycircumflex" xMin="18" yMin="-16" xMax="394" yMax="903">
      <component glyphName="Y" x="0" y="0" flags="0x1204"/>
      <component glyphName="circumflex" x="18" y="154" flags="0x1004"/>
    </TTGlyph>
    <TTGlyph name="Ydieresis" xMin="18" yMin="-16" xMax="394" yMax="781">
      <component glyphName="Y" x="0" y="0" flags="0x1204"/>
      <component glyphName="dieresis" x="11" y="243" flags="0x1004"/>
    </TTGlyph>
    <TTGlyph name="Ygrave" xMin="18" yMin="-16" xMax="394" yMax="829">
      <component glyphName="Y" x="0" y="0" flags="0x1204"/>
      <component glyphName="grave" x="116" y="261" flags="0x1004"/>
    </TTGlyph>
    <TTGlyph name="Z" xMin="17" yMin="-1" xMax="568" yMax="634">
      <contour>
        <pt x="172" y="72" on="1"/>
        <pt x="172" y="97" on="0"/>
        <pt x="202" y="141" on="0"/>
        <pt x="238" y="183" on="0"/>
        <pt x="268" y="224" on="0"/>
        <pt x="268" y="245" on="1"/>
        <pt x="268" y="250" on="1"/>
        <pt x="267" y="252" on="0"/>
        <pt x="264" y="259" on="1"/>
        <pt x="262" y="266" on="0"/>
        <pt x="260" y="268" on="1"/>
        <pt x="258" y="268" on="0"/>
        <pt x="248" y="268" on="0"/>
        <pt x="237" y="269" on="0"/>
        <pt x="227" y="269" on="0"/>
        <pt x="226" y="269" on="1"/>
        <pt x="197" y="269" on="0"/>
        <pt x="140" y="257" on="0"/>
        <pt x="110" y="257" on="1"/>
        <pt x="110" y="271" on="0"/>
        <pt x="119" y="302" on="0"/>
        <pt x="134" y="308" on="1"/>
        <pt x="167" y="318" on="0"/>
        <pt x="226" y="326" on="0"/>
        <pt x="274" y="334" on="0"/>
        <pt x="313" y="345" on="0"/>
        <pt x="341" y="371" on="0"/>
        <pt x="359" y="418" on="0"/>
        <pt x="363" y="457" on="1"/>
        <pt x="363" y="493" on="0"/>
        <pt x="328" y="542" on="0"/>
        <pt x="274" y="573" on="0"/>
        <pt x="210" y="586" on="0"/>
        <pt x="181" y="586" on="1"/>
        <pt x="157" y="586" on="0"/>
        <pt x="115" y="574" on="0"/>
        <pt x="77" y="559" on="0"/>
        <pt x="44" y="547" on="0"/>
        <pt x="27" y="547" on="1"/>
        <pt x="25" y="547" on="0"/>
        <pt x="19" y="554" on="0"/>
        <pt x="17" y="556" on="1"/>
        <pt x="17" y="562" on="1"/>
        <pt x="17" y="588" on="0"/>
        <pt x="52" y="616" on="0"/>
        <pt x="100" y="632" on="0"/>
        <pt x="149" y="634" on="0"/>
        <pt x="165" y="634" on="1"/>
        <pt x="211" y="634" on="0"/>
        <pt x="301" y="618" on="0"/>
        <pt x="370" y="576" on="0"/>
        <pt x="412" y="504" on="0"/>
        <pt x="412" y="449" on="1"/>
        <pt x="412" y="433" on="0"/>
        <pt x="406" y="411" on="0"/>
        <pt x="399" y="392" on="0"/>
        <pt x="394" y="370" on="0"/>
        <pt x="394" y="356" on="1"/>
        <pt x="394" y="351" on="0"/>
        <pt x="414" y="345" on="0"/>
        <pt x="444" y="342" on="0"/>
        <pt x="479" y="340" on="0"/>
        <pt x="509" y="334" on="0"/>
        <pt x="530" y="322" on="0"/>
        <pt x="530" y="312" on="1"/>
        <pt x="530" y="311" on="0"/>
        <pt x="530" y="310" on="1"/>
        <pt x="529" y="308" on="1"/>
        <pt x="522" y="304" on="0"/>
        <pt x="504" y="294" on="0"/>
        <pt x="484" y="285" on="0"/>
        <pt x="464" y="279" on="0"/>
        <pt x="456" y="279" on="1"/>
        <pt x="452" y="279" on="0"/>
        <pt x="447" y="282" on="0"/>
        <pt x="442" y="285" on="0"/>
        <pt x="438" y="288" on="0"/>
        <pt x="434" y="288" on="1"/>
        <pt x="395" y="288" on="0"/>
        <pt x="338" y="250" on="0"/>
        <pt x="294" y="192" on="0"/>
        <pt x="258" y="124" on="0"/>
        <pt x="241" y="96" on="1"/>
        <pt x="241" y="94" on="0"/>
        <pt x="238" y="83" on="0"/>
        <pt x="238" y="82" on="1"/>
        <pt x="238" y="66" on="0"/>
        <pt x="252" y="57" on="0"/>
        <pt x="267" y="57" on="1"/>
        <pt x="303" y="57" on="0"/>
        <pt x="374" y="73" on="0"/>
        <pt x="443" y="91" on="0"/>
        <pt x="478" y="98" on="1"/>
        <pt x="514" y="106" on="0"/>
        <pt x="548" y="106" on="1"/>
        <pt x="561" y="106" on="0"/>
        <pt x="568" y="92" on="0"/>
        <pt x="568" y="81" on="1"/>
        <pt x="568" y="69" on="0"/>
        <pt x="562" y="55" on="0"/>
        <pt x="548" y="49" on="1"/>
        <pt x="484" y="27" on="0"/>
        <pt x="355" y="-1" on="0"/>
        <pt x="288" y="-1" on="1"/>
        <pt x="284" y="-1" on="0"/>
        <pt x="265" y="-1" on="0"/>
        <pt x="243" y="0" on="0"/>
        <pt x="224" y="0" on="0"/>
        <pt x="221" y="0" on="1"/>
        <pt x="196" y="8" on="0"/>
        <pt x="172" y="47" on="0"/>
      </contour>
    </TTGlyph>
    <TTGlyph name="Zacute" xMin="17" yMin="-1" xMax="568" yMax="870">
      <component glyphName="Z" x="0" y="0" flags="0x1204"/>
      <component glyphName="acute" x="210" y="308" flags="0x1004"/>
    </TTGlyph>
    <TTGlyph name="Zcaron" xMin="17" yMin="-1" xMax="568" yMax="804">
      <component glyphName="Z" x="0" y="0" flags="0x1204"/>
      <component glyphName="caron" x="64" y="182" flags="0x1004"/>
    </TTGlyph>
    <TTGlyph name="Zdotaccent" xMin="17" yMin="-1" xMax="568" yMax="786">
      <component glyphName="Z" x="0" y="0" flags="0x1204"/>
      <component glyphName="dotaccent" x="157" y="224" flags="0x1004"/>
    </TTGlyph>
    <TTGlyph name="a" xMin="19" yMin="0" xMax="490" yMax="511">
      <contour>
        <pt x="19" y="169" on="1"/>
        <pt x="20" y="186" on="0"/>
        <pt x="38" y="230" on="0"/>
        <pt x="76" y="272" on="0"/>
        <pt x="134" y="305" on="0"/>
        <pt x="213" y="319" on="0"/>
        <pt x="314" y="307" on="0"/>
        <pt x="376" y="283" on="1"/>
        <pt x="376" y="284" on="0"/>
        <pt x="376" y="293" on="1"/>
        <pt x="375" y="302" on="1"/>
        <pt x="375" y="328" on="0"/>
        <pt x="345" y="382" on="0"/>
        <pt x="298" y="425" on="0"/>
        <pt x="244" y="452" on="0"/>
        <pt x="219" y="452" on="1"/>
        <pt x="209" y="452" on="0"/>
        <pt x="194" y="446" on="0"/>
        <pt x="180" y="437" on="0"/>
        <pt x="167" y="430" on="0"/>
        <pt x="158" y="430" on="1"/>
        <pt x="156" y="430" on="0"/>
        <pt x="156" y="431" on="1"/>
        <pt x="155" y="432" on="0"/>
        <pt x="154" y="433" on="1"/>
        <pt x="152" y="435" on="0"/>
        <pt x="145" y="441" on="0"/>
        <pt x="145" y="442" on="1"/>
        <pt x="145" y="460" on="0"/>
        <pt x="158" y="486" on="0"/>
        <pt x="181" y="502" on="0"/>
        <pt x="210" y="511" on="0"/>
        <pt x="226" y="511" on="1"/>
        <pt x="266" y="507" on="0"/>
        <pt x="339" y="466" on="0"/>
        <pt x="400" y="404" on="0"/>
        <pt x="446" y="323" on="0"/>
        <pt x="477" y="236" on="0"/>
        <pt x="482" y="192" on="1"/>
        <pt x="488" y="146" on="0"/>
        <pt x="483" y="106" on="1"/>
        <pt x="482" y="106" on="0"/>
        <pt x="472" y="107" on="0"/>
        <pt x="460" y="108" on="0"/>
        <pt x="456" y="109" on="1"/>
        <pt x="451" y="110" on="1"/>
        <pt x="430" y="157" on="0"/>
        <pt x="378" y="215" on="0"/>
        <pt x="327" y="248" on="0"/>
        <pt x="283" y="261" on="0"/>
        <pt x="269" y="264" on="1"/>
        <pt x="254" y="264" on="0"/>
        <pt x="213" y="260" on="0"/>
        <pt x="169" y="250" on="0"/>
        <pt x="124" y="233" on="0"/>
        <pt x="89" y="209" on="0"/>
        <pt x="68" y="176" on="0"/>
        <pt x="68" y="154" on="1"/>
        <pt x="68" y="130" on="0"/>
        <pt x="106" y="97" on="0"/>
        <pt x="160" y="76" on="0"/>
        <pt x="216" y="68" on="0"/>
        <pt x="233" y="68" on="1"/>
        <pt x="261" y="68" on="0"/>
        <pt x="315" y="74" on="0"/>
        <pt x="368" y="82" on="0"/>
        <pt x="420" y="88" on="0"/>
        <pt x="446" y="88" on="1"/>
        <pt x="448" y="88" on="0"/>
        <pt x="458" y="88" on="0"/>
        <pt x="469" y="87" on="0"/>
        <pt x="478" y="87" on="0"/>
        <pt x="480" y="87" on="1"/>
        <pt x="488" y="84" on="0"/>
        <pt x="490" y="72" on="0"/>
        <pt x="490" y="66" on="1"/>
        <pt x="490" y="60" on="0"/>
        <pt x="465" y="46" on="0"/>
        <pt x="425" y="32" on="0"/>
        <pt x="376" y="17" on="0"/>
        <pt x="331" y="7" on="0"/>
        <pt x="292" y="0" on="0"/>
        <pt x="284" y="0" on="1"/>
        <pt x="242" y="0" on="0"/>
        <pt x="148" y="14" on="0"/>
        <pt x="70" y="51" on="0"/>
        <pt x="19" y="117" on="0"/>
      </contour>
    </TTGlyph>
    <TTGlyph name="aacute" xMin="19" yMin="0" xMax="490" yMax="709">
      <component glyphName="a" x="0" y="0" flags="0x1204"/>
      <component glyphName="acute" x="152" y="146" flags="0x1004"/>
    </TTGlyph>
    <TTGlyph name="abreve" xMin="19" yMin="0" xMax="490" yMax="667">
      <component glyphName="a" x="0" y="0" flags="0x1204"/>
      <component glyphName="breve" x="124" y="154" flags="0x1004"/>
    </TTGlyph>
    <TTGlyph name="acircumflex" xMin="19" yMin="0" xMax="490" yMax="749">
      <component glyphName="a" x="0" y="0" flags="0x1204"/>
      <component glyphName="circumflex" x="70" y="0" flags="0x1004"/>
    </TTGlyph>
    <TTGlyph name="acute" xMin="9" yMin="403" xMax="167" yMax="562">
      <contour>
        <pt x="9" y="427" on="1"/>
        <pt x="9" y="448" on="0"/>
        <pt x="41" y="486" on="0"/>
        <pt x="86" y="520" on="0"/>
        <pt x="110" y="535" on="1"/>
        <pt x="132" y="550" on="0"/>
        <pt x="148" y="562" on="1"/>
        <pt x="169" y="552" on="0"/>
        <pt x="164" y="524" on="0"/>
        <pt x="127" y="486" on="0"/>
        <pt x="67" y="436" on="0"/>
        <pt x="34" y="403" on="1"/>
        <pt x="19" y="403" on="0"/>
        <pt x="9" y="413" on="0"/>
      </contour>
    </TTGlyph>
    <TTGlyph name="adieresis" xMin="19" yMin="0" xMax="490" yMax="658">
      <component glyphName="a" x="0" y="0" flags="0x1204"/>
      <component glyphName="dieresis" x="62" y="120" flags="0x1004"/>
    </TTGlyph>
    <TTGlyph name="ae" xMin="19" yMin="-23" xMax="892" yMax="511">
      <contour>
        <pt x="19" y="169" on="1"/>
        <pt x="20" y="186" on="0"/>
        <pt x="38" y="230" on="0"/>
        <pt x="76" y="272" on="0"/>
        <pt x="134" y="305" on="0"/>
        <pt x="213" y="319" on="0"/>
        <pt x="314" y="307" on="0"/>
        <pt x="376" y="283" on="1"/>
        <pt x="376" y="284" on="0"/>
        <pt x="376" y="293" on="1"/>
        <pt x="375" y="302" on="1"/>
        <pt x="375" y="328" on="0"/>
        <pt x="345" y="382" on="0"/>
        <pt x="298" y="425" on="0"/>
        <pt x="244" y="452" on="0"/>
        <pt x="219" y="452" on="1"/>
        <pt x="209" y="452" on="0"/>
        <pt x="194" y="446" on="0"/>
        <pt x="180" y="437" on="0"/>
        <pt x="167" y="430" on="0"/>
        <pt x="158" y="430" on="1"/>
        <pt x="156" y="430" on="0"/>
        <pt x="156" y="431" on="1"/>
        <pt x="155" y="432" on="0"/>
        <pt x="154" y="433" on="1"/>
        <pt x="152" y="435" on="0"/>
        <pt x="145" y="441" on="0"/>
        <pt x="145" y="442" on="1"/>
        <pt x="145" y="460" on="0"/>
        <pt x="158" y="486" on="0"/>
        <pt x="181" y="502" on="0"/>
        <pt x="210" y="511" on="0"/>
        <pt x="226" y="511" on="1"/>
        <pt x="266" y="507" on="0"/>
        <pt x="339" y="466" on="0"/>
        <pt x="400" y="404" on="0"/>
        <pt x="423" y="363" on="1"/>
        <pt x="426" y="357" on="0"/>
        <pt x="430" y="352" on="1"/>
        <pt x="445" y="396" on="0"/>
        <pt x="472" y="428" on="1"/>
        <pt x="502" y="464" on="0"/>
        <pt x="587" y="506" on="0"/>
        <pt x="643" y="506" on="1"/>
        <pt x="676" y="502" on="0"/>
        <pt x="724" y="475" on="0"/>
        <pt x="756" y="434" on="0"/>
        <pt x="770" y="380" on="0"/>
        <pt x="770" y="350" on="1"/>
        <pt x="770" y="314" on="0"/>
        <pt x="727" y="256" on="0"/>
        <pt x="663" y="218" on="0"/>
        <pt x="626" y="207" on="1"/>
        <pt x="588" y="196" on="0"/>
        <pt x="556" y="196" on="1"/>
        <pt x="544" y="196" on="0"/>
        <pt x="520" y="197" on="0"/>
        <pt x="500" y="205" on="0"/>
        <pt x="488" y="221" on="0"/>
        <pt x="488" y="237" on="1"/>
        <pt x="488" y="242" on="0"/>
        <pt x="491" y="249" on="0"/>
        <pt x="505" y="252" on="0"/>
        <pt x="532" y="250" on="0"/>
        <pt x="556" y="245" on="1"/>
        <pt x="570" y="245" on="0"/>
        <pt x="624" y="264" on="0"/>
        <pt x="679" y="294" on="0"/>
        <pt x="719" y="332" on="0"/>
        <pt x="719" y="352" on="1"/>
        <pt x="719" y="372" on="0"/>
        <pt x="706" y="410" on="0"/>
        <pt x="680" y="440" on="0"/>
        <pt x="645" y="458" on="0"/>
        <pt x="623" y="457" on="1"/>
        <pt x="588" y="454" on="0"/>
        <pt x="531" y="422" on="0"/>
        <pt x="490" y="371" on="0"/>
        <pt x="469" y="308" on="0"/>
        <pt x="469" y="275" on="1"/>
        <pt x="469" y="257" on="1"/>
        <pt x="479" y="225" on="0"/>
        <pt x="482" y="191" on="1"/>
        <pt x="485" y="169" on="0"/>
        <pt x="485" y="147" on="1"/>
        <pt x="490" y="135" on="0"/>
        <pt x="498" y="124" on="1"/>
        <pt x="513" y="102" on="0"/>
        <pt x="568" y="66" on="0"/>
        <pt x="652" y="43" on="0"/>
        <pt x="714" y="40" on="1"/>
        <pt x="892" y="52" on="1"/>
        <pt x="876" y="30" on="0"/>
        <pt x="828" y="2" on="0"/>
        <pt x="773" y="-16" on="0"/>
        <pt x="718" y="-23" on="0"/>
        <pt x="695" y="-23" on="1"/>
        <pt x="637" y="-23" on="0"/>
        <pt x="535" y="14" on="0"/>
        <pt x="496" y="49" on="1"/>
        <pt x="486" y="58" on="1"/>
        <pt x="483" y="54" on="0"/>
        <pt x="478" y="52" on="1"/>
        <pt x="465" y="45" on="0"/>
        <pt x="425" y="32" on="0"/>
        <pt x="376" y="17" on="0"/>
        <pt x="331" y="7" on="0"/>
        <pt x="292" y="0" on="0"/>
        <pt x="284" y="0" on="1"/>
        <pt x="242" y="0" on="0"/>
        <pt x="148" y="14" on="0"/>
        <pt x="70" y="51" on="0"/>
        <pt x="19" y="117" on="0"/>
      </contour>
      <contour>
        <pt x="404" y="186" on="1"/>
        <pt x="378" y="215" on="0"/>
        <pt x="327" y="248" on="0"/>
        <pt x="283" y="261" on="0"/>
        <pt x="269" y="264" on="1"/>
        <pt x="254" y="264" on="0"/>
        <pt x="213" y="260" on="0"/>
        <pt x="169" y="250" on="0"/>
        <pt x="124" y="233" on="0"/>
        <pt x="89" y="209" on="0"/>
        <pt x="68" y="176" on="0"/>
        <pt x="68" y="154" on="1"/>
        <pt x="68" y="130" on="0"/>
        <pt x="106" y="97" on="0"/>
        <pt x="160" y="76" on="0"/>
        <pt x="216" y="68" on="0"/>
        <pt x="233" y="68" on="1"/>
        <pt x="261" y="68" on="0"/>
        <pt x="315" y="74" on="0"/>
        <pt x="368" y="82" on="0"/>
        <pt x="420" y="88" on="0"/>
        <pt x="446" y="88" on="1"/>
        <pt x="453" y="88" on="1"/>
        <pt x="457" y="88" on="0"/>
        <pt x="461" y="87" on="1"/>
        <pt x="446" y="110" on="0"/>
        <pt x="434" y="134" on="1"/>
        <pt x="428" y="146" on="0"/>
        <pt x="424" y="158" on="1"/>
        <pt x="414" y="174" on="0"/>
      </contour>
    </TTGlyph>
    <TTGlyph name="aeacute" xMin="19" yMin="-23" xMax="892" yMax="722">
      <component glyphName="ae" x="0" y="0" flags="0x1204"/>
      <component glyphName="acute" x="390" y="160" flags="0x1004"/>
    </TTGlyph>
    <TTGlyph name="agrave" xMin="19" yMin="0" xMax="490" yMax="662">
      <component glyphName="a" x="0" y="0" flags="0x1204"/>
      <component glyphName="grave" x="152" y="94" flags="0x1004"/>
    </TTGlyph>
    <TTGlyph name="amacron" xMin="19" yMin="0" xMax="490" yMax="667">
      <component glyphName="a" x="0" y="0" flags="0x1204"/>
      <component glyphName="macron" x="81" y="114" flags="0x1004"/>
    </TTGlyph>
    <TTGlyph name="ampersand" xMin="10" yMin="-2" xMax="448" yMax="710">
      <contour>
        <pt x="10" y="76" on="1"/>
        <pt x="10" y="127" on="0"/>
        <pt x="46" y="214" on="0"/>
        <pt x="92" y="295" on="0"/>
        <pt x="136" y="376" on="0"/>
        <pt x="145" y="422" on="1"/>
        <pt x="145" y="424" on="0"/>
        <pt x="145" y="442" on="0"/>
        <pt x="145" y="461" on="0"/>
        <pt x="145" y="478" on="0"/>
        <pt x="145" y="480" on="1"/>
        <pt x="145" y="490" on="0"/>
        <pt x="148" y="542" on="0"/>
        <pt x="151" y="601" on="0"/>
        <pt x="154" y="652" on="0"/>
        <pt x="154" y="663" on="1"/>
        <pt x="154" y="667" on="0"/>
        <pt x="159" y="682" on="0"/>
        <pt x="166" y="697" on="0"/>
        <pt x="177" y="709" on="0"/>
        <pt x="183" y="710" on="1"/>
        <pt x="207" y="714" on="0"/>
        <pt x="241" y="694" on="0"/>
        <pt x="261" y="660" on="0"/>
        <pt x="266" y="640" on="1"/>
        <pt x="270" y="620" on="0"/>
        <pt x="270" y="602" on="1"/>
        <pt x="270" y="570" on="0"/>
        <pt x="262" y="519" on="0"/>
        <pt x="244" y="472" on="0"/>
        <pt x="219" y="423" on="0"/>
        <pt x="202" y="394" on="1"/>
        <pt x="202" y="392" on="0"/>
        <pt x="201" y="386" on="0"/>
        <pt x="201" y="384" on="1"/>
        <pt x="201" y="368" on="0"/>
        <pt x="210" y="333" on="0"/>
        <pt x="224" y="298" on="0"/>
        <pt x="242" y="264" on="0"/>
        <pt x="250" y="250" on="1"/>
        <pt x="269" y="250" on="1"/>
        <pt x="279" y="255" on="0"/>
        <pt x="293" y="278" on="0"/>
        <pt x="302" y="308" on="0"/>
        <pt x="306" y="342" on="0"/>
        <pt x="308" y="373" on="0"/>
        <pt x="308" y="398" on="0"/>
        <pt x="308" y="404" on="1"/>
        <pt x="313" y="410" on="0"/>
        <pt x="332" y="414" on="0"/>
        <pt x="350" y="416" on="0"/>
        <pt x="368" y="414" on="0"/>
        <pt x="374" y="414" on="1"/>
        <pt x="386" y="414" on="0"/>
        <pt x="412" y="419" on="0"/>
        <pt x="434" y="418" on="0"/>
        <pt x="448" y="404" on="0"/>
        <pt x="448" y="385" on="1"/>
        <pt x="448" y="375" on="0"/>
        <pt x="441" y="366" on="0"/>
        <pt x="428" y="365" on="1"/>
        <pt x="423" y="364" on="0"/>
        <pt x="407" y="362" on="0"/>
        <pt x="392" y="361" on="0"/>
        <pt x="376" y="359" on="0"/>
        <pt x="371" y="360" on="1"/>
        <pt x="357" y="331" on="0"/>
        <pt x="346" y="284" on="0"/>
        <pt x="337" y="243" on="0"/>
        <pt x="324" y="204" on="0"/>
        <pt x="308" y="183" on="1"/>
        <pt x="308" y="180" on="0"/>
        <pt x="308" y="178" on="1"/>
        <pt x="307" y="176" on="0"/>
        <pt x="307" y="172" on="1"/>
        <pt x="307" y="158" on="0"/>
        <pt x="329" y="117" on="0"/>
        <pt x="358" y="74" on="0"/>
        <pt x="388" y="36" on="0"/>
        <pt x="394" y="26" on="1"/>
        <pt x="390" y="16" on="0"/>
        <pt x="382" y="16" on="1"/>
        <pt x="374" y="14" on="0"/>
        <pt x="364" y="16" on="1"/>
        <pt x="279" y="116" on="1"/>
        <pt x="277" y="116" on="1"/>
        <pt x="275" y="116" on="1"/>
        <pt x="274" y="116" on="1"/>
        <pt x="263" y="116" on="0"/>
        <pt x="243" y="99" on="0"/>
        <pt x="223" y="72" on="0"/>
        <pt x="200" y="42" on="0"/>
        <pt x="170" y="15" on="0"/>
        <pt x="134" y="-2" on="0"/>
        <pt x="110" y="-2" on="1"/>
        <pt x="108" y="-2" on="0"/>
        <pt x="96" y="-2" on="0"/>
        <pt x="82" y="-1" on="0"/>
        <pt x="70" y="0" on="0"/>
        <pt x="68" y="0" on="1"/>
        <pt x="60" y="6" on="0"/>
        <pt x="40" y="24" on="0"/>
        <pt x="22" y="44" on="0"/>
        <pt x="10" y="66" on="0"/>
      </contour>
      <contour>
        <pt x="67" y="96" on="1"/>
        <pt x="67" y="91" on="0"/>
        <pt x="74" y="74" on="0"/>
        <pt x="84" y="58" on="0"/>
        <pt x="98" y="47" on="0"/>
        <pt x="106" y="49" on="1"/>
        <pt x="120" y="51" on="0"/>
        <pt x="164" y="80" on="0"/>
        <pt x="203" y="117" on="0"/>
        <pt x="232" y="158" on="0"/>
        <pt x="232" y="172" on="1"/>
        <pt x="232" y="187" on="0"/>
        <pt x="218" y="221" on="0"/>
        <pt x="198" y="256" on="0"/>
        <pt x="178" y="292" on="0"/>
        <pt x="173" y="308" on="1"/>
        <pt x="161" y="306" on="0"/>
        <pt x="136" y="275" on="0"/>
        <pt x="112" y="232" on="0"/>
        <pt x="92" y="181" on="0"/>
        <pt x="76" y="135" on="0"/>
        <pt x="67" y="100" on="0"/>
      </contour>
    </TTGlyph>
    <TTGlyph name="aogonek" xMin="19" yMin="-120" xMax="490" yMax="511">
      <contour>
        <pt x="469" y="-120" on="1"/>
        <pt x="417" y="-121" on="0"/>
        <pt x="336" y="-113" on="0"/>
        <pt x="287" y="-86" on="0"/>
        <pt x="281" y="-59" on="1"/>
        <pt x="278" y="-37" on="0"/>
        <pt x="290" y="0" on="1"/>
        <pt x="284" y="0" on="1"/>
        <pt x="242" y="0" on="0"/>
        <pt x="148" y="14" on="0"/>
        <pt x="70" y="51" on="0"/>
        <pt x="19" y="117" on="0"/>
        <pt x="19" y="169" on="1"/>
        <pt x="20" y="186" on="0"/>
        <pt x="38" y="230" on="0"/>
        <pt x="76" y="272" on="0"/>
        <pt x="134" y="305" on="0"/>
        <pt x="213" y="319" on="0"/>
        <pt x="314" y="307" on="0"/>
        <pt x="376" y="283" on="1"/>
        <pt x="376" y="284" on="0"/>
        <pt x="376" y="293" on="1"/>
        <pt x="375" y="302" on="1"/>
        <pt x="375" y="328" on="0"/>
        <pt x="345" y="382" on="0"/>
        <pt x="298" y="425" on="0"/>
        <pt x="244" y="452" on="0"/>
        <pt x="219" y="452" on="1"/>
        <pt x="209" y="452" on="0"/>
        <pt x="194" y="446" on="0"/>
        <pt x="180" y="437" on="0"/>
        <pt x="167" y="430" on="0"/>
        <pt x="158" y="430" on="1"/>
        <pt x="156" y="430" on="0"/>
        <pt x="156" y="431" on="1"/>
        <pt x="155" y="432" on="0"/>
        <pt x="154" y="433" on="1"/>
        <pt x="152" y="435" on="0"/>
        <pt x="145" y="441" on="0"/>
        <pt x="145" y="442" on="1"/>
        <pt x="145" y="460" on="0"/>
        <pt x="158" y="486" on="0"/>
        <pt x="181" y="502" on="0"/>
        <pt x="210" y="511" on="0"/>
        <pt x="226" y="511" on="1"/>
        <pt x="266" y="507" on="0"/>
        <pt x="339" y="466" on="0"/>
        <pt x="400" y="404" on="0"/>
        <pt x="446" y="323" on="0"/>
        <pt x="477" y="236" on="0"/>
        <pt x="482" y="192" on="1"/>
        <pt x="488" y="146" on="0"/>
        <pt x="483" y="106" on="1"/>
        <pt x="482" y="106" on="0"/>
        <pt x="472" y="107" on="0"/>
        <pt x="460" y="108" on="0"/>
        <pt x="455" y="109" on="1"/>
        <pt x="451" y="110" on="1"/>
        <pt x="430" y="157" on="0"/>
        <pt x="378" y="215" on="0"/>
        <pt x="327" y="248" on="0"/>
        <pt x="283" y="261" on="0"/>
        <pt x="269" y="264" on="1"/>
        <pt x="254" y="264" on="0"/>
        <pt x="213" y="260" on="0"/>
        <pt x="169" y="250" on="0"/>
        <pt x="124" y="233" on="0"/>
        <pt x="89" y="209" on="0"/>
        <pt x="68" y="176" on="0"/>
        <pt x="68" y="154" on="1"/>
        <pt x="68" y="130" on="0"/>
        <pt x="106" y="97" on="0"/>
        <pt x="160" y="76" on="0"/>
        <pt x="216" y="68" on="0"/>
        <pt x="233" y="68" on="1"/>
        <pt x="261" y="68" on="0"/>
        <pt x="315" y="74" on="0"/>
        <pt x="368" y="82" on="0"/>
        <pt x="420" y="88" on="0"/>
        <pt x="446" y="88" on="1"/>
        <pt x="453" y="88" on="1"/>
        <pt x="458" y="88" on="0"/>
        <pt x="469" y="87" on="0"/>
        <pt x="473" y="87" on="1"/>
        <pt x="480" y="87" on="1"/>
        <pt x="488" y="84" on="0"/>
        <pt x="490" y="72" on="0"/>
        <pt x="490" y="66" on="1"/>
        <pt x="490" y="60" on="0"/>
        <pt x="465" y="46" on="0"/>
        <pt x="445" y="39" on="1"/>
        <pt x="424" y="32" on="0"/>
        <pt x="400" y="24" on="1"/>
        <pt x="376" y="17" on="1"/>
        <pt x="355" y="5" on="0"/>
        <pt x="345" y="-6" on="1"/>
        <pt x="324" y="-30" on="0"/>
        <pt x="346" y="-68" on="0"/>
        <pt x="424" y="-90" on="0"/>
        <pt x="484" y="-86" on="1"/>
      </contour>
    </TTGlyph>
    <TTGlyph name="aring" xMin="19" yMin="0" xMax="490" yMax="668">
      <contour>
        <pt x="162" y="579" on="1"/>
        <pt x="162" y="601" on="0"/>
        <pt x="182" y="634" on="0"/>
        <pt x="214" y="656" on="0"/>
        <pt x="254" y="668" on="0"/>
        <pt x="274" y="668" on="1"/>
        <pt x="290" y="668" on="0"/>
        <pt x="318" y="650" on="0"/>
        <pt x="338" y="625" on="0"/>
        <pt x="350" y="596" on="0"/>
        <pt x="350" y="583" on="1"/>
        <pt x="350" y="563" on="0"/>
        <pt x="332" y="530" on="0"/>
        <pt x="304" y="508" on="0"/>
        <pt x="286" y="502" on="1"/>
        <pt x="281" y="500" on="0"/>
        <pt x="276" y="499" on="1"/>
        <pt x="290" y="493" on="0"/>
        <pt x="303" y="486" on="1"/>
        <pt x="339" y="466" on="0"/>
        <pt x="400" y="404" on="0"/>
        <pt x="446" y="323" on="0"/>
        <pt x="477" y="236" on="0"/>
        <pt x="482" y="192" on="1"/>
        <pt x="488" y="146" on="0"/>
        <pt x="483" y="106" on="1"/>
        <pt x="482" y="106" on="0"/>
        <pt x="472" y="107" on="0"/>
        <pt x="460" y="108" on="0"/>
        <pt x="455" y="109" on="1"/>
        <pt x="451" y="110" on="1"/>
        <pt x="430" y="157" on="0"/>
        <pt x="378" y="215" on="0"/>
        <pt x="327" y="248" on="0"/>
        <pt x="283" y="261" on="0"/>
        <pt x="269" y="264" on="1"/>
        <pt x="254" y="264" on="0"/>
        <pt x="213" y="260" on="0"/>
        <pt x="169" y="250" on="0"/>
        <pt x="124" y="233" on="0"/>
        <pt x="89" y="209" on="0"/>
        <pt x="68" y="176" on="0"/>
        <pt x="68" y="154" on="1"/>
        <pt x="68" y="130" on="0"/>
        <pt x="106" y="97" on="0"/>
        <pt x="160" y="76" on="0"/>
        <pt x="216" y="68" on="0"/>
        <pt x="233" y="68" on="1"/>
        <pt x="261" y="68" on="0"/>
        <pt x="315" y="74" on="0"/>
        <pt x="368" y="82" on="0"/>
        <pt x="420" y="88" on="0"/>
        <pt x="446" y="88" on="1"/>
        <pt x="453" y="88" on="1"/>
        <pt x="458" y="88" on="0"/>
        <pt x="469" y="87" on="0"/>
        <pt x="473" y="87" on="1"/>
        <pt x="480" y="87" on="1"/>
        <pt x="488" y="84" on="0"/>
        <pt x="490" y="72" on="0"/>
        <pt x="490" y="66" on="1"/>
        <pt x="490" y="60" on="0"/>
        <pt x="465" y="46" on="0"/>
        <pt x="425" y="32" on="0"/>
        <pt x="376" y="17" on="0"/>
        <pt x="331" y="7" on="0"/>
        <pt x="292" y="0" on="0"/>
        <pt x="284" y="0" on="1"/>
        <pt x="242" y="0" on="0"/>
        <pt x="148" y="14" on="0"/>
        <pt x="70" y="51" on="0"/>
        <pt x="19" y="117" on="0"/>
        <pt x="19" y="169" on="1"/>
        <pt x="20" y="186" on="0"/>
        <pt x="38" y="230" on="0"/>
        <pt x="76" y="272" on="0"/>
        <pt x="134" y="305" on="0"/>
        <pt x="213" y="319" on="0"/>
        <pt x="314" y="307" on="0"/>
        <pt x="376" y="283" on="1"/>
        <pt x="376" y="284" on="0"/>
        <pt x="376" y="293" on="1"/>
        <pt x="375" y="302" on="1"/>
        <pt x="375" y="328" on="0"/>
        <pt x="345" y="382" on="0"/>
        <pt x="298" y="425" on="0"/>
        <pt x="244" y="452" on="0"/>
        <pt x="219" y="452" on="1"/>
        <pt x="209" y="452" on="0"/>
        <pt x="194" y="446" on="0"/>
        <pt x="180" y="437" on="0"/>
        <pt x="167" y="430" on="0"/>
        <pt x="158" y="430" on="1"/>
        <pt x="156" y="430" on="0"/>
        <pt x="156" y="431" on="1"/>
        <pt x="155" y="432" on="0"/>
        <pt x="154" y="433" on="1"/>
        <pt x="152" y="435" on="0"/>
        <pt x="145" y="441" on="0"/>
        <pt x="145" y="442" on="1"/>
        <pt x="145" y="460" on="0"/>
        <pt x="158" y="486" on="0"/>
        <pt x="181" y="502" on="0"/>
        <pt x="195" y="506" on="1"/>
        <pt x="201" y="508" on="1"/>
        <pt x="193" y="512" on="0"/>
        <pt x="187" y="518" on="1"/>
        <pt x="162" y="541" on="0"/>
      </contour>
      <contour>
        <pt x="194" y="578" on="1"/>
        <pt x="194" y="553" on="0"/>
        <pt x="224" y="528" on="0"/>
        <pt x="250" y="528" on="1"/>
        <pt x="257" y="527" on="0"/>
        <pt x="279" y="536" on="0"/>
        <pt x="300" y="550" on="0"/>
        <pt x="315" y="572" on="0"/>
        <pt x="314" y="596" on="0"/>
        <pt x="292" y="621" on="0"/>
        <pt x="266" y="632" on="1"/>
        <pt x="252" y="632" on="0"/>
        <pt x="226" y="627" on="0"/>
        <pt x="206" y="614" on="0"/>
        <pt x="194" y="594" on="0"/>
      </contour>
    </TTGlyph>
    <TTGlyph name="asciicircum" xMin="50" yMin="538" xMax="328" yMax="749">
      <contour>
        <pt x="192" y="634" on="1"/>
        <pt x="173" y="610" on="0"/>
        <pt x="130" y="563" on="0"/>
        <pt x="91" y="538" on="0"/>
        <pt x="58" y="544" on="0"/>
        <pt x="50" y="572" on="1"/>
        <pt x="78" y="598" on="0"/>
        <pt x="118" y="630" on="0"/>
        <pt x="145" y="662" on="0"/>
        <pt x="164" y="704" on="0"/>
        <pt x="172" y="740" on="1"/>
        <pt x="174" y="748" on="0"/>
        <pt x="187" y="749" on="0"/>
        <pt x="193" y="749" on="1"/>
        <pt x="207" y="749" on="0"/>
        <pt x="221" y="736" on="0"/>
        <pt x="230" y="721" on="1"/>
        <pt x="236" y="711" on="0"/>
        <pt x="258" y="686" on="0"/>
        <pt x="281" y="659" on="0"/>
        <pt x="302" y="634" on="0"/>
        <pt x="308" y="626" on="1"/>
        <pt x="315" y="615" on="0"/>
        <pt x="322" y="601" on="0"/>
        <pt x="326" y="590" on="0"/>
        <pt x="328" y="578" on="0"/>
        <pt x="328" y="568" on="1"/>
        <pt x="328" y="554" on="0"/>
        <pt x="322" y="538" on="0"/>
        <pt x="308" y="538" on="1"/>
        <pt x="293" y="538" on="0"/>
        <pt x="268" y="560" on="0"/>
        <pt x="242" y="590" on="0"/>
        <pt x="211" y="623" on="0"/>
      </contour>
    </TTGlyph>
    <TTGlyph name="asciitilde" xMin="23" yMin="408" xMax="381" yMax="555">
      <contour>
        <pt x="291" y="449" on="1"/>
        <pt x="265" y="439" on="0"/>
        <pt x="224" y="449" on="0"/>
        <pt x="187" y="473" on="0"/>
        <pt x="151" y="502" on="0"/>
        <pt x="130" y="512" on="1"/>
        <pt x="102" y="514" on="0"/>
        <pt x="75" y="491" on="0"/>
        <pt x="65" y="458" on="0"/>
        <pt x="66" y="424" on="0"/>
        <pt x="62" y="406" on="0"/>
        <pt x="48" y="411" on="0"/>
        <pt x="28" y="435" on="1"/>
        <pt x="20" y="459" on="0"/>
        <pt x="27" y="502" on="0"/>
        <pt x="51" y="533" on="0"/>
        <pt x="70" y="543" on="1"/>
        <pt x="88" y="554" on="0"/>
        <pt x="109" y="554" on="1"/>
        <pt x="111" y="555" on="0"/>
        <pt x="122" y="554" on="0"/>
        <pt x="146" y="546" on="0"/>
        <pt x="185" y="526" on="0"/>
        <pt x="217" y="507" on="1"/>
        <pt x="236" y="496" on="0"/>
        <pt x="258" y="494" on="0"/>
        <pt x="274" y="500" on="1"/>
        <pt x="278" y="502" on="0"/>
        <pt x="290" y="506" on="0"/>
        <pt x="290" y="507" on="1"/>
        <pt x="351" y="555" on="1"/>
        <pt x="363" y="554" on="0"/>
        <pt x="376" y="546" on="0"/>
        <pt x="381" y="536" on="0"/>
        <pt x="380" y="526" on="0"/>
        <pt x="376" y="523" on="1"/>
        <pt x="349" y="501" on="0"/>
        <pt x="320" y="473" on="0"/>
        <pt x="306" y="459" on="0"/>
        <pt x="303" y="454" on="0"/>
        <pt x="302" y="452" on="0"/>
        <pt x="299" y="451" on="0"/>
      </contour>
    </TTGlyph>
    <TTGlyph name="asterisk" xMin="19" yMin="230" xMax="394" yMax="625">
      <contour>
        <pt x="183" y="404" on="1"/>
        <pt x="182" y="404" on="0"/>
        <pt x="177" y="399" on="0"/>
        <pt x="171" y="393" on="0"/>
        <pt x="168" y="390" on="1"/>
        <pt x="166" y="386" on="0"/>
        <pt x="164" y="384" on="1"/>
        <pt x="160" y="380" on="0"/>
        <pt x="143" y="356" on="0"/>
        <pt x="125" y="328" on="0"/>
        <pt x="109" y="303" on="0"/>
        <pt x="106" y="298" on="1"/>
        <pt x="104" y="296" on="0"/>
        <pt x="96" y="293" on="0"/>
        <pt x="87" y="290" on="0"/>
        <pt x="83" y="289" on="1"/>
        <pt x="78" y="288" on="0"/>
        <pt x="76" y="288" on="1"/>
        <pt x="72" y="288" on="0"/>
        <pt x="68" y="294" on="0"/>
        <pt x="66" y="302" on="0"/>
        <pt x="66" y="310" on="0"/>
        <pt x="66" y="312" on="1"/>
        <pt x="66" y="326" on="0"/>
        <pt x="74" y="350" on="0"/>
        <pt x="83" y="372" on="0"/>
        <pt x="92" y="396" on="0"/>
        <pt x="92" y="410" on="1"/>
        <pt x="82" y="410" on="0"/>
        <pt x="70" y="407" on="0"/>
        <pt x="61" y="405" on="0"/>
        <pt x="51" y="403" on="0"/>
        <pt x="42" y="403" on="1"/>
        <pt x="38" y="403" on="0"/>
        <pt x="28" y="404" on="0"/>
        <pt x="21" y="407" on="0"/>
        <pt x="19" y="411" on="1"/>
        <pt x="18" y="415" on="0"/>
        <pt x="20" y="422" on="1"/>
        <pt x="22" y="431" on="0"/>
        <pt x="39" y="446" on="0"/>
        <pt x="62" y="456" on="0"/>
        <pt x="84" y="461" on="0"/>
        <pt x="92" y="461" on="1"/>
        <pt x="100" y="461" on="0"/>
        <pt x="106" y="455" on="0"/>
        <pt x="110" y="447" on="0"/>
        <pt x="114" y="441" on="0"/>
        <pt x="120" y="441" on="1"/>
        <pt x="123" y="441" on="1"/>
        <pt x="124" y="441" on="0"/>
        <pt x="125" y="442" on="1"/>
        <pt x="127" y="444" on="0"/>
        <pt x="134" y="450" on="0"/>
        <pt x="134" y="452" on="1"/>
        <pt x="134" y="470" on="0"/>
        <pt x="105" y="501" on="0"/>
        <pt x="71" y="530" on="0"/>
        <pt x="45" y="554" on="0"/>
        <pt x="49" y="567" on="1"/>
        <pt x="50" y="569" on="0"/>
        <pt x="64" y="583" on="0"/>
        <pt x="68" y="586" on="1"/>
        <pt x="70" y="586" on="1"/>
        <pt x="71" y="586" on="1"/>
        <pt x="72" y="586" on="1"/>
        <pt x="72" y="585" on="0"/>
        <pt x="73" y="586" on="1"/>
        <pt x="74" y="586" on="1"/>
        <pt x="76" y="586" on="1"/>
        <pt x="172" y="529" on="1"/>
        <pt x="170" y="534" on="0"/>
        <pt x="171" y="551" on="0"/>
        <pt x="175" y="567" on="0"/>
        <pt x="184" y="578" on="0"/>
        <pt x="193" y="578" on="1"/>
        <pt x="195" y="578" on="0"/>
        <pt x="202" y="577" on="0"/>
        <pt x="202" y="576" on="1"/>
        <pt x="230" y="529" on="1"/>
        <pt x="244" y="538" on="0"/>
        <pt x="280" y="568" on="0"/>
        <pt x="320" y="598" on="0"/>
        <pt x="362" y="622" on="0"/>
        <pt x="384" y="625" on="1"/>
        <pt x="390" y="617" on="0"/>
        <pt x="394" y="604" on="0"/>
        <pt x="394" y="596" on="1"/>
        <pt x="394" y="586" on="0"/>
        <pt x="364" y="560" on="0"/>
        <pt x="324" y="532" on="0"/>
        <pt x="286" y="508" on="0"/>
        <pt x="279" y="500" on="1"/>
        <pt x="287" y="501" on="0"/>
        <pt x="315" y="502" on="0"/>
        <pt x="344" y="498" on="0"/>
        <pt x="364" y="489" on="0"/>
        <pt x="364" y="480" on="1"/>
        <pt x="364" y="466" on="0"/>
        <pt x="346" y="455" on="0"/>
        <pt x="325" y="447" on="0"/>
        <pt x="307" y="436" on="0"/>
        <pt x="307" y="423" on="1"/>
        <pt x="307" y="408" on="0"/>
        <pt x="321" y="379" on="0"/>
        <pt x="340" y="350" on="0"/>
        <pt x="350" y="336" on="1"/>
        <pt x="358" y="322" on="0"/>
        <pt x="364" y="308" on="1"/>
        <pt x="362" y="295" on="0"/>
        <pt x="344" y="279" on="0"/>
        <pt x="331" y="279" on="1"/>
        <pt x="326" y="279" on="1"/>
        <pt x="324" y="281" on="0"/>
        <pt x="314" y="288" on="0"/>
        <pt x="302" y="297" on="0"/>
        <pt x="296" y="301" on="1"/>
        <pt x="290" y="306" on="0"/>
        <pt x="288" y="308" on="1"/>
        <pt x="290" y="286" on="0"/>
        <pt x="272" y="242" on="0"/>
        <pt x="250" y="230" on="1"/>
        <pt x="245" y="237" on="0"/>
        <pt x="236" y="268" on="0"/>
        <pt x="229" y="309" on="0"/>
        <pt x="220" y="352" on="0"/>
        <pt x="208" y="386" on="0"/>
        <pt x="193" y="406" on="0"/>
      </contour>
    </TTGlyph>
    <TTGlyph name="at" xMin="19" yMin="-3" xMax="807" yMax="914">
      <contour>
        <pt x="384" y="0" on="1"/>
        <pt x="302" y="34" on="0"/>
        <pt x="168" y="135" on="0"/>
        <pt x="74" y="265" on="0"/>
        <pt x="20" y="424" on="0"/>
        <pt x="19" y="517" on="1"/>
        <pt x="19" y="564" on="0"/>
        <pt x="46" y="660" on="0"/>
        <pt x="95" y="748" on="0"/>
        <pt x="164" y="825" on="0"/>
        <pt x="246" y="881" on="0"/>
        <pt x="340" y="914" on="0"/>
        <pt x="392" y="914" on="1"/>
        <pt x="424" y="914" on="0"/>
        <pt x="496" y="895" on="0"/>
        <pt x="571" y="862" on="0"/>
        <pt x="643" y="818" on="0"/>
        <pt x="707" y="769" on="0"/>
        <pt x="760" y="716" on="0"/>
        <pt x="778" y="692" on="1"/>
        <pt x="788" y="678" on="0"/>
        <pt x="800" y="634" on="0"/>
        <pt x="806" y="589" on="0"/>
        <pt x="807" y="544" on="0"/>
        <pt x="807" y="529" on="1"/>
        <pt x="807" y="506" on="0"/>
        <pt x="800" y="447" on="0"/>
        <pt x="785" y="387" on="0"/>
        <pt x="760" y="330" on="0"/>
        <pt x="724" y="286" on="0"/>
        <pt x="700" y="273" on="1"/>
        <pt x="676" y="260" on="0"/>
        <pt x="644" y="260" on="1"/>
        <pt x="630" y="260" on="0"/>
        <pt x="602" y="269" on="0"/>
        <pt x="578" y="286" on="0"/>
        <pt x="556" y="307" on="0"/>
        <pt x="548" y="317" on="1"/>
        <pt x="534" y="299" on="0"/>
        <pt x="494" y="262" on="0"/>
        <pt x="449" y="231" on="0"/>
        <pt x="400" y="212" on="0"/>
        <pt x="375" y="212" on="1"/>
        <pt x="339" y="212" on="0"/>
        <pt x="282" y="239" on="0"/>
        <pt x="242" y="286" on="0"/>
        <pt x="220" y="346" on="0"/>
        <pt x="220" y="379" on="1"/>
        <pt x="220" y="430" on="0"/>
        <pt x="256" y="526" on="0"/>
        <pt x="321" y="600" on="0"/>
        <pt x="412" y="644" on="0"/>
        <pt x="466" y="644" on="1"/>
        <pt x="482" y="644" on="0"/>
        <pt x="542" y="629" on="0"/>
        <pt x="600" y="601" on="0"/>
        <pt x="644" y="562" on="0"/>
        <pt x="644" y="538" on="1"/>
        <pt x="644" y="524" on="0"/>
        <pt x="626" y="497" on="0"/>
        <pt x="614" y="490" on="1"/>
        <pt x="600" y="515" on="0"/>
        <pt x="568" y="554" on="0"/>
        <pt x="530" y="581" on="0"/>
        <pt x="482" y="596" on="0"/>
        <pt x="452" y="596" on="1"/>
        <pt x="407" y="596" on="0"/>
        <pt x="338" y="558" on="0"/>
        <pt x="292" y="496" on="0"/>
        <pt x="268" y="418" on="0"/>
        <pt x="268" y="379" on="1"/>
        <pt x="268" y="355" on="0"/>
        <pt x="280" y="314" on="0"/>
        <pt x="304" y="285" on="0"/>
        <pt x="344" y="268" on="0"/>
        <pt x="370" y="268" on="1"/>
        <pt x="390" y="268" on="0"/>
        <pt x="431" y="286" on="0"/>
        <pt x="470" y="315" on="0"/>
        <pt x="485" y="332" on="1"/>
        <pt x="500" y="348" on="0"/>
        <pt x="509" y="364" on="1"/>
        <pt x="508" y="367" on="0"/>
        <pt x="506" y="392" on="0"/>
        <pt x="506" y="424" on="0"/>
        <pt x="508" y="460" on="0"/>
        <pt x="517" y="490" on="0"/>
        <pt x="525" y="500" on="1"/>
        <pt x="534" y="510" on="0"/>
        <pt x="562" y="510" on="0"/>
        <pt x="578" y="490" on="0"/>
        <pt x="586" y="460" on="0"/>
        <pt x="590" y="424" on="0"/>
        <pt x="589" y="392" on="0"/>
        <pt x="586" y="368" on="0"/>
        <pt x="586" y="364" on="1"/>
        <pt x="588" y="362" on="0"/>
        <pt x="602" y="345" on="0"/>
        <pt x="622" y="327" on="0"/>
        <pt x="644" y="315" on="0"/>
        <pt x="652" y="317" on="1"/>
        <pt x="680" y="325" on="0"/>
        <pt x="720" y="377" on="0"/>
        <pt x="746" y="442" on="0"/>
        <pt x="759" y="506" on="0"/>
        <pt x="759" y="526" on="1"/>
        <pt x="761" y="582" on="0"/>
        <pt x="725" y="672" on="0"/>
        <pt x="664" y="744" on="0"/>
        <pt x="584" y="797" on="0"/>
        <pt x="499" y="836" on="0"/>
        <pt x="416" y="859" on="0"/>
        <pt x="384" y="864" on="1"/>
        <pt x="322" y="860" on="0"/>
        <pt x="204" y="797" on="0"/>
        <pt x="112" y="702" on="0"/>
        <pt x="57" y="583" on="0"/>
        <pt x="57" y="521" on="1"/>
        <pt x="57" y="468" on="0"/>
        <pt x="89" y="356" on="0"/>
        <pt x="146" y="250" on="0"/>
        <pt x="225" y="157" on="0"/>
        <pt x="320" y="86" on="0"/>
        <pt x="424" y="46" on="0"/>
        <pt x="480" y="46" on="1"/>
        <pt x="517" y="46" on="0"/>
        <pt x="588" y="62" on="0"/>
        <pt x="658" y="81" on="0"/>
        <pt x="728" y="97" on="0"/>
        <pt x="764" y="97" on="1"/>
        <pt x="774" y="80" on="0"/>
        <pt x="750" y="50" on="0"/>
        <pt x="696" y="26" on="0"/>
        <pt x="617" y="8" on="0"/>
        <pt x="526" y="-2" on="0"/>
        <pt x="429" y="-3" on="0"/>
      </contour>
    </TTGlyph>
    <TTGlyph name="atilde" xMin="19" yMin="0" xMax="490" yMax="709">
      <component glyphName="a" x="0" y="0" flags="0x1204"/>
      <component glyphName="tilde" x="49" y="154" flags="0x1004"/>
    </TTGlyph>
</ttFont>
